<?xml version="1.0" encoding="utf-8" standalone="no"?>
<!DOCTYPE svg PUBLIC "-//W3C//DTD SVG 1.1//EN"
  "http://www.w3.org/Graphics/SVG/1.1/DTD/svg11.dtd">
<svg xmlns:xlink="http://www.w3.org/1999/xlink" width="986.4pt" height="525.6pt" viewBox="0 0 986.4 525.6" xmlns="http://www.w3.org/2000/svg" version="1.1">
 <metadata>
  <rdf:RDF xmlns:dc="http://purl.org/dc/elements/1.1/" xmlns:cc="http://creativecommons.org/ns#" xmlns:rdf="http://www.w3.org/1999/02/22-rdf-syntax-ns#">
   <cc:Work>
    <dc:type rdf:resource="http://purl.org/dc/dcmitype/StillImage"/>
    <dc:date>2026-06-11T02:10:42.242006</dc:date>
    <dc:format>image/svg+xml</dc:format>
    <dc:creator>
     <cc:Agent>
      <dc:title>Matplotlib v3.10.8, https://matplotlib.org/</dc:title>
     </cc:Agent>
    </dc:creator>
   </cc:Work>
  </rdf:RDF>
 </metadata>
 <defs>
  <style type="text/css">*{stroke-linejoin: round; stroke-linecap: butt}</style>
 </defs>
 <g id="figure_1">
  <g id="patch_1">
   <path d="M 0 525.6 
L 986.4 525.6 
L 986.4 0 
L 0 0 
z
" style="fill: #ffffff"/>
  </g>
  <g id="axes_1">
   <g id="patch_2">
    <path d="M 41.713043 289.741622 
L 257.947826 289.741622 
Q 263.582609 289.741622 263.582609 284.215135 
L 263.582609 113.584865 
Q 263.582609 108.058378 257.947826 108.058378 
L 41.713043 108.058378 
Q 36.078261 108.058378 36.078261 113.584865 
L 36.078261 284.215135 
Q 36.078261 289.741622 41.713043 289.741622 
z
" clip-path="url(#pe1c371c04b)" style="fill: #fff7f7; stroke: #ef4444; stroke-width: 1.8; stroke-linejoin: miter"/>
   </g>
   <g id="patch_3">
    <path d="M 302.321739 351.914595 
L 546.730435 351.914595 
Q 552.365217 351.914595 552.365217 346.388108 
L 552.365217 99.768649 
Q 552.365217 94.242162 546.730435 94.242162 
L 302.321739 94.242162 
Q 296.686957 94.242162 296.686957 99.768649 
L 296.686957 346.388108 
Q 296.686957 351.914595 302.321739 351.914595 
z
" clip-path="url(#pe1c371c04b)" style="fill: #f0fdf4; stroke: #16a34a; stroke-width: 1.8; stroke-linejoin: miter"/>
   </g>
   <g id="patch_4">
    <path d="M 598.147826 431.357838 
L 941.165217 431.357838 
Q 946.8 431.357838 946.8 425.831351 
L 946.8 54.865946 
Q 946.8 49.339459 941.165217 49.339459 
L 598.147826 49.339459 
Q 592.513043 49.339459 592.513043 54.865946 
L 592.513043 425.831351 
Q 592.513043 431.357838 598.147826 431.357838 
z
" clip-path="url(#pe1c371c04b)" style="fill: #eff6ff; stroke: #2563eb; stroke-width: 1.8; stroke-linejoin: miter"/>
   </g>
   <g id="patch_5">
    <path d="M 624.56087 144.325946 
L 914.752174 144.325946 
Q 917.569565 144.325946 917.569565 141.562703 
L 917.569565 110.476216 
Q 917.569565 107.712973 914.752174 107.712973 
L 624.56087 107.712973 
Q 621.743478 107.712973 621.743478 110.476216 
L 621.743478 141.562703 
Q 621.743478 144.325946 624.56087 144.325946 
z
" clip-path="url(#pe1c371c04b)" style="fill: #ffffff; stroke: #f97316; stroke-width: 1.1; stroke-linejoin: miter"/>
   </g>
   <g id="patch_6">
    <path d="M 624.56087 194.755135 
L 914.752174 194.755135 
Q 917.569565 194.755135 917.569565 191.991892 
L 917.569565 160.905405 
Q 917.569565 158.142162 914.752174 158.142162 
L 624.56087 158.142162 
Q 621.743478 158.142162 621.743478 160.905405 
L 621.743478 191.991892 
Q 621.743478 194.755135 624.56087 194.755135 
z
" clip-path="url(#pe1c371c04b)" style="fill: #ffffff; stroke: #64748b; stroke-width: 1.1; stroke-linejoin: miter"/>
   </g>
   <g id="patch_7">
    <path d="M 624.56087 245.184324 
L 914.752174 245.184324 
Q 917.569565 245.184324 917.569565 242.421081 
L 917.569565 211.334595 
Q 917.569565 208.571351 914.752174 208.571351 
L 624.56087 208.571351 
Q 621.743478 208.571351 621.743478 211.334595 
L 621.743478 242.421081 
Q 621.743478 245.184324 624.56087 245.184324 
z
" clip-path="url(#pe1c371c04b)" style="fill: #ffffff; stroke: #2a9d55; stroke-width: 1.1; stroke-linejoin: miter"/>
   </g>
   <g id="patch_8">
    <path d="M 624.56087 295.613514 
L 914.752174 295.613514 
Q 917.569565 295.613514 917.569565 292.85027 
L 917.569565 261.763784 
Q 917.569565 259.000541 914.752174 259.000541 
L 624.56087 259.000541 
Q 621.743478 259.000541 621.743478 261.763784 
L 621.743478 292.85027 
Q 621.743478 295.613514 624.56087 295.613514 
z
" clip-path="url(#pe1c371c04b)" style="fill: #ffffff; stroke: #dc2626; stroke-width: 1.1; stroke-linejoin: miter"/>
   </g>
   <g id="patch_9">
    <path d="M 624.56087 346.042703 
L 914.752174 346.042703 
Q 917.569565 346.042703 917.569565 343.279459 
L 917.569565 312.192973 
Q 917.569565 309.42973 914.752174 309.42973 
L 624.56087 309.42973 
Q 621.743478 309.42973 621.743478 312.192973 
L 621.743478 343.279459 
Q 621.743478 346.042703 624.56087 346.042703 
z
" clip-path="url(#pe1c371c04b)" style="fill: #ffffff; stroke: #7c3aed; stroke-width: 1.1; stroke-linejoin: miter"/>
   </g>
   <g id="patch_10">
    <path d="M 624.56087 396.471892 
L 914.752174 396.471892 
Q 917.569565 396.471892 917.569565 393.708649 
L 917.569565 362.622162 
Q 917.569565 359.858919 914.752174 359.858919 
L 624.56087 359.858919 
Q 621.743478 359.858919 621.743478 362.622162 
L 621.743478 393.708649 
Q 621.743478 396.471892 624.56087 396.471892 
z
" clip-path="url(#pe1c371c04b)" style="fill: #ffffff; stroke: #0284c7; stroke-width: 1.1; stroke-linejoin: miter"/>
   </g>
   <g id="patch_11">
    <path d="M 266.28728 197.172973 
Q 280.838815 197.172973 293.601495 197.172973 
" clip-path="url(#pe1c371c04b)" style="fill: none; stroke: #64748b; stroke-width: 1.6; stroke-linecap: round"/>
    <path d="M 287.201495 193.972973 
L 293.601495 197.172973 
L 287.201495 200.372973 
z
" clip-path="url(#pe1c371c04b)" style="fill: #64748b; stroke: #64748b; stroke-width: 1.6; stroke-linecap: round"/>
   </g>
   <g id="patch_12">
    <path d="M 555.074016 224.805405 
Q 573.146954 224.805405 589.431038 224.805405 
" clip-path="url(#pe1c371c04b)" style="fill: none; stroke: #64748b; stroke-width: 1.6; stroke-linecap: round"/>
    <path d="M 583.031038 221.605405 
L 589.431038 224.805405 
L 583.031038 228.005405 
z
" clip-path="url(#pe1c371c04b)" style="fill: #64748b; stroke: #64748b; stroke-width: 1.6; stroke-linecap: round"/>
   </g>
   <g id="text_1">
    <!-- Failed Response + Feedback -->
    <g style="fill: #111827" transform="translate(51.573913 143.648316) scale(0.132 -0.132)">
     <defs>
      <path id="DejaVuSans-Bold-46" d="M 588 4666 
L 3834 4666 
L 3834 3756 
L 1791 3756 
L 1791 2888 
L 3713 2888 
L 3713 1978 
L 1791 1978 
L 1791 0 
L 588 0 
L 588 4666 
z
" transform="scale(0.015625)"/>
      <path id="DejaVuSans-Bold-61" d="M 2106 1575 
Q 1756 1575 1579 1456 
Q 1403 1338 1403 1106 
Q 1403 894 1545 773 
Q 1688 653 1941 653 
Q 2256 653 2472 879 
Q 2688 1106 2688 1447 
L 2688 1575 
L 2106 1575 
z
M 3816 1997 
L 3816 0 
L 2688 0 
L 2688 519 
Q 2463 200 2181 54 
Q 1900 -91 1497 -91 
Q 953 -91 614 226 
Q 275 544 275 1050 
Q 275 1666 698 1953 
Q 1122 2241 2028 2241 
L 2688 2241 
L 2688 2328 
Q 2688 2594 2478 2717 
Q 2269 2841 1825 2841 
Q 1466 2841 1156 2769 
Q 847 2697 581 2553 
L 581 3406 
Q 941 3494 1303 3539 
Q 1666 3584 2028 3584 
Q 2975 3584 3395 3211 
Q 3816 2838 3816 1997 
z
" transform="scale(0.015625)"/>
      <path id="DejaVuSans-Bold-69" d="M 538 3500 
L 1656 3500 
L 1656 0 
L 538 0 
L 538 3500 
z
M 538 4863 
L 1656 4863 
L 1656 3950 
L 538 3950 
L 538 4863 
z
" transform="scale(0.015625)"/>
      <path id="DejaVuSans-Bold-6c" d="M 538 4863 
L 1656 4863 
L 1656 0 
L 538 0 
L 538 4863 
z
" transform="scale(0.015625)"/>
      <path id="DejaVuSans-Bold-65" d="M 4031 1759 
L 4031 1441 
L 1416 1441 
Q 1456 1047 1700 850 
Q 1944 653 2381 653 
Q 2734 653 3104 758 
Q 3475 863 3866 1075 
L 3866 213 
Q 3469 63 3072 -14 
Q 2675 -91 2278 -91 
Q 1328 -91 801 392 
Q 275 875 275 1747 
Q 275 2603 792 3093 
Q 1309 3584 2216 3584 
Q 3041 3584 3536 3087 
Q 4031 2591 4031 1759 
z
M 2881 2131 
Q 2881 2450 2695 2645 
Q 2509 2841 2209 2841 
Q 1884 2841 1681 2658 
Q 1478 2475 1428 2131 
L 2881 2131 
z
" transform="scale(0.015625)"/>
      <path id="DejaVuSans-Bold-64" d="M 2919 2988 
L 2919 4863 
L 4044 4863 
L 4044 0 
L 2919 0 
L 2919 506 
Q 2688 197 2409 53 
Q 2131 -91 1766 -91 
Q 1119 -91 703 423 
Q 288 938 288 1747 
Q 288 2556 703 3070 
Q 1119 3584 1766 3584 
Q 2128 3584 2408 3439 
Q 2688 3294 2919 2988 
z
M 2181 722 
Q 2541 722 2730 984 
Q 2919 1247 2919 1747 
Q 2919 2247 2730 2509 
Q 2541 2772 2181 2772 
Q 1825 2772 1636 2509 
Q 1447 2247 1447 1747 
Q 1447 1247 1636 984 
Q 1825 722 2181 722 
z
" transform="scale(0.015625)"/>
      <path id="DejaVuSans-Bold-20" transform="scale(0.015625)"/>
      <path id="DejaVuSans-Bold-52" d="M 2297 2597 
Q 2675 2597 2839 2737 
Q 3003 2878 3003 3200 
Q 3003 3519 2839 3656 
Q 2675 3794 2297 3794 
L 1791 3794 
L 1791 2597 
L 2297 2597 
z
M 1791 1766 
L 1791 0 
L 588 0 
L 588 4666 
L 2425 4666 
Q 3347 4666 3776 4356 
Q 4206 4047 4206 3378 
Q 4206 2916 3982 2619 
Q 3759 2322 3309 2181 
Q 3556 2125 3751 1926 
Q 3947 1728 4147 1325 
L 4800 0 
L 3519 0 
L 2950 1159 
Q 2778 1509 2601 1637 
Q 2425 1766 2131 1766 
L 1791 1766 
z
" transform="scale(0.015625)"/>
      <path id="DejaVuSans-Bold-73" d="M 3272 3391 
L 3272 2541 
Q 2913 2691 2578 2766 
Q 2244 2841 1947 2841 
Q 1628 2841 1473 2761 
Q 1319 2681 1319 2516 
Q 1319 2381 1436 2309 
Q 1553 2238 1856 2203 
L 2053 2175 
Q 2913 2066 3209 1816 
Q 3506 1566 3506 1031 
Q 3506 472 3093 190 
Q 2681 -91 1863 -91 
Q 1516 -91 1145 -36 
Q 775 19 384 128 
L 384 978 
Q 719 816 1070 734 
Q 1422 653 1784 653 
Q 2113 653 2278 743 
Q 2444 834 2444 1013 
Q 2444 1163 2330 1236 
Q 2216 1309 1875 1350 
L 1678 1375 
Q 931 1469 631 1722 
Q 331 1975 331 2491 
Q 331 3047 712 3315 
Q 1094 3584 1881 3584 
Q 2191 3584 2531 3537 
Q 2872 3491 3272 3391 
z
" transform="scale(0.015625)"/>
      <path id="DejaVuSans-Bold-70" d="M 1656 506 
L 1656 -1331 
L 538 -1331 
L 538 3500 
L 1656 3500 
L 1656 2988 
Q 1888 3294 2169 3439 
Q 2450 3584 2816 3584 
Q 3463 3584 3878 3070 
Q 4294 2556 4294 1747 
Q 4294 938 3878 423 
Q 3463 -91 2816 -91 
Q 2450 -91 2169 54 
Q 1888 200 1656 506 
z
M 2400 2772 
Q 2041 2772 1848 2508 
Q 1656 2244 1656 1747 
Q 1656 1250 1848 986 
Q 2041 722 2400 722 
Q 2759 722 2948 984 
Q 3138 1247 3138 1747 
Q 3138 2247 2948 2509 
Q 2759 2772 2400 2772 
z
" transform="scale(0.015625)"/>
      <path id="DejaVuSans-Bold-6f" d="M 2203 2784 
Q 1831 2784 1636 2517 
Q 1441 2250 1441 1747 
Q 1441 1244 1636 976 
Q 1831 709 2203 709 
Q 2569 709 2762 976 
Q 2956 1244 2956 1747 
Q 2956 2250 2762 2517 
Q 2569 2784 2203 2784 
z
M 2203 3584 
Q 3106 3584 3614 3096 
Q 4122 2609 4122 1747 
Q 4122 884 3614 396 
Q 3106 -91 2203 -91 
Q 1297 -91 786 396 
Q 275 884 275 1747 
Q 275 2609 786 3096 
Q 1297 3584 2203 3584 
z
" transform="scale(0.015625)"/>
      <path id="DejaVuSans-Bold-6e" d="M 4056 2131 
L 4056 0 
L 2931 0 
L 2931 347 
L 2931 1631 
Q 2931 2084 2911 2256 
Q 2891 2428 2841 2509 
Q 2775 2619 2662 2680 
Q 2550 2741 2406 2741 
Q 2056 2741 1856 2470 
Q 1656 2200 1656 1722 
L 1656 0 
L 538 0 
L 538 3500 
L 1656 3500 
L 1656 2988 
Q 1909 3294 2193 3439 
Q 2478 3584 2822 3584 
Q 3428 3584 3742 3212 
Q 4056 2841 4056 2131 
z
" transform="scale(0.015625)"/>
      <path id="DejaVuSans-Bold-2b" d="M 3053 4013 
L 3053 2375 
L 4684 2375 
L 4684 1638 
L 3053 1638 
L 3053 0 
L 2309 0 
L 2309 1638 
L 678 1638 
L 678 2375 
L 2309 2375 
L 2309 4013 
L 3053 4013 
z
" transform="scale(0.015625)"/>
      <path id="DejaVuSans-Bold-62" d="M 2400 722 
Q 2759 722 2948 984 
Q 3138 1247 3138 1747 
Q 3138 2247 2948 2509 
Q 2759 2772 2400 2772 
Q 2041 2772 1848 2508 
Q 1656 2244 1656 1747 
Q 1656 1250 1848 986 
Q 2041 722 2400 722 
z
M 1656 2988 
Q 1888 3294 2169 3439 
Q 2450 3584 2816 3584 
Q 3463 3584 3878 3070 
Q 4294 2556 4294 1747 
Q 4294 938 3878 423 
Q 3463 -91 2816 -91 
Q 2450 -91 2169 54 
Q 1888 200 1656 506 
L 1656 0 
L 538 0 
L 538 4863 
L 1656 4863 
L 1656 2988 
z
" transform="scale(0.015625)"/>
      <path id="DejaVuSans-Bold-63" d="M 3366 3391 
L 3366 2478 
Q 3138 2634 2908 2709 
Q 2678 2784 2431 2784 
Q 1963 2784 1702 2511 
Q 1441 2238 1441 1747 
Q 1441 1256 1702 982 
Q 1963 709 2431 709 
Q 2694 709 2930 787 
Q 3166 866 3366 1019 
L 3366 103 
Q 3103 6 2833 -42 
Q 2563 -91 2291 -91 
Q 1344 -91 809 395 
Q 275 881 275 1747 
Q 275 2613 809 3098 
Q 1344 3584 2291 3584 
Q 2566 3584 2833 3536 
Q 3100 3488 3366 3391 
z
" transform="scale(0.015625)"/>
      <path id="DejaVuSans-Bold-6b" d="M 538 4863 
L 1656 4863 
L 1656 2216 
L 2944 3500 
L 4244 3500 
L 2534 1894 
L 4378 0 
L 3022 0 
L 1656 1459 
L 1656 0 
L 538 0 
L 538 4863 
z
" transform="scale(0.015625)"/>
     </defs>
     <use xlink:href="#DejaVuSans-Bold-46"/>
     <use xlink:href="#DejaVuSans-Bold-61" transform="translate(62.435547 0)"/>
     <use xlink:href="#DejaVuSans-Bold-69" transform="translate(129.916016 0)"/>
     <use xlink:href="#DejaVuSans-Bold-6c" transform="translate(164.193359 0)"/>
     <use xlink:href="#DejaVuSans-Bold-65" transform="translate(198.470703 0)"/>
     <use xlink:href="#DejaVuSans-Bold-64" transform="translate(266.292969 0)"/>
     <use xlink:href="#DejaVuSans-Bold-20" transform="translate(337.875 0)"/>
     <use xlink:href="#DejaVuSans-Bold-52" transform="translate(372.689453 0)"/>
     <use xlink:href="#DejaVuSans-Bold-65" transform="translate(449.691406 0)"/>
     <use xlink:href="#DejaVuSans-Bold-73" transform="translate(517.513672 0)"/>
     <use xlink:href="#DejaVuSans-Bold-70" transform="translate(577.035156 0)"/>
     <use xlink:href="#DejaVuSans-Bold-6f" transform="translate(648.617188 0)"/>
     <use xlink:href="#DejaVuSans-Bold-6e" transform="translate(717.318359 0)"/>
     <use xlink:href="#DejaVuSans-Bold-73" transform="translate(788.509766 0)"/>
     <use xlink:href="#DejaVuSans-Bold-65" transform="translate(848.03125 0)"/>
     <use xlink:href="#DejaVuSans-Bold-20" transform="translate(915.853516 0)"/>
     <use xlink:href="#DejaVuSans-Bold-2b" transform="translate(950.667969 0)"/>
     <use xlink:href="#DejaVuSans-Bold-20" transform="translate(1034.457031 0)"/>
     <use xlink:href="#DejaVuSans-Bold-46" transform="translate(1069.271484 0)"/>
     <use xlink:href="#DejaVuSans-Bold-65" transform="translate(1133.582031 0)"/>
     <use xlink:href="#DejaVuSans-Bold-65" transform="translate(1201.404297 0)"/>
     <use xlink:href="#DejaVuSans-Bold-64" transform="translate(1269.226562 0)"/>
     <use xlink:href="#DejaVuSans-Bold-62" transform="translate(1340.808594 0)"/>
     <use xlink:href="#DejaVuSans-Bold-61" transform="translate(1412.390625 0)"/>
     <use xlink:href="#DejaVuSans-Bold-63" transform="translate(1479.871094 0)"/>
     <use xlink:href="#DejaVuSans-Bold-6b" transform="translate(1539.148438 0)"/>
    </g>
   </g>
   <g id="text_2">
    <!-- response repeats wrong prior -->
    <g style="fill: #334155" transform="translate(51.573913 180.745001) scale(0.102 -0.102)">
     <defs>
      <path id="DejaVuSans-72" d="M 2631 2963 
Q 2534 3019 2420 3045 
Q 2306 3072 2169 3072 
Q 1681 3072 1420 2755 
Q 1159 2438 1159 1844 
L 1159 0 
L 581 0 
L 581 3500 
L 1159 3500 
L 1159 2956 
Q 1341 3275 1631 3429 
Q 1922 3584 2338 3584 
Q 2397 3584 2469 3576 
Q 2541 3569 2628 3553 
L 2631 2963 
z
" transform="scale(0.015625)"/>
      <path id="DejaVuSans-65" d="M 3597 1894 
L 3597 1613 
L 953 1613 
Q 991 1019 1311 708 
Q 1631 397 2203 397 
Q 2534 397 2845 478 
Q 3156 559 3463 722 
L 3463 178 
Q 3153 47 2828 -22 
Q 2503 -91 2169 -91 
Q 1331 -91 842 396 
Q 353 884 353 1716 
Q 353 2575 817 3079 
Q 1281 3584 2069 3584 
Q 2775 3584 3186 3129 
Q 3597 2675 3597 1894 
z
M 3022 2063 
Q 3016 2534 2758 2815 
Q 2500 3097 2075 3097 
Q 1594 3097 1305 2825 
Q 1016 2553 972 2059 
L 3022 2063 
z
" transform="scale(0.015625)"/>
      <path id="DejaVuSans-73" d="M 2834 3397 
L 2834 2853 
Q 2591 2978 2328 3040 
Q 2066 3103 1784 3103 
Q 1356 3103 1142 2972 
Q 928 2841 928 2578 
Q 928 2378 1081 2264 
Q 1234 2150 1697 2047 
L 1894 2003 
Q 2506 1872 2764 1633 
Q 3022 1394 3022 966 
Q 3022 478 2636 193 
Q 2250 -91 1575 -91 
Q 1294 -91 989 -36 
Q 684 19 347 128 
L 347 722 
Q 666 556 975 473 
Q 1284 391 1588 391 
Q 1994 391 2212 530 
Q 2431 669 2431 922 
Q 2431 1156 2273 1281 
Q 2116 1406 1581 1522 
L 1381 1569 
Q 847 1681 609 1914 
Q 372 2147 372 2553 
Q 372 3047 722 3315 
Q 1072 3584 1716 3584 
Q 2034 3584 2315 3537 
Q 2597 3491 2834 3397 
z
" transform="scale(0.015625)"/>
      <path id="DejaVuSans-70" d="M 1159 525 
L 1159 -1331 
L 581 -1331 
L 581 3500 
L 1159 3500 
L 1159 2969 
Q 1341 3281 1617 3432 
Q 1894 3584 2278 3584 
Q 2916 3584 3314 3078 
Q 3713 2572 3713 1747 
Q 3713 922 3314 415 
Q 2916 -91 2278 -91 
Q 1894 -91 1617 61 
Q 1341 213 1159 525 
z
M 3116 1747 
Q 3116 2381 2855 2742 
Q 2594 3103 2138 3103 
Q 1681 3103 1420 2742 
Q 1159 2381 1159 1747 
Q 1159 1113 1420 752 
Q 1681 391 2138 391 
Q 2594 391 2855 752 
Q 3116 1113 3116 1747 
z
" transform="scale(0.015625)"/>
      <path id="DejaVuSans-6f" d="M 1959 3097 
Q 1497 3097 1228 2736 
Q 959 2375 959 1747 
Q 959 1119 1226 758 
Q 1494 397 1959 397 
Q 2419 397 2687 759 
Q 2956 1122 2956 1747 
Q 2956 2369 2687 2733 
Q 2419 3097 1959 3097 
z
M 1959 3584 
Q 2709 3584 3137 3096 
Q 3566 2609 3566 1747 
Q 3566 888 3137 398 
Q 2709 -91 1959 -91 
Q 1206 -91 779 398 
Q 353 888 353 1747 
Q 353 2609 779 3096 
Q 1206 3584 1959 3584 
z
" transform="scale(0.015625)"/>
      <path id="DejaVuSans-6e" d="M 3513 2113 
L 3513 0 
L 2938 0 
L 2938 2094 
Q 2938 2591 2744 2837 
Q 2550 3084 2163 3084 
Q 1697 3084 1428 2787 
Q 1159 2491 1159 1978 
L 1159 0 
L 581 0 
L 581 3500 
L 1159 3500 
L 1159 2956 
Q 1366 3272 1645 3428 
Q 1925 3584 2291 3584 
Q 2894 3584 3203 3211 
Q 3513 2838 3513 2113 
z
" transform="scale(0.015625)"/>
      <path id="DejaVuSans-20" transform="scale(0.015625)"/>
      <path id="DejaVuSans-61" d="M 2194 1759 
Q 1497 1759 1228 1600 
Q 959 1441 959 1056 
Q 959 750 1161 570 
Q 1363 391 1709 391 
Q 2188 391 2477 730 
Q 2766 1069 2766 1631 
L 2766 1759 
L 2194 1759 
z
M 3341 1997 
L 3341 0 
L 2766 0 
L 2766 531 
Q 2569 213 2275 61 
Q 1981 -91 1556 -91 
Q 1019 -91 701 211 
Q 384 513 384 1019 
Q 384 1609 779 1909 
Q 1175 2209 1959 2209 
L 2766 2209 
L 2766 2266 
Q 2766 2663 2505 2880 
Q 2244 3097 1772 3097 
Q 1472 3097 1187 3025 
Q 903 2953 641 2809 
L 641 3341 
Q 956 3463 1253 3523 
Q 1550 3584 1831 3584 
Q 2591 3584 2966 3190 
Q 3341 2797 3341 1997 
z
" transform="scale(0.015625)"/>
      <path id="DejaVuSans-74" d="M 1172 4494 
L 1172 3500 
L 2356 3500 
L 2356 3053 
L 1172 3053 
L 1172 1153 
Q 1172 725 1289 603 
Q 1406 481 1766 481 
L 2356 481 
L 2356 0 
L 1766 0 
Q 1100 0 847 248 
Q 594 497 594 1153 
L 594 3053 
L 172 3053 
L 172 3500 
L 594 3500 
L 594 4494 
L 1172 4494 
z
" transform="scale(0.015625)"/>
      <path id="DejaVuSans-77" d="M 269 3500 
L 844 3500 
L 1563 769 
L 2278 3500 
L 2956 3500 
L 3675 769 
L 4391 3500 
L 4966 3500 
L 4050 0 
L 3372 0 
L 2619 2869 
L 1863 0 
L 1184 0 
L 269 3500 
z
" transform="scale(0.015625)"/>
      <path id="DejaVuSans-67" d="M 2906 1791 
Q 2906 2416 2648 2759 
Q 2391 3103 1925 3103 
Q 1463 3103 1205 2759 
Q 947 2416 947 1791 
Q 947 1169 1205 825 
Q 1463 481 1925 481 
Q 2391 481 2648 825 
Q 2906 1169 2906 1791 
z
M 3481 434 
Q 3481 -459 3084 -895 
Q 2688 -1331 1869 -1331 
Q 1566 -1331 1297 -1286 
Q 1028 -1241 775 -1147 
L 775 -588 
Q 1028 -725 1275 -790 
Q 1522 -856 1778 -856 
Q 2344 -856 2625 -561 
Q 2906 -266 2906 331 
L 2906 616 
Q 2728 306 2450 153 
Q 2172 0 1784 0 
Q 1141 0 747 490 
Q 353 981 353 1791 
Q 353 2603 747 3093 
Q 1141 3584 1784 3584 
Q 2172 3584 2450 3431 
Q 2728 3278 2906 2969 
L 2906 3500 
L 3481 3500 
L 3481 434 
z
" transform="scale(0.015625)"/>
      <path id="DejaVuSans-69" d="M 603 3500 
L 1178 3500 
L 1178 0 
L 603 0 
L 603 3500 
z
M 603 4863 
L 1178 4863 
L 1178 4134 
L 603 4134 
L 603 4863 
z
" transform="scale(0.015625)"/>
     </defs>
     <use xlink:href="#DejaVuSans-72"/>
     <use xlink:href="#DejaVuSans-65" transform="translate(38.863281 0)"/>
     <use xlink:href="#DejaVuSans-73" transform="translate(100.386719 0)"/>
     <use xlink:href="#DejaVuSans-70" transform="translate(152.486328 0)"/>
     <use xlink:href="#DejaVuSans-6f" transform="translate(215.962891 0)"/>
     <use xlink:href="#DejaVuSans-6e" transform="translate(277.144531 0)"/>
     <use xlink:href="#DejaVuSans-73" transform="translate(340.523438 0)"/>
     <use xlink:href="#DejaVuSans-65" transform="translate(392.623047 0)"/>
     <use xlink:href="#DejaVuSans-20" transform="translate(454.146484 0)"/>
     <use xlink:href="#DejaVuSans-72" transform="translate(485.933594 0)"/>
     <use xlink:href="#DejaVuSans-65" transform="translate(524.796875 0)"/>
     <use xlink:href="#DejaVuSans-70" transform="translate(586.320312 0)"/>
     <use xlink:href="#DejaVuSans-65" transform="translate(649.796875 0)"/>
     <use xlink:href="#DejaVuSans-61" transform="translate(711.320312 0)"/>
     <use xlink:href="#DejaVuSans-74" transform="translate(772.599609 0)"/>
     <use xlink:href="#DejaVuSans-73" transform="translate(811.808594 0)"/>
     <use xlink:href="#DejaVuSans-20" transform="translate(863.908203 0)"/>
     <use xlink:href="#DejaVuSans-77" transform="translate(895.695312 0)"/>
     <use xlink:href="#DejaVuSans-72" transform="translate(977.482422 0)"/>
     <use xlink:href="#DejaVuSans-6f" transform="translate(1016.345703 0)"/>
     <use xlink:href="#DejaVuSans-6e" transform="translate(1077.527344 0)"/>
     <use xlink:href="#DejaVuSans-67" transform="translate(1140.90625 0)"/>
     <use xlink:href="#DejaVuSans-20" transform="translate(1204.382812 0)"/>
     <use xlink:href="#DejaVuSans-70" transform="translate(1236.169922 0)"/>
     <use xlink:href="#DejaVuSans-72" transform="translate(1299.646484 0)"/>
     <use xlink:href="#DejaVuSans-69" transform="translate(1340.759766 0)"/>
     <use xlink:href="#DejaVuSans-6f" transform="translate(1368.542969 0)"/>
     <use xlink:href="#DejaVuSans-72" transform="translate(1429.724609 0)"/>
    </g>
    <!-- user or evaluator supplies: -->
    <g style="fill: #334155" transform="translate(51.573913 192.16677) scale(0.102 -0.102)">
     <defs>
      <path id="DejaVuSans-75" d="M 544 1381 
L 544 3500 
L 1119 3500 
L 1119 1403 
Q 1119 906 1312 657 
Q 1506 409 1894 409 
Q 2359 409 2629 706 
Q 2900 1003 2900 1516 
L 2900 3500 
L 3475 3500 
L 3475 0 
L 2900 0 
L 2900 538 
Q 2691 219 2414 64 
Q 2138 -91 1772 -91 
Q 1169 -91 856 284 
Q 544 659 544 1381 
z
M 1991 3584 
L 1991 3584 
z
" transform="scale(0.015625)"/>
      <path id="DejaVuSans-76" d="M 191 3500 
L 800 3500 
L 1894 563 
L 2988 3500 
L 3597 3500 
L 2284 0 
L 1503 0 
L 191 3500 
z
" transform="scale(0.015625)"/>
      <path id="DejaVuSans-6c" d="M 603 4863 
L 1178 4863 
L 1178 0 
L 603 0 
L 603 4863 
z
" transform="scale(0.015625)"/>
      <path id="DejaVuSans-3a" d="M 750 794 
L 1409 794 
L 1409 0 
L 750 0 
L 750 794 
z
M 750 3309 
L 1409 3309 
L 1409 2516 
L 750 2516 
L 750 3309 
z
" transform="scale(0.015625)"/>
     </defs>
     <use xlink:href="#DejaVuSans-75"/>
     <use xlink:href="#DejaVuSans-73" transform="translate(63.378906 0)"/>
     <use xlink:href="#DejaVuSans-65" transform="translate(115.478516 0)"/>
     <use xlink:href="#DejaVuSans-72" transform="translate(177.001953 0)"/>
     <use xlink:href="#DejaVuSans-20" transform="translate(218.115234 0)"/>
     <use xlink:href="#DejaVuSans-6f" transform="translate(249.902344 0)"/>
     <use xlink:href="#DejaVuSans-72" transform="translate(311.083984 0)"/>
     <use xlink:href="#DejaVuSans-20" transform="translate(352.197266 0)"/>
     <use xlink:href="#DejaVuSans-65" transform="translate(383.984375 0)"/>
     <use xlink:href="#DejaVuSans-76" transform="translate(445.507812 0)"/>
     <use xlink:href="#DejaVuSans-61" transform="translate(504.6875 0)"/>
     <use xlink:href="#DejaVuSans-6c" transform="translate(565.966797 0)"/>
     <use xlink:href="#DejaVuSans-75" transform="translate(593.75 0)"/>
     <use xlink:href="#DejaVuSans-61" transform="translate(657.128906 0)"/>
     <use xlink:href="#DejaVuSans-74" transform="translate(718.408203 0)"/>
     <use xlink:href="#DejaVuSans-6f" transform="translate(757.617188 0)"/>
     <use xlink:href="#DejaVuSans-72" transform="translate(818.798828 0)"/>
     <use xlink:href="#DejaVuSans-20" transform="translate(859.912109 0)"/>
     <use xlink:href="#DejaVuSans-73" transform="translate(891.699219 0)"/>
     <use xlink:href="#DejaVuSans-75" transform="translate(943.798828 0)"/>
     <use xlink:href="#DejaVuSans-70" transform="translate(1007.177734 0)"/>
     <use xlink:href="#DejaVuSans-70" transform="translate(1070.654297 0)"/>
     <use xlink:href="#DejaVuSans-6c" transform="translate(1134.130859 0)"/>
     <use xlink:href="#DejaVuSans-69" transform="translate(1161.914062 0)"/>
     <use xlink:href="#DejaVuSans-65" transform="translate(1189.697266 0)"/>
     <use xlink:href="#DejaVuSans-73" transform="translate(1251.220703 0)"/>
     <use xlink:href="#DejaVuSans-3a" transform="translate(1303.320312 0)"/>
    </g>
    <!-- - error type -->
    <g style="fill: #334155" transform="translate(51.573913 203.588538) scale(0.102 -0.102)">
     <defs>
      <path id="DejaVuSans-2d" d="M 313 2009 
L 1997 2009 
L 1997 1497 
L 313 1497 
L 313 2009 
z
" transform="scale(0.015625)"/>
      <path id="DejaVuSans-79" d="M 2059 -325 
Q 1816 -950 1584 -1140 
Q 1353 -1331 966 -1331 
L 506 -1331 
L 506 -850 
L 844 -850 
Q 1081 -850 1212 -737 
Q 1344 -625 1503 -206 
L 1606 56 
L 191 3500 
L 800 3500 
L 1894 763 
L 2988 3500 
L 3597 3500 
L 2059 -325 
z
" transform="scale(0.015625)"/>
     </defs>
     <use xlink:href="#DejaVuSans-2d"/>
     <use xlink:href="#DejaVuSans-20" transform="translate(36.083984 0)"/>
     <use xlink:href="#DejaVuSans-65" transform="translate(67.871094 0)"/>
     <use xlink:href="#DejaVuSans-72" transform="translate(129.394531 0)"/>
     <use xlink:href="#DejaVuSans-72" transform="translate(168.757812 0)"/>
     <use xlink:href="#DejaVuSans-6f" transform="translate(207.621094 0)"/>
     <use xlink:href="#DejaVuSans-72" transform="translate(268.802734 0)"/>
     <use xlink:href="#DejaVuSans-20" transform="translate(309.916016 0)"/>
     <use xlink:href="#DejaVuSans-74" transform="translate(341.703125 0)"/>
     <use xlink:href="#DejaVuSans-79" transform="translate(380.912109 0)"/>
     <use xlink:href="#DejaVuSans-70" transform="translate(440.091797 0)"/>
     <use xlink:href="#DejaVuSans-65" transform="translate(503.568359 0)"/>
    </g>
    <!-- - corrected fact/rule -->
    <g style="fill: #334155" transform="translate(51.573913 215.010307) scale(0.102 -0.102)">
     <defs>
      <path id="DejaVuSans-63" d="M 3122 3366 
L 3122 2828 
Q 2878 2963 2633 3030 
Q 2388 3097 2138 3097 
Q 1578 3097 1268 2742 
Q 959 2388 959 1747 
Q 959 1106 1268 751 
Q 1578 397 2138 397 
Q 2388 397 2633 464 
Q 2878 531 3122 666 
L 3122 134 
Q 2881 22 2623 -34 
Q 2366 -91 2075 -91 
Q 1284 -91 818 406 
Q 353 903 353 1747 
Q 353 2603 823 3093 
Q 1294 3584 2113 3584 
Q 2378 3584 2631 3529 
Q 2884 3475 3122 3366 
z
" transform="scale(0.015625)"/>
      <path id="DejaVuSans-64" d="M 2906 2969 
L 2906 4863 
L 3481 4863 
L 3481 0 
L 2906 0 
L 2906 525 
Q 2725 213 2448 61 
Q 2172 -91 1784 -91 
Q 1150 -91 751 415 
Q 353 922 353 1747 
Q 353 2572 751 3078 
Q 1150 3584 1784 3584 
Q 2172 3584 2448 3432 
Q 2725 3281 2906 2969 
z
M 947 1747 
Q 947 1113 1208 752 
Q 1469 391 1925 391 
Q 2381 391 2643 752 
Q 2906 1113 2906 1747 
Q 2906 2381 2643 2742 
Q 2381 3103 1925 3103 
Q 1469 3103 1208 2742 
Q 947 2381 947 1747 
z
" transform="scale(0.015625)"/>
      <path id="DejaVuSans-66" d="M 2375 4863 
L 2375 4384 
L 1825 4384 
Q 1516 4384 1395 4259 
Q 1275 4134 1275 3809 
L 1275 3500 
L 2222 3500 
L 2222 3053 
L 1275 3053 
L 1275 0 
L 697 0 
L 697 3053 
L 147 3053 
L 147 3500 
L 697 3500 
L 697 3744 
Q 697 4328 969 4595 
Q 1241 4863 1831 4863 
L 2375 4863 
z
" transform="scale(0.015625)"/>
      <path id="DejaVuSans-2f" d="M 1625 4666 
L 2156 4666 
L 531 -594 
L 0 -594 
L 1625 4666 
z
" transform="scale(0.015625)"/>
     </defs>
     <use xlink:href="#DejaVuSans-2d"/>
     <use xlink:href="#DejaVuSans-20" transform="translate(36.083984 0)"/>
     <use xlink:href="#DejaVuSans-63" transform="translate(67.871094 0)"/>
     <use xlink:href="#DejaVuSans-6f" transform="translate(122.851562 0)"/>
     <use xlink:href="#DejaVuSans-72" transform="translate(184.033203 0)"/>
     <use xlink:href="#DejaVuSans-72" transform="translate(223.396484 0)"/>
     <use xlink:href="#DejaVuSans-65" transform="translate(262.259766 0)"/>
     <use xlink:href="#DejaVuSans-63" transform="translate(323.783203 0)"/>
     <use xlink:href="#DejaVuSans-74" transform="translate(378.763672 0)"/>
     <use xlink:href="#DejaVuSans-65" transform="translate(417.972656 0)"/>
     <use xlink:href="#DejaVuSans-64" transform="translate(479.496094 0)"/>
     <use xlink:href="#DejaVuSans-20" transform="translate(542.972656 0)"/>
     <use xlink:href="#DejaVuSans-66" transform="translate(574.759766 0)"/>
     <use xlink:href="#DejaVuSans-61" transform="translate(609.964844 0)"/>
     <use xlink:href="#DejaVuSans-63" transform="translate(671.244141 0)"/>
     <use xlink:href="#DejaVuSans-74" transform="translate(726.224609 0)"/>
     <use xlink:href="#DejaVuSans-2f" transform="translate(765.433594 0)"/>
     <use xlink:href="#DejaVuSans-72" transform="translate(799.125 0)"/>
     <use xlink:href="#DejaVuSans-75" transform="translate(840.238281 0)"/>
     <use xlink:href="#DejaVuSans-6c" transform="translate(903.617188 0)"/>
     <use xlink:href="#DejaVuSans-65" transform="translate(931.400391 0)"/>
    </g>
    <!-- - migration scope -->
    <g style="fill: #334155" transform="translate(51.573913 226.432076) scale(0.102 -0.102)">
     <defs>
      <path id="DejaVuSans-6d" d="M 3328 2828 
Q 3544 3216 3844 3400 
Q 4144 3584 4550 3584 
Q 5097 3584 5394 3201 
Q 5691 2819 5691 2113 
L 5691 0 
L 5113 0 
L 5113 2094 
Q 5113 2597 4934 2840 
Q 4756 3084 4391 3084 
Q 3944 3084 3684 2787 
Q 3425 2491 3425 1978 
L 3425 0 
L 2847 0 
L 2847 2094 
Q 2847 2600 2669 2842 
Q 2491 3084 2119 3084 
Q 1678 3084 1418 2786 
Q 1159 2488 1159 1978 
L 1159 0 
L 581 0 
L 581 3500 
L 1159 3500 
L 1159 2956 
Q 1356 3278 1631 3431 
Q 1906 3584 2284 3584 
Q 2666 3584 2933 3390 
Q 3200 3197 3328 2828 
z
" transform="scale(0.015625)"/>
     </defs>
     <use xlink:href="#DejaVuSans-2d"/>
     <use xlink:href="#DejaVuSans-20" transform="translate(36.083984 0)"/>
     <use xlink:href="#DejaVuSans-6d" transform="translate(67.871094 0)"/>
     <use xlink:href="#DejaVuSans-69" transform="translate(165.283203 0)"/>
     <use xlink:href="#DejaVuSans-67" transform="translate(193.066406 0)"/>
     <use xlink:href="#DejaVuSans-72" transform="translate(256.542969 0)"/>
     <use xlink:href="#DejaVuSans-61" transform="translate(297.65625 0)"/>
     <use xlink:href="#DejaVuSans-74" transform="translate(358.935547 0)"/>
     <use xlink:href="#DejaVuSans-69" transform="translate(398.144531 0)"/>
     <use xlink:href="#DejaVuSans-6f" transform="translate(425.927734 0)"/>
     <use xlink:href="#DejaVuSans-6e" transform="translate(487.109375 0)"/>
     <use xlink:href="#DejaVuSans-20" transform="translate(550.488281 0)"/>
     <use xlink:href="#DejaVuSans-73" transform="translate(582.275391 0)"/>
     <use xlink:href="#DejaVuSans-63" transform="translate(634.375 0)"/>
     <use xlink:href="#DejaVuSans-6f" transform="translate(689.355469 0)"/>
     <use xlink:href="#DejaVuSans-70" transform="translate(750.537109 0)"/>
     <use xlink:href="#DejaVuSans-65" transform="translate(814.013672 0)"/>
    </g>
   </g>
   <g id="text_3">
    <!-- FGMA Memory Entry -->
    <g style="fill: #111827" transform="translate(312.182609 129.728975) scale(0.132 -0.132)">
     <defs>
      <path id="DejaVuSans-Bold-47" d="M 4781 347 
Q 4331 128 3847 18 
Q 3363 -91 2847 -91 
Q 1681 -91 1000 561 
Q 319 1213 319 2328 
Q 319 3456 1012 4103 
Q 1706 4750 2913 4750 
Q 3378 4750 3804 4662 
Q 4231 4575 4609 4403 
L 4609 3438 
Q 4219 3659 3833 3768 
Q 3447 3878 3059 3878 
Q 2341 3878 1952 3476 
Q 1563 3075 1563 2328 
Q 1563 1588 1938 1184 
Q 2313 781 3003 781 
Q 3191 781 3352 804 
Q 3513 828 3641 878 
L 3641 1784 
L 2906 1784 
L 2906 2591 
L 4781 2591 
L 4781 347 
z
" transform="scale(0.015625)"/>
      <path id="DejaVuSans-Bold-4d" d="M 588 4666 
L 2119 4666 
L 3181 2169 
L 4250 4666 
L 5778 4666 
L 5778 0 
L 4641 0 
L 4641 3413 
L 3566 897 
L 2803 897 
L 1728 3413 
L 1728 0 
L 588 0 
L 588 4666 
z
" transform="scale(0.015625)"/>
      <path id="DejaVuSans-Bold-41" d="M 3419 850 
L 1538 850 
L 1241 0 
L 31 0 
L 1759 4666 
L 3194 4666 
L 4922 0 
L 3713 0 
L 3419 850 
z
M 1838 1716 
L 3116 1716 
L 2478 3572 
L 1838 1716 
z
" transform="scale(0.015625)"/>
      <path id="DejaVuSans-Bold-6d" d="M 3781 2919 
Q 3994 3244 4286 3414 
Q 4578 3584 4928 3584 
Q 5531 3584 5847 3212 
Q 6163 2841 6163 2131 
L 6163 0 
L 5038 0 
L 5038 1825 
Q 5041 1866 5042 1909 
Q 5044 1953 5044 2034 
Q 5044 2406 4934 2573 
Q 4825 2741 4581 2741 
Q 4263 2741 4089 2478 
Q 3916 2216 3909 1719 
L 3909 0 
L 2784 0 
L 2784 1825 
Q 2784 2406 2684 2573 
Q 2584 2741 2328 2741 
Q 2006 2741 1831 2477 
Q 1656 2213 1656 1722 
L 1656 0 
L 531 0 
L 531 3500 
L 1656 3500 
L 1656 2988 
Q 1863 3284 2130 3434 
Q 2397 3584 2719 3584 
Q 3081 3584 3359 3409 
Q 3638 3234 3781 2919 
z
" transform="scale(0.015625)"/>
      <path id="DejaVuSans-Bold-72" d="M 3138 2547 
Q 2991 2616 2845 2648 
Q 2700 2681 2553 2681 
Q 2122 2681 1889 2404 
Q 1656 2128 1656 1613 
L 1656 0 
L 538 0 
L 538 3500 
L 1656 3500 
L 1656 2925 
Q 1872 3269 2151 3426 
Q 2431 3584 2822 3584 
Q 2878 3584 2943 3579 
Q 3009 3575 3134 3559 
L 3138 2547 
z
" transform="scale(0.015625)"/>
      <path id="DejaVuSans-Bold-79" d="M 78 3500 
L 1197 3500 
L 2138 1125 
L 2938 3500 
L 4056 3500 
L 2584 -331 
Q 2363 -916 2067 -1148 
Q 1772 -1381 1288 -1381 
L 641 -1381 
L 641 -647 
L 991 -647 
Q 1275 -647 1404 -556 
Q 1534 -466 1606 -231 
L 1638 -134 
L 78 3500 
z
" transform="scale(0.015625)"/>
      <path id="DejaVuSans-Bold-45" d="M 588 4666 
L 3834 4666 
L 3834 3756 
L 1791 3756 
L 1791 2888 
L 3713 2888 
L 3713 1978 
L 1791 1978 
L 1791 909 
L 3903 909 
L 3903 0 
L 588 0 
L 588 4666 
z
" transform="scale(0.015625)"/>
      <path id="DejaVuSans-Bold-74" d="M 1759 4494 
L 1759 3500 
L 2913 3500 
L 2913 2700 
L 1759 2700 
L 1759 1216 
Q 1759 972 1856 886 
Q 1953 800 2241 800 
L 2816 800 
L 2816 0 
L 1856 0 
Q 1194 0 917 276 
Q 641 553 641 1216 
L 641 2700 
L 84 2700 
L 84 3500 
L 641 3500 
L 641 4494 
L 1759 4494 
z
" transform="scale(0.015625)"/>
     </defs>
     <use xlink:href="#DejaVuSans-Bold-46"/>
     <use xlink:href="#DejaVuSans-Bold-47" transform="translate(68.310547 0)"/>
     <use xlink:href="#DejaVuSans-Bold-4d" transform="translate(150.390625 0)"/>
     <use xlink:href="#DejaVuSans-Bold-41" transform="translate(249.902344 0)"/>
     <use xlink:href="#DejaVuSans-Bold-20" transform="translate(327.294922 0)"/>
     <use xlink:href="#DejaVuSans-Bold-4d" transform="translate(362.109375 0)"/>
     <use xlink:href="#DejaVuSans-Bold-65" transform="translate(461.621094 0)"/>
     <use xlink:href="#DejaVuSans-Bold-6d" transform="translate(529.443359 0)"/>
     <use xlink:href="#DejaVuSans-Bold-6f" transform="translate(633.642578 0)"/>
     <use xlink:href="#DejaVuSans-Bold-72" transform="translate(702.34375 0)"/>
     <use xlink:href="#DejaVuSans-Bold-79" transform="translate(751.660156 0)"/>
     <use xlink:href="#DejaVuSans-Bold-20" transform="translate(816.845703 0)"/>
     <use xlink:href="#DejaVuSans-Bold-45" transform="translate(851.660156 0)"/>
     <use xlink:href="#DejaVuSans-Bold-6e" transform="translate(919.970703 0)"/>
     <use xlink:href="#DejaVuSans-Bold-74" transform="translate(991.162109 0)"/>
     <use xlink:href="#DejaVuSans-Bold-72" transform="translate(1038.964844 0)"/>
     <use xlink:href="#DejaVuSans-Bold-79" transform="translate(1088.28125 0)"/>
    </g>
   </g>
   <g id="text_4">
    <!-- error_type -->
    <g style="fill: #334155" transform="translate(312.182609 166.645097) scale(0.102 -0.102)">
     <defs>
      <path id="DejaVuSans-5f" d="M 3263 -1063 
L 3263 -1509 
L -63 -1509 
L -63 -1063 
L 3263 -1063 
z
" transform="scale(0.015625)"/>
     </defs>
     <use xlink:href="#DejaVuSans-65"/>
     <use xlink:href="#DejaVuSans-72" transform="translate(61.523438 0)"/>
     <use xlink:href="#DejaVuSans-72" transform="translate(100.886719 0)"/>
     <use xlink:href="#DejaVuSans-6f" transform="translate(139.75 0)"/>
     <use xlink:href="#DejaVuSans-72" transform="translate(200.931641 0)"/>
     <use xlink:href="#DejaVuSans-5f" transform="translate(242.044922 0)"/>
     <use xlink:href="#DejaVuSans-74" transform="translate(292.044922 0)"/>
     <use xlink:href="#DejaVuSans-79" transform="translate(331.253906 0)"/>
     <use xlink:href="#DejaVuSans-70" transform="translate(390.433594 0)"/>
     <use xlink:href="#DejaVuSans-65" transform="translate(453.910156 0)"/>
    </g>
    <!-- failed_response_summary -->
    <g style="fill: #334155" transform="translate(312.182609 178.350553) scale(0.102 -0.102)">
     <use xlink:href="#DejaVuSans-66"/>
     <use xlink:href="#DejaVuSans-61" transform="translate(35.205078 0)"/>
     <use xlink:href="#DejaVuSans-69" transform="translate(96.484375 0)"/>
     <use xlink:href="#DejaVuSans-6c" transform="translate(124.267578 0)"/>
     <use xlink:href="#DejaVuSans-65" transform="translate(152.050781 0)"/>
     <use xlink:href="#DejaVuSans-64" transform="translate(213.574219 0)"/>
     <use xlink:href="#DejaVuSans-5f" transform="translate(277.050781 0)"/>
     <use xlink:href="#DejaVuSans-72" transform="translate(327.050781 0)"/>
     <use xlink:href="#DejaVuSans-65" transform="translate(365.914062 0)"/>
     <use xlink:href="#DejaVuSans-73" transform="translate(427.4375 0)"/>
     <use xlink:href="#DejaVuSans-70" transform="translate(479.537109 0)"/>
     <use xlink:href="#DejaVuSans-6f" transform="translate(543.013672 0)"/>
     <use xlink:href="#DejaVuSans-6e" transform="translate(604.195312 0)"/>
     <use xlink:href="#DejaVuSans-73" transform="translate(667.574219 0)"/>
     <use xlink:href="#DejaVuSans-65" transform="translate(719.673828 0)"/>
     <use xlink:href="#DejaVuSans-5f" transform="translate(781.197266 0)"/>
     <use xlink:href="#DejaVuSans-73" transform="translate(831.197266 0)"/>
     <use xlink:href="#DejaVuSans-75" transform="translate(883.296875 0)"/>
     <use xlink:href="#DejaVuSans-6d" transform="translate(946.675781 0)"/>
     <use xlink:href="#DejaVuSans-6d" transform="translate(1044.087891 0)"/>
     <use xlink:href="#DejaVuSans-61" transform="translate(1141.5 0)"/>
     <use xlink:href="#DejaVuSans-72" transform="translate(1202.779297 0)"/>
     <use xlink:href="#DejaVuSans-79" transform="translate(1243.892578 0)"/>
    </g>
    <!-- corrected_fact_or_rule -->
    <g style="fill: #334155" transform="translate(312.182609 190.05601) scale(0.102 -0.102)">
     <use xlink:href="#DejaVuSans-63"/>
     <use xlink:href="#DejaVuSans-6f" transform="translate(54.980469 0)"/>
     <use xlink:href="#DejaVuSans-72" transform="translate(116.162109 0)"/>
     <use xlink:href="#DejaVuSans-72" transform="translate(155.525391 0)"/>
     <use xlink:href="#DejaVuSans-65" transform="translate(194.388672 0)"/>
     <use xlink:href="#DejaVuSans-63" transform="translate(255.912109 0)"/>
     <use xlink:href="#DejaVuSans-74" transform="translate(310.892578 0)"/>
     <use xlink:href="#DejaVuSans-65" transform="translate(350.101562 0)"/>
     <use xlink:href="#DejaVuSans-64" transform="translate(411.625 0)"/>
     <use xlink:href="#DejaVuSans-5f" transform="translate(475.101562 0)"/>
     <use xlink:href="#DejaVuSans-66" transform="translate(525.101562 0)"/>
     <use xlink:href="#DejaVuSans-61" transform="translate(560.306641 0)"/>
     <use xlink:href="#DejaVuSans-63" transform="translate(621.585938 0)"/>
     <use xlink:href="#DejaVuSans-74" transform="translate(676.566406 0)"/>
     <use xlink:href="#DejaVuSans-5f" transform="translate(715.775391 0)"/>
     <use xlink:href="#DejaVuSans-6f" transform="translate(765.775391 0)"/>
     <use xlink:href="#DejaVuSans-72" transform="translate(826.957031 0)"/>
     <use xlink:href="#DejaVuSans-5f" transform="translate(868.070312 0)"/>
     <use xlink:href="#DejaVuSans-72" transform="translate(918.070312 0)"/>
     <use xlink:href="#DejaVuSans-75" transform="translate(959.183594 0)"/>
     <use xlink:href="#DejaVuSans-6c" transform="translate(1022.5625 0)"/>
     <use xlink:href="#DejaVuSans-65" transform="translate(1050.345703 0)"/>
    </g>
    <!-- negative_constraint -->
    <g style="fill: #334155" transform="translate(312.182609 201.761466) scale(0.102 -0.102)">
     <use xlink:href="#DejaVuSans-6e"/>
     <use xlink:href="#DejaVuSans-65" transform="translate(63.378906 0)"/>
     <use xlink:href="#DejaVuSans-67" transform="translate(124.902344 0)"/>
     <use xlink:href="#DejaVuSans-61" transform="translate(188.378906 0)"/>
     <use xlink:href="#DejaVuSans-74" transform="translate(249.658203 0)"/>
     <use xlink:href="#DejaVuSans-69" transform="translate(288.867188 0)"/>
     <use xlink:href="#DejaVuSans-76" transform="translate(316.650391 0)"/>
     <use xlink:href="#DejaVuSans-65" transform="translate(375.830078 0)"/>
     <use xlink:href="#DejaVuSans-5f" transform="translate(437.353516 0)"/>
     <use xlink:href="#DejaVuSans-63" transform="translate(487.353516 0)"/>
     <use xlink:href="#DejaVuSans-6f" transform="translate(542.333984 0)"/>
     <use xlink:href="#DejaVuSans-6e" transform="translate(603.515625 0)"/>
     <use xlink:href="#DejaVuSans-73" transform="translate(666.894531 0)"/>
     <use xlink:href="#DejaVuSans-74" transform="translate(718.994141 0)"/>
     <use xlink:href="#DejaVuSans-72" transform="translate(758.203125 0)"/>
     <use xlink:href="#DejaVuSans-61" transform="translate(799.316406 0)"/>
     <use xlink:href="#DejaVuSans-69" transform="translate(860.595703 0)"/>
     <use xlink:href="#DejaVuSans-6e" transform="translate(888.378906 0)"/>
     <use xlink:href="#DejaVuSans-74" transform="translate(951.757812 0)"/>
    </g>
    <!-- migration_scope -->
    <g style="fill: #334155" transform="translate(312.182609 213.466922) scale(0.102 -0.102)">
     <use xlink:href="#DejaVuSans-6d"/>
     <use xlink:href="#DejaVuSans-69" transform="translate(97.412109 0)"/>
     <use xlink:href="#DejaVuSans-67" transform="translate(125.195312 0)"/>
     <use xlink:href="#DejaVuSans-72" transform="translate(188.671875 0)"/>
     <use xlink:href="#DejaVuSans-61" transform="translate(229.785156 0)"/>
     <use xlink:href="#DejaVuSans-74" transform="translate(291.064453 0)"/>
     <use xlink:href="#DejaVuSans-69" transform="translate(330.273438 0)"/>
     <use xlink:href="#DejaVuSans-6f" transform="translate(358.056641 0)"/>
     <use xlink:href="#DejaVuSans-6e" transform="translate(419.238281 0)"/>
     <use xlink:href="#DejaVuSans-5f" transform="translate(482.617188 0)"/>
     <use xlink:href="#DejaVuSans-73" transform="translate(532.617188 0)"/>
     <use xlink:href="#DejaVuSans-63" transform="translate(584.716797 0)"/>
     <use xlink:href="#DejaVuSans-6f" transform="translate(639.697266 0)"/>
     <use xlink:href="#DejaVuSans-70" transform="translate(700.878906 0)"/>
     <use xlink:href="#DejaVuSans-65" transform="translate(764.355469 0)"/>
    </g>
    <!-- retrieval_keywords -->
    <g style="fill: #334155" transform="translate(312.182609 225.172378) scale(0.102 -0.102)">
     <defs>
      <path id="DejaVuSans-6b" d="M 581 4863 
L 1159 4863 
L 1159 1991 
L 2875 3500 
L 3609 3500 
L 1753 1863 
L 3688 0 
L 2938 0 
L 1159 1709 
L 1159 0 
L 581 0 
L 581 4863 
z
" transform="scale(0.015625)"/>
     </defs>
     <use xlink:href="#DejaVuSans-72"/>
     <use xlink:href="#DejaVuSans-65" transform="translate(38.863281 0)"/>
     <use xlink:href="#DejaVuSans-74" transform="translate(100.386719 0)"/>
     <use xlink:href="#DejaVuSans-72" transform="translate(139.595703 0)"/>
     <use xlink:href="#DejaVuSans-69" transform="translate(180.708984 0)"/>
     <use xlink:href="#DejaVuSans-65" transform="translate(208.492188 0)"/>
     <use xlink:href="#DejaVuSans-76" transform="translate(270.015625 0)"/>
     <use xlink:href="#DejaVuSans-61" transform="translate(329.195312 0)"/>
     <use xlink:href="#DejaVuSans-6c" transform="translate(390.474609 0)"/>
     <use xlink:href="#DejaVuSans-5f" transform="translate(418.257812 0)"/>
     <use xlink:href="#DejaVuSans-6b" transform="translate(468.257812 0)"/>
     <use xlink:href="#DejaVuSans-65" transform="translate(522.542969 0)"/>
     <use xlink:href="#DejaVuSans-79" transform="translate(584.066406 0)"/>
     <use xlink:href="#DejaVuSans-77" transform="translate(643.246094 0)"/>
     <use xlink:href="#DejaVuSans-6f" transform="translate(725.033203 0)"/>
     <use xlink:href="#DejaVuSans-72" transform="translate(786.214844 0)"/>
     <use xlink:href="#DejaVuSans-64" transform="translate(825.578125 0)"/>
     <use xlink:href="#DejaVuSans-73" transform="translate(889.054688 0)"/>
    </g>
   </g>
   <g id="text_5">
    <!-- Retrieved Memory in -->
    <g style="fill: #111827" transform="translate(608.008696 84.321522) scale(0.124 -0.124)">
     <defs>
      <path id="DejaVuSans-Bold-76" d="M 97 3500 
L 1216 3500 
L 2088 1081 
L 2956 3500 
L 4078 3500 
L 2700 0 
L 1472 0 
L 97 3500 
z
" transform="scale(0.015625)"/>
     </defs>
     <use xlink:href="#DejaVuSans-Bold-52"/>
     <use xlink:href="#DejaVuSans-Bold-65" transform="translate(77.001953 0)"/>
     <use xlink:href="#DejaVuSans-Bold-74" transform="translate(144.824219 0)"/>
     <use xlink:href="#DejaVuSans-Bold-72" transform="translate(192.626953 0)"/>
     <use xlink:href="#DejaVuSans-Bold-69" transform="translate(241.943359 0)"/>
     <use xlink:href="#DejaVuSans-Bold-65" transform="translate(276.220703 0)"/>
     <use xlink:href="#DejaVuSans-Bold-76" transform="translate(344.042969 0)"/>
     <use xlink:href="#DejaVuSans-Bold-65" transform="translate(409.228516 0)"/>
     <use xlink:href="#DejaVuSans-Bold-64" transform="translate(477.050781 0)"/>
     <use xlink:href="#DejaVuSans-Bold-20" transform="translate(548.632812 0)"/>
     <use xlink:href="#DejaVuSans-Bold-4d" transform="translate(583.447266 0)"/>
     <use xlink:href="#DejaVuSans-Bold-65" transform="translate(682.958984 0)"/>
     <use xlink:href="#DejaVuSans-Bold-6d" transform="translate(750.78125 0)"/>
     <use xlink:href="#DejaVuSans-Bold-6f" transform="translate(854.980469 0)"/>
     <use xlink:href="#DejaVuSans-Bold-72" transform="translate(923.681641 0)"/>
     <use xlink:href="#DejaVuSans-Bold-79" transform="translate(972.998047 0)"/>
     <use xlink:href="#DejaVuSans-Bold-20" transform="translate(1038.183594 0)"/>
     <use xlink:href="#DejaVuSans-Bold-69" transform="translate(1072.998047 0)"/>
     <use xlink:href="#DejaVuSans-Bold-6e" transform="translate(1107.275391 0)"/>
    </g>
    <!-- Prompt Reconstruction -->
    <g style="fill: #111827" transform="translate(608.008696 98.303684) scale(0.124 -0.124)">
     <defs>
      <path id="DejaVuSans-Bold-50" d="M 588 4666 
L 2584 4666 
Q 3475 4666 3951 4270 
Q 4428 3875 4428 3144 
Q 4428 2409 3951 2014 
Q 3475 1619 2584 1619 
L 1791 1619 
L 1791 0 
L 588 0 
L 588 4666 
z
M 1791 3794 
L 1791 2491 
L 2456 2491 
Q 2806 2491 2997 2661 
Q 3188 2831 3188 3144 
Q 3188 3456 2997 3625 
Q 2806 3794 2456 3794 
L 1791 3794 
z
" transform="scale(0.015625)"/>
      <path id="DejaVuSans-Bold-75" d="M 500 1363 
L 500 3500 
L 1625 3500 
L 1625 3150 
Q 1625 2866 1622 2436 
Q 1619 2006 1619 1863 
Q 1619 1441 1641 1255 
Q 1663 1069 1716 984 
Q 1784 875 1895 815 
Q 2006 756 2150 756 
Q 2500 756 2700 1025 
Q 2900 1294 2900 1772 
L 2900 3500 
L 4019 3500 
L 4019 0 
L 2900 0 
L 2900 506 
Q 2647 200 2364 54 
Q 2081 -91 1741 -91 
Q 1134 -91 817 281 
Q 500 653 500 1363 
z
" transform="scale(0.015625)"/>
     </defs>
     <use xlink:href="#DejaVuSans-Bold-50"/>
     <use xlink:href="#DejaVuSans-Bold-72" transform="translate(73.291016 0)"/>
     <use xlink:href="#DejaVuSans-Bold-6f" transform="translate(122.607422 0)"/>
     <use xlink:href="#DejaVuSans-Bold-6d" transform="translate(191.308594 0)"/>
     <use xlink:href="#DejaVuSans-Bold-70" transform="translate(295.507812 0)"/>
     <use xlink:href="#DejaVuSans-Bold-74" transform="translate(367.089844 0)"/>
     <use xlink:href="#DejaVuSans-Bold-20" transform="translate(414.892578 0)"/>
     <use xlink:href="#DejaVuSans-Bold-52" transform="translate(449.707031 0)"/>
     <use xlink:href="#DejaVuSans-Bold-65" transform="translate(526.708984 0)"/>
     <use xlink:href="#DejaVuSans-Bold-63" transform="translate(594.53125 0)"/>
     <use xlink:href="#DejaVuSans-Bold-6f" transform="translate(653.808594 0)"/>
     <use xlink:href="#DejaVuSans-Bold-6e" transform="translate(722.509766 0)"/>
     <use xlink:href="#DejaVuSans-Bold-73" transform="translate(793.701172 0)"/>
     <use xlink:href="#DejaVuSans-Bold-74" transform="translate(853.222656 0)"/>
     <use xlink:href="#DejaVuSans-Bold-72" transform="translate(901.025391 0)"/>
     <use xlink:href="#DejaVuSans-Bold-75" transform="translate(950.341797 0)"/>
     <use xlink:href="#DejaVuSans-Bold-63" transform="translate(1021.533203 0)"/>
     <use xlink:href="#DejaVuSans-Bold-74" transform="translate(1080.810547 0)"/>
     <use xlink:href="#DejaVuSans-Bold-69" transform="translate(1128.613281 0)"/>
     <use xlink:href="#DejaVuSans-Bold-6f" transform="translate(1162.890625 0)"/>
     <use xlink:href="#DejaVuSans-Bold-6e" transform="translate(1231.591797 0)"/>
    </g>
   </g>
   <g id="text_6">
    <!-- persona block -->
    <g style="fill: #111827" transform="translate(733.543785 128.834022) scale(0.102 -0.102)">
     <defs>
      <path id="DejaVuSans-62" d="M 3116 1747 
Q 3116 2381 2855 2742 
Q 2594 3103 2138 3103 
Q 1681 3103 1420 2742 
Q 1159 2381 1159 1747 
Q 1159 1113 1420 752 
Q 1681 391 2138 391 
Q 2594 391 2855 752 
Q 3116 1113 3116 1747 
z
M 1159 2969 
Q 1341 3281 1617 3432 
Q 1894 3584 2278 3584 
Q 2916 3584 3314 3078 
Q 3713 2572 3713 1747 
Q 3713 922 3314 415 
Q 2916 -91 2278 -91 
Q 1894 -91 1617 61 
Q 1341 213 1159 525 
L 1159 0 
L 581 0 
L 581 4863 
L 1159 4863 
L 1159 2969 
z
" transform="scale(0.015625)"/>
     </defs>
     <use xlink:href="#DejaVuSans-70"/>
     <use xlink:href="#DejaVuSans-65" transform="translate(63.476562 0)"/>
     <use xlink:href="#DejaVuSans-72" transform="translate(125 0)"/>
     <use xlink:href="#DejaVuSans-73" transform="translate(166.113281 0)"/>
     <use xlink:href="#DejaVuSans-6f" transform="translate(218.212891 0)"/>
     <use xlink:href="#DejaVuSans-6e" transform="translate(279.394531 0)"/>
     <use xlink:href="#DejaVuSans-61" transform="translate(342.773438 0)"/>
     <use xlink:href="#DejaVuSans-20" transform="translate(404.052734 0)"/>
     <use xlink:href="#DejaVuSans-62" transform="translate(435.839844 0)"/>
     <use xlink:href="#DejaVuSans-6c" transform="translate(499.316406 0)"/>
     <use xlink:href="#DejaVuSans-6f" transform="translate(527.099609 0)"/>
     <use xlink:href="#DejaVuSans-63" transform="translate(588.28125 0)"/>
     <use xlink:href="#DejaVuSans-6b" transform="translate(643.261719 0)"/>
    </g>
   </g>
   <g id="text_7">
    <!-- dialogue block -->
    <g style="fill: #111827" transform="translate(732.225754 179.263211) scale(0.102 -0.102)">
     <use xlink:href="#DejaVuSans-64"/>
     <use xlink:href="#DejaVuSans-69" transform="translate(63.476562 0)"/>
     <use xlink:href="#DejaVuSans-61" transform="translate(91.259766 0)"/>
     <use xlink:href="#DejaVuSans-6c" transform="translate(152.539062 0)"/>
     <use xlink:href="#DejaVuSans-6f" transform="translate(180.322266 0)"/>
     <use xlink:href="#DejaVuSans-67" transform="translate(241.503906 0)"/>
     <use xlink:href="#DejaVuSans-75" transform="translate(304.980469 0)"/>
     <use xlink:href="#DejaVuSans-65" transform="translate(368.359375 0)"/>
     <use xlink:href="#DejaVuSans-20" transform="translate(429.882812 0)"/>
     <use xlink:href="#DejaVuSans-62" transform="translate(461.669922 0)"/>
     <use xlink:href="#DejaVuSans-6c" transform="translate(525.146484 0)"/>
     <use xlink:href="#DejaVuSans-6f" transform="translate(552.929688 0)"/>
     <use xlink:href="#DejaVuSans-63" transform="translate(614.111328 0)"/>
     <use xlink:href="#DejaVuSans-6b" transform="translate(669.091797 0)"/>
    </g>
   </g>
   <g id="text_8">
    <!-- positive memory block -->
    <g style="fill: #111827" transform="translate(711.216145 229.6924) scale(0.102 -0.102)">
     <use xlink:href="#DejaVuSans-70"/>
     <use xlink:href="#DejaVuSans-6f" transform="translate(63.476562 0)"/>
     <use xlink:href="#DejaVuSans-73" transform="translate(124.658203 0)"/>
     <use xlink:href="#DejaVuSans-69" transform="translate(176.757812 0)"/>
     <use xlink:href="#DejaVuSans-74" transform="translate(204.541016 0)"/>
     <use xlink:href="#DejaVuSans-69" transform="translate(243.75 0)"/>
     <use xlink:href="#DejaVuSans-76" transform="translate(271.533203 0)"/>
     <use xlink:href="#DejaVuSans-65" transform="translate(330.712891 0)"/>
     <use xlink:href="#DejaVuSans-20" transform="translate(392.236328 0)"/>
     <use xlink:href="#DejaVuSans-6d" transform="translate(424.023438 0)"/>
     <use xlink:href="#DejaVuSans-65" transform="translate(521.435547 0)"/>
     <use xlink:href="#DejaVuSans-6d" transform="translate(582.958984 0)"/>
     <use xlink:href="#DejaVuSans-6f" transform="translate(680.371094 0)"/>
     <use xlink:href="#DejaVuSans-72" transform="translate(741.552734 0)"/>
     <use xlink:href="#DejaVuSans-79" transform="translate(782.666016 0)"/>
     <use xlink:href="#DejaVuSans-20" transform="translate(841.845703 0)"/>
     <use xlink:href="#DejaVuSans-62" transform="translate(873.632812 0)"/>
     <use xlink:href="#DejaVuSans-6c" transform="translate(937.109375 0)"/>
     <use xlink:href="#DejaVuSans-6f" transform="translate(964.892578 0)"/>
     <use xlink:href="#DejaVuSans-63" transform="translate(1026.074219 0)"/>
     <use xlink:href="#DejaVuSans-6b" transform="translate(1081.054688 0)"/>
    </g>
   </g>
   <g id="text_9">
    <!-- error memory block -->
    <g style="fill: #111827" transform="translate(718.876504 280.12159) scale(0.102 -0.102)">
     <use xlink:href="#DejaVuSans-65"/>
     <use xlink:href="#DejaVuSans-72" transform="translate(61.523438 0)"/>
     <use xlink:href="#DejaVuSans-72" transform="translate(100.886719 0)"/>
     <use xlink:href="#DejaVuSans-6f" transform="translate(139.75 0)"/>
     <use xlink:href="#DejaVuSans-72" transform="translate(200.931641 0)"/>
     <use xlink:href="#DejaVuSans-20" transform="translate(242.044922 0)"/>
     <use xlink:href="#DejaVuSans-6d" transform="translate(273.832031 0)"/>
     <use xlink:href="#DejaVuSans-65" transform="translate(371.244141 0)"/>
     <use xlink:href="#DejaVuSans-6d" transform="translate(432.767578 0)"/>
     <use xlink:href="#DejaVuSans-6f" transform="translate(530.179688 0)"/>
     <use xlink:href="#DejaVuSans-72" transform="translate(591.361328 0)"/>
     <use xlink:href="#DejaVuSans-79" transform="translate(632.474609 0)"/>
     <use xlink:href="#DejaVuSans-20" transform="translate(691.654297 0)"/>
     <use xlink:href="#DejaVuSans-62" transform="translate(723.441406 0)"/>
     <use xlink:href="#DejaVuSans-6c" transform="translate(786.917969 0)"/>
     <use xlink:href="#DejaVuSans-6f" transform="translate(814.701172 0)"/>
     <use xlink:href="#DejaVuSans-63" transform="translate(875.882812 0)"/>
     <use xlink:href="#DejaVuSans-6b" transform="translate(930.863281 0)"/>
    </g>
   </g>
   <g id="text_10">
    <!-- safety constraints block -->
    <g style="fill: #111827" transform="translate(708.456567 330.550779) scale(0.102 -0.102)">
     <use xlink:href="#DejaVuSans-73"/>
     <use xlink:href="#DejaVuSans-61" transform="translate(52.099609 0)"/>
     <use xlink:href="#DejaVuSans-66" transform="translate(113.378906 0)"/>
     <use xlink:href="#DejaVuSans-65" transform="translate(148.583984 0)"/>
     <use xlink:href="#DejaVuSans-74" transform="translate(210.107422 0)"/>
     <use xlink:href="#DejaVuSans-79" transform="translate(249.316406 0)"/>
     <use xlink:href="#DejaVuSans-20" transform="translate(308.496094 0)"/>
     <use xlink:href="#DejaVuSans-63" transform="translate(340.283203 0)"/>
     <use xlink:href="#DejaVuSans-6f" transform="translate(395.263672 0)"/>
     <use xlink:href="#DejaVuSans-6e" transform="translate(456.445312 0)"/>
     <use xlink:href="#DejaVuSans-73" transform="translate(519.824219 0)"/>
     <use xlink:href="#DejaVuSans-74" transform="translate(571.923828 0)"/>
     <use xlink:href="#DejaVuSans-72" transform="translate(611.132812 0)"/>
     <use xlink:href="#DejaVuSans-61" transform="translate(652.246094 0)"/>
     <use xlink:href="#DejaVuSans-69" transform="translate(713.525391 0)"/>
     <use xlink:href="#DejaVuSans-6e" transform="translate(741.308594 0)"/>
     <use xlink:href="#DejaVuSans-74" transform="translate(804.6875 0)"/>
     <use xlink:href="#DejaVuSans-73" transform="translate(843.896484 0)"/>
     <use xlink:href="#DejaVuSans-20" transform="translate(895.996094 0)"/>
     <use xlink:href="#DejaVuSans-62" transform="translate(927.783203 0)"/>
     <use xlink:href="#DejaVuSans-6c" transform="translate(991.259766 0)"/>
     <use xlink:href="#DejaVuSans-6f" transform="translate(1019.042969 0)"/>
     <use xlink:href="#DejaVuSans-63" transform="translate(1080.224609 0)"/>
     <use xlink:href="#DejaVuSans-6b" transform="translate(1135.205078 0)"/>
    </g>
   </g>
   <g id="text_11">
    <!-- follow-up query -->
    <g style="fill: #111827" transform="translate(729.609613 380.979968) scale(0.102 -0.102)">
     <defs>
      <path id="DejaVuSans-71" d="M 947 1747 
Q 947 1113 1208 752 
Q 1469 391 1925 391 
Q 2381 391 2643 752 
Q 2906 1113 2906 1747 
Q 2906 2381 2643 2742 
Q 2381 3103 1925 3103 
Q 1469 3103 1208 2742 
Q 947 2381 947 1747 
z
M 2906 525 
Q 2725 213 2448 61 
Q 2172 -91 1784 -91 
Q 1150 -91 751 415 
Q 353 922 353 1747 
Q 353 2572 751 3078 
Q 1150 3584 1784 3584 
Q 2172 3584 2448 3432 
Q 2725 3281 2906 2969 
L 2906 3500 
L 3481 3500 
L 3481 -1331 
L 2906 -1331 
L 2906 525 
z
" transform="scale(0.015625)"/>
     </defs>
     <use xlink:href="#DejaVuSans-66"/>
     <use xlink:href="#DejaVuSans-6f" transform="translate(35.205078 0)"/>
     <use xlink:href="#DejaVuSans-6c" transform="translate(96.386719 0)"/>
     <use xlink:href="#DejaVuSans-6c" transform="translate(124.169922 0)"/>
     <use xlink:href="#DejaVuSans-6f" transform="translate(151.953125 0)"/>
     <use xlink:href="#DejaVuSans-77" transform="translate(213.134766 0)"/>
     <use xlink:href="#DejaVuSans-2d" transform="translate(294.921875 0)"/>
     <use xlink:href="#DejaVuSans-75" transform="translate(331.005859 0)"/>
     <use xlink:href="#DejaVuSans-70" transform="translate(394.384766 0)"/>
     <use xlink:href="#DejaVuSans-20" transform="translate(457.861328 0)"/>
     <use xlink:href="#DejaVuSans-71" transform="translate(489.648438 0)"/>
     <use xlink:href="#DejaVuSans-75" transform="translate(553.125 0)"/>
     <use xlink:href="#DejaVuSans-65" transform="translate(616.503906 0)"/>
     <use xlink:href="#DejaVuSans-72" transform="translate(678.027344 0)"/>
     <use xlink:href="#DejaVuSans-79" transform="translate(719.140625 0)"/>
    </g>
   </g>
   <g id="text_12">
    <!-- Internal structure of Feedback-Guided Memory Adaptation -->
    <g transform="translate(211.661406 29.305946) scale(0.17 -0.17)">
     <defs>
      <path id="DejaVuSans-Bold-49" d="M 588 4666 
L 1791 4666 
L 1791 0 
L 588 0 
L 588 4666 
z
" transform="scale(0.015625)"/>
      <path id="DejaVuSans-Bold-66" d="M 2841 4863 
L 2841 4128 
L 2222 4128 
Q 1984 4128 1890 4042 
Q 1797 3956 1797 3744 
L 1797 3500 
L 2753 3500 
L 2753 2700 
L 1797 2700 
L 1797 0 
L 678 0 
L 678 2700 
L 122 2700 
L 122 3500 
L 678 3500 
L 678 3744 
Q 678 4316 997 4589 
Q 1316 4863 1984 4863 
L 2841 4863 
z
" transform="scale(0.015625)"/>
      <path id="DejaVuSans-Bold-2d" d="M 347 2297 
L 2309 2297 
L 2309 1388 
L 347 1388 
L 347 2297 
z
" transform="scale(0.015625)"/>
     </defs>
     <use xlink:href="#DejaVuSans-Bold-49"/>
     <use xlink:href="#DejaVuSans-Bold-6e" transform="translate(37.207031 0)"/>
     <use xlink:href="#DejaVuSans-Bold-74" transform="translate(108.398438 0)"/>
     <use xlink:href="#DejaVuSans-Bold-65" transform="translate(156.201172 0)"/>
     <use xlink:href="#DejaVuSans-Bold-72" transform="translate(224.023438 0)"/>
     <use xlink:href="#DejaVuSans-Bold-6e" transform="translate(273.339844 0)"/>
     <use xlink:href="#DejaVuSans-Bold-61" transform="translate(344.53125 0)"/>
     <use xlink:href="#DejaVuSans-Bold-6c" transform="translate(412.011719 0)"/>
     <use xlink:href="#DejaVuSans-Bold-20" transform="translate(446.289062 0)"/>
     <use xlink:href="#DejaVuSans-Bold-73" transform="translate(481.103516 0)"/>
     <use xlink:href="#DejaVuSans-Bold-74" transform="translate(540.625 0)"/>
     <use xlink:href="#DejaVuSans-Bold-72" transform="translate(588.427734 0)"/>
     <use xlink:href="#DejaVuSans-Bold-75" transform="translate(637.744141 0)"/>
     <use xlink:href="#DejaVuSans-Bold-63" transform="translate(708.935547 0)"/>
     <use xlink:href="#DejaVuSans-Bold-74" transform="translate(768.212891 0)"/>
     <use xlink:href="#DejaVuSans-Bold-75" transform="translate(816.015625 0)"/>
     <use xlink:href="#DejaVuSans-Bold-72" transform="translate(887.207031 0)"/>
     <use xlink:href="#DejaVuSans-Bold-65" transform="translate(936.523438 0)"/>
     <use xlink:href="#DejaVuSans-Bold-20" transform="translate(1004.345703 0)"/>
     <use xlink:href="#DejaVuSans-Bold-6f" transform="translate(1039.160156 0)"/>
     <use xlink:href="#DejaVuSans-Bold-66" transform="translate(1107.861328 0)"/>
     <use xlink:href="#DejaVuSans-Bold-20" transform="translate(1151.367188 0)"/>
     <use xlink:href="#DejaVuSans-Bold-46" transform="translate(1186.181641 0)"/>
     <use xlink:href="#DejaVuSans-Bold-65" transform="translate(1250.492188 0)"/>
     <use xlink:href="#DejaVuSans-Bold-65" transform="translate(1318.314453 0)"/>
     <use xlink:href="#DejaVuSans-Bold-64" transform="translate(1386.136719 0)"/>
     <use xlink:href="#DejaVuSans-Bold-62" transform="translate(1457.71875 0)"/>
     <use xlink:href="#DejaVuSans-Bold-61" transform="translate(1529.300781 0)"/>
     <use xlink:href="#DejaVuSans-Bold-63" transform="translate(1596.78125 0)"/>
     <use xlink:href="#DejaVuSans-Bold-6b" transform="translate(1656.058594 0)"/>
     <use xlink:href="#DejaVuSans-Bold-2d" transform="translate(1722.5625 0)"/>
     <use xlink:href="#DejaVuSans-Bold-47" transform="translate(1764.066406 0)"/>
     <use xlink:href="#DejaVuSans-Bold-75" transform="translate(1846.146484 0)"/>
     <use xlink:href="#DejaVuSans-Bold-69" transform="translate(1917.337891 0)"/>
     <use xlink:href="#DejaVuSans-Bold-64" transform="translate(1951.615234 0)"/>
     <use xlink:href="#DejaVuSans-Bold-65" transform="translate(2023.197266 0)"/>
     <use xlink:href="#DejaVuSans-Bold-64" transform="translate(2091.019531 0)"/>
     <use xlink:href="#DejaVuSans-Bold-20" transform="translate(2162.601562 0)"/>
     <use xlink:href="#DejaVuSans-Bold-4d" transform="translate(2197.416016 0)"/>
     <use xlink:href="#DejaVuSans-Bold-65" transform="translate(2296.927734 0)"/>
     <use xlink:href="#DejaVuSans-Bold-6d" transform="translate(2364.75 0)"/>
     <use xlink:href="#DejaVuSans-Bold-6f" transform="translate(2468.949219 0)"/>
     <use xlink:href="#DejaVuSans-Bold-72" transform="translate(2537.650391 0)"/>
     <use xlink:href="#DejaVuSans-Bold-79" transform="translate(2586.966797 0)"/>
     <use xlink:href="#DejaVuSans-Bold-20" transform="translate(2652.152344 0)"/>
     <use xlink:href="#DejaVuSans-Bold-41" transform="translate(2686.966797 0)"/>
     <use xlink:href="#DejaVuSans-Bold-64" transform="translate(2764.359375 0)"/>
     <use xlink:href="#DejaVuSans-Bold-61" transform="translate(2835.941406 0)"/>
     <use xlink:href="#DejaVuSans-Bold-70" transform="translate(2903.421875 0)"/>
     <use xlink:href="#DejaVuSans-Bold-74" transform="translate(2975.003906 0)"/>
     <use xlink:href="#DejaVuSans-Bold-61" transform="translate(3022.806641 0)"/>
     <use xlink:href="#DejaVuSans-Bold-74" transform="translate(3090.287109 0)"/>
     <use xlink:href="#DejaVuSans-Bold-69" transform="translate(3138.089844 0)"/>
     <use xlink:href="#DejaVuSans-Bold-6f" transform="translate(3172.367188 0)"/>
     <use xlink:href="#DejaVuSans-Bold-6e" transform="translate(3241.068359 0)"/>
    </g>
   </g>
   <g id="text_13">
    <!-- FGMA adapts external memory and prompt context. Base-model parameters remain fixed. -->
    <g style="fill: #0f5132" transform="translate(212.454219 487.313514) scale(0.11 -0.11)">
     <defs>
      <path id="DejaVuSans-Bold-78" d="M 1422 1791 
L 159 3500 
L 1344 3500 
L 2059 2463 
L 2784 3500 
L 3969 3500 
L 2706 1797 
L 4031 0 
L 2847 0 
L 2059 1106 
L 1281 0 
L 97 0 
L 1422 1791 
z
" transform="scale(0.015625)"/>
      <path id="DejaVuSans-Bold-2e" d="M 653 1209 
L 1778 1209 
L 1778 0 
L 653 0 
L 653 1209 
z
" transform="scale(0.015625)"/>
      <path id="DejaVuSans-Bold-42" d="M 2456 2859 
Q 2741 2859 2887 2984 
Q 3034 3109 3034 3353 
Q 3034 3594 2887 3720 
Q 2741 3847 2456 3847 
L 1791 3847 
L 1791 2859 
L 2456 2859 
z
M 2497 819 
Q 2859 819 3042 972 
Q 3225 1125 3225 1434 
Q 3225 1738 3044 1889 
Q 2863 2041 2497 2041 
L 1791 2041 
L 1791 819 
L 2497 819 
z
M 3616 2497 
Q 4003 2384 4215 2081 
Q 4428 1778 4428 1338 
Q 4428 663 3972 331 
Q 3516 0 2584 0 
L 588 0 
L 588 4666 
L 2394 4666 
Q 3366 4666 3802 4372 
Q 4238 4078 4238 3431 
Q 4238 3091 4078 2852 
Q 3919 2613 3616 2497 
z
" transform="scale(0.015625)"/>
     </defs>
     <use xlink:href="#DejaVuSans-Bold-46"/>
     <use xlink:href="#DejaVuSans-Bold-47" transform="translate(68.310547 0)"/>
     <use xlink:href="#DejaVuSans-Bold-4d" transform="translate(150.390625 0)"/>
     <use xlink:href="#DejaVuSans-Bold-41" transform="translate(249.902344 0)"/>
     <use xlink:href="#DejaVuSans-Bold-20" transform="translate(327.294922 0)"/>
     <use xlink:href="#DejaVuSans-Bold-61" transform="translate(362.109375 0)"/>
     <use xlink:href="#DejaVuSans-Bold-64" transform="translate(429.589844 0)"/>
     <use xlink:href="#DejaVuSans-Bold-61" transform="translate(501.171875 0)"/>
     <use xlink:href="#DejaVuSans-Bold-70" transform="translate(568.652344 0)"/>
     <use xlink:href="#DejaVuSans-Bold-74" transform="translate(640.234375 0)"/>
     <use xlink:href="#DejaVuSans-Bold-73" transform="translate(688.037109 0)"/>
     <use xlink:href="#DejaVuSans-Bold-20" transform="translate(747.558594 0)"/>
     <use xlink:href="#DejaVuSans-Bold-65" transform="translate(782.373047 0)"/>
     <use xlink:href="#DejaVuSans-Bold-78" transform="translate(850.195312 0)"/>
     <use xlink:href="#DejaVuSans-Bold-74" transform="translate(914.697266 0)"/>
     <use xlink:href="#DejaVuSans-Bold-65" transform="translate(962.5 0)"/>
     <use xlink:href="#DejaVuSans-Bold-72" transform="translate(1030.322266 0)"/>
     <use xlink:href="#DejaVuSans-Bold-6e" transform="translate(1079.638672 0)"/>
     <use xlink:href="#DejaVuSans-Bold-61" transform="translate(1150.830078 0)"/>
     <use xlink:href="#DejaVuSans-Bold-6c" transform="translate(1218.310547 0)"/>
     <use xlink:href="#DejaVuSans-Bold-20" transform="translate(1252.587891 0)"/>
     <use xlink:href="#DejaVuSans-Bold-6d" transform="translate(1287.402344 0)"/>
     <use xlink:href="#DejaVuSans-Bold-65" transform="translate(1391.601562 0)"/>
     <use xlink:href="#DejaVuSans-Bold-6d" transform="translate(1459.423828 0)"/>
     <use xlink:href="#DejaVuSans-Bold-6f" transform="translate(1563.623047 0)"/>
     <use xlink:href="#DejaVuSans-Bold-72" transform="translate(1632.324219 0)"/>
     <use xlink:href="#DejaVuSans-Bold-79" transform="translate(1681.640625 0)"/>
     <use xlink:href="#DejaVuSans-Bold-20" transform="translate(1746.826172 0)"/>
     <use xlink:href="#DejaVuSans-Bold-61" transform="translate(1781.640625 0)"/>
     <use xlink:href="#DejaVuSans-Bold-6e" transform="translate(1849.121094 0)"/>
     <use xlink:href="#DejaVuSans-Bold-64" transform="translate(1920.3125 0)"/>
     <use xlink:href="#DejaVuSans-Bold-20" transform="translate(1991.894531 0)"/>
     <use xlink:href="#DejaVuSans-Bold-70" transform="translate(2026.708984 0)"/>
     <use xlink:href="#DejaVuSans-Bold-72" transform="translate(2098.291016 0)"/>
     <use xlink:href="#DejaVuSans-Bold-6f" transform="translate(2147.607422 0)"/>
     <use xlink:href="#DejaVuSans-Bold-6d" transform="translate(2216.308594 0)"/>
     <use xlink:href="#DejaVuSans-Bold-70" transform="translate(2320.507812 0)"/>
     <use xlink:href="#DejaVuSans-Bold-74" transform="translate(2392.089844 0)"/>
     <use xlink:href="#DejaVuSans-Bold-20" transform="translate(2439.892578 0)"/>
     <use xlink:href="#DejaVuSans-Bold-63" transform="translate(2474.707031 0)"/>
     <use xlink:href="#DejaVuSans-Bold-6f" transform="translate(2533.984375 0)"/>
     <use xlink:href="#DejaVuSans-Bold-6e" transform="translate(2602.685547 0)"/>
     <use xlink:href="#DejaVuSans-Bold-74" transform="translate(2673.876953 0)"/>
     <use xlink:href="#DejaVuSans-Bold-65" transform="translate(2721.679688 0)"/>
     <use xlink:href="#DejaVuSans-Bold-78" transform="translate(2789.501953 0)"/>
     <use xlink:href="#DejaVuSans-Bold-74" transform="translate(2854.003906 0)"/>
     <use xlink:href="#DejaVuSans-Bold-2e" transform="translate(2901.806641 0)"/>
     <use xlink:href="#DejaVuSans-Bold-20" transform="translate(2939.794922 0)"/>
     <use xlink:href="#DejaVuSans-Bold-42" transform="translate(2974.609375 0)"/>
     <use xlink:href="#DejaVuSans-Bold-61" transform="translate(3050.830078 0)"/>
     <use xlink:href="#DejaVuSans-Bold-73" transform="translate(3118.310547 0)"/>
     <use xlink:href="#DejaVuSans-Bold-65" transform="translate(3177.832031 0)"/>
     <use xlink:href="#DejaVuSans-Bold-2d" transform="translate(3245.654297 0)"/>
     <use xlink:href="#DejaVuSans-Bold-6d" transform="translate(3287.158203 0)"/>
     <use xlink:href="#DejaVuSans-Bold-6f" transform="translate(3391.357422 0)"/>
     <use xlink:href="#DejaVuSans-Bold-64" transform="translate(3460.058594 0)"/>
     <use xlink:href="#DejaVuSans-Bold-65" transform="translate(3531.640625 0)"/>
     <use xlink:href="#DejaVuSans-Bold-6c" transform="translate(3599.462891 0)"/>
     <use xlink:href="#DejaVuSans-Bold-20" transform="translate(3633.740234 0)"/>
     <use xlink:href="#DejaVuSans-Bold-70" transform="translate(3668.554688 0)"/>
     <use xlink:href="#DejaVuSans-Bold-61" transform="translate(3740.136719 0)"/>
     <use xlink:href="#DejaVuSans-Bold-72" transform="translate(3807.617188 0)"/>
     <use xlink:href="#DejaVuSans-Bold-61" transform="translate(3856.933594 0)"/>
     <use xlink:href="#DejaVuSans-Bold-6d" transform="translate(3924.414062 0)"/>
     <use xlink:href="#DejaVuSans-Bold-65" transform="translate(4028.613281 0)"/>
     <use xlink:href="#DejaVuSans-Bold-74" transform="translate(4096.435547 0)"/>
     <use xlink:href="#DejaVuSans-Bold-65" transform="translate(4144.238281 0)"/>
     <use xlink:href="#DejaVuSans-Bold-72" transform="translate(4212.060547 0)"/>
     <use xlink:href="#DejaVuSans-Bold-73" transform="translate(4261.376953 0)"/>
     <use xlink:href="#DejaVuSans-Bold-20" transform="translate(4320.898438 0)"/>
     <use xlink:href="#DejaVuSans-Bold-72" transform="translate(4355.712891 0)"/>
     <use xlink:href="#DejaVuSans-Bold-65" transform="translate(4405.029297 0)"/>
     <use xlink:href="#DejaVuSans-Bold-6d" transform="translate(4472.851562 0)"/>
     <use xlink:href="#DejaVuSans-Bold-61" transform="translate(4577.050781 0)"/>
     <use xlink:href="#DejaVuSans-Bold-69" transform="translate(4644.53125 0)"/>
     <use xlink:href="#DejaVuSans-Bold-6e" transform="translate(4678.808594 0)"/>
     <use xlink:href="#DejaVuSans-Bold-20" transform="translate(4750 0)"/>
     <use xlink:href="#DejaVuSans-Bold-66" transform="translate(4784.814453 0)"/>
     <use xlink:href="#DejaVuSans-Bold-69" transform="translate(4828.320312 0)"/>
     <use xlink:href="#DejaVuSans-Bold-78" transform="translate(4862.597656 0)"/>
     <use xlink:href="#DejaVuSans-Bold-65" transform="translate(4927.099609 0)"/>
     <use xlink:href="#DejaVuSans-Bold-64" transform="translate(4994.921875 0)"/>
     <use xlink:href="#DejaVuSans-Bold-2e" transform="translate(5066.503906 0)"/>
    </g>
   </g>
  </g>
 </g>
 <defs>
  <clipPath id="pe1c371c04b">
   <rect x="7.2" y="7.2" width="972" height="511.2"/>
  </clipPath>
 </defs>
</svg>
