<?xml version="1.0" encoding="utf-8" standalone="no"?>
<!DOCTYPE svg PUBLIC "-//W3C//DTD SVG 1.1//EN"
  "http://www.w3.org/Graphics/SVG/1.1/DTD/svg11.dtd">
<svg xmlns:xlink="http://www.w3.org/1999/xlink" width="942.7125pt" height="511.2pt" viewBox="0 0 942.7125 511.2" xmlns="http://www.w3.org/2000/svg" version="1.1">
 <metadata>
  <rdf:RDF xmlns:dc="http://purl.org/dc/elements/1.1/" xmlns:cc="http://creativecommons.org/ns#" xmlns:rdf="http://www.w3.org/1999/02/22-rdf-syntax-ns#">
   <cc:Work>
    <dc:type rdf:resource="http://purl.org/dc/dcmitype/StillImage"/>
    <dc:date>2026-06-11T02:10:39.059081</dc:date>
    <dc:format>image/svg+xml</dc:format>
    <dc:creator>
     <cc:Agent>
      <dc:title>Matplotlib v3.10.8, https://matplotlib.org/</dc:title>
     </cc:Agent>
    </dc:creator>
   </cc:Work>
  </rdf:RDF>
 </metadata>
 <defs>
  <style type="text/css">*{stroke-linejoin: round; stroke-linecap: butt}</style>
 </defs>
 <g id="figure_1">
  <g id="patch_1">
   <path d="M 0 511.2 
L 942.7125 511.2 
L 942.7125 0 
L 0 0 
z
" style="fill: #ffffff"/>
  </g>
  <g id="axes_1">
   <g id="patch_2">
    <path d="M 110.82825 181.77 
L 231.00425 181.77 
Q 235.582383 181.77 235.582383 176.25 
L 235.582383 107.25 
Q 235.582383 101.73 231.00425 101.73 
L 110.82825 101.73 
Q 106.250117 101.73 106.250117 107.25 
L 106.250117 176.25 
Q 106.250117 181.77 110.82825 181.77 
z
" clip-path="url(#pb7db304f05)" style="fill: #ffffff; stroke: #f97316; stroke-width: 1.8; stroke-linejoin: miter"/>
   </g>
   <g id="patch_3">
    <path d="M 259.617583 181.77 
L 379.793583 181.77 
Q 384.371717 181.77 384.371717 176.25 
L 384.371717 107.25 
Q 384.371717 101.73 379.793583 101.73 
L 259.617583 101.73 
Q 255.03945 101.73 255.03945 107.25 
L 255.03945 176.25 
Q 255.03945 181.77 259.617583 181.77 
z
" clip-path="url(#pb7db304f05)" style="fill: #ffffff; stroke: #2563eb; stroke-width: 1.8; stroke-linejoin: miter"/>
   </g>
   <g id="patch_4">
    <path d="M 408.406917 181.77 
L 528.582917 181.77 
Q 533.16105 181.77 533.16105 176.25 
L 533.16105 107.25 
Q 533.16105 101.73 528.582917 101.73 
L 408.406917 101.73 
Q 403.828783 101.73 403.828783 107.25 
L 403.828783 176.25 
Q 403.828783 181.77 408.406917 181.77 
z
" clip-path="url(#pb7db304f05)" style="fill: #ffffff; stroke: #7c3aed; stroke-width: 1.8; stroke-linejoin: miter"/>
   </g>
   <g id="patch_5">
    <path d="M 557.19625 181.77 
L 677.37225 181.77 
Q 681.950383 181.77 681.950383 176.25 
L 681.950383 107.25 
Q 681.950383 101.73 677.37225 101.73 
L 557.19625 101.73 
Q 552.618117 101.73 552.618117 107.25 
L 552.618117 176.25 
Q 552.618117 181.77 557.19625 181.77 
z
" clip-path="url(#pb7db304f05)" style="fill: #ffffff; stroke: #dc2626; stroke-width: 1.8; stroke-linejoin: miter"/>
   </g>
   <g id="patch_6">
    <path d="M 705.985583 181.77 
L 826.161583 181.77 
Q 830.739717 181.77 830.739717 176.25 
L 830.739717 107.25 
Q 830.739717 101.73 826.161583 101.73 
L 705.985583 101.73 
Q 701.40745 101.73 701.40745 107.25 
L 701.40745 176.25 
Q 701.40745 181.77 705.985583 181.77 
z
" clip-path="url(#pb7db304f05)" style="fill: #ffffff; stroke: #16a34a; stroke-width: 1.8; stroke-linejoin: miter"/>
   </g>
   <g id="patch_7">
    <path d="M 259.617583 399.12 
L 391.238917 399.12 
Q 395.81705 399.12 395.81705 393.6 
L 395.81705 324.6 
Q 395.81705 319.08 391.238917 319.08 
L 259.617583 319.08 
Q 255.03945 319.08 255.03945 324.6 
L 255.03945 393.6 
Q 255.03945 399.12 259.617583 399.12 
z
" clip-path="url(#pb7db304f05)" style="fill: #ffffff; stroke: #2563eb; stroke-width: 1.8; stroke-linejoin: miter"/>
   </g>
   <g id="patch_8">
    <path d="M 448.465583 399.12 
L 580.086917 399.12 
Q 584.66505 399.12 584.66505 393.6 
L 584.66505 324.6 
Q 584.66505 319.08 580.086917 319.08 
L 448.465583 319.08 
Q 443.88745 319.08 443.88745 324.6 
L 443.88745 393.6 
Q 443.88745 399.12 448.465583 399.12 
z
" clip-path="url(#pb7db304f05)" style="fill: #ffffff; stroke: #0f766e; stroke-width: 1.8; stroke-linejoin: miter"/>
   </g>
   <g id="patch_9">
    <path d="M 637.313583 399.12 
L 768.934917 399.12 
Q 773.51305 399.12 773.51305 393.6 
L 773.51305 324.6 
Q 773.51305 319.08 768.934917 319.08 
L 637.313583 319.08 
Q 632.73545 319.08 632.73545 324.6 
L 632.73545 393.6 
Q 632.73545 399.12 637.313583 399.12 
z
" clip-path="url(#pb7db304f05)" style="fill: #ffffff; stroke: #475569; stroke-width: 1.8; stroke-linejoin: miter"/>
   </g>
   <g id="patch_10">
    <path d="M 235.863487 141.75 
Q 245.308842 141.75 252.965343 141.75 
" clip-path="url(#pb7db304f05)" style="fill: none; stroke: #64748b; stroke-width: 1.6; stroke-linecap: round"/>
    <path d="M 246.565343 138.55 
L 252.965343 141.75 
L 246.565343 144.95 
z
" clip-path="url(#pb7db304f05)" style="fill: #64748b; stroke: #64748b; stroke-width: 1.6; stroke-linecap: round"/>
   </g>
   <g id="patch_11">
    <path d="M 384.65282 141.75 
Q 394.098175 141.75 401.754676 141.75 
" clip-path="url(#pb7db304f05)" style="fill: none; stroke: #64748b; stroke-width: 1.6; stroke-linecap: round"/>
    <path d="M 395.354676 138.55 
L 401.754676 141.75 
L 395.354676 144.95 
z
" clip-path="url(#pb7db304f05)" style="fill: #64748b; stroke: #64748b; stroke-width: 1.6; stroke-linecap: round"/>
   </g>
   <g id="patch_12">
    <path d="M 533.442154 141.75 
Q 542.887509 141.75 550.544009 141.75 
" clip-path="url(#pb7db304f05)" style="fill: none; stroke: #64748b; stroke-width: 1.6; stroke-linecap: round"/>
    <path d="M 544.144009 138.55 
L 550.544009 141.75 
L 544.144009 144.95 
z
" clip-path="url(#pb7db304f05)" style="fill: #64748b; stroke: #64748b; stroke-width: 1.6; stroke-linecap: round"/>
   </g>
   <g id="patch_13">
    <path d="M 682.231487 141.75 
Q 691.676842 141.75 699.333343 141.75 
" clip-path="url(#pb7db304f05)" style="fill: none; stroke: #64748b; stroke-width: 1.6; stroke-linecap: round"/>
    <path d="M 692.933343 138.55 
L 699.333343 141.75 
L 692.933343 144.95 
z
" clip-path="url(#pb7db304f05)" style="fill: #64748b; stroke: #64748b; stroke-width: 1.6; stroke-linecap: round"/>
   </g>
   <g id="patch_14">
    <path d="M 764.487944 180.917652 
Q 571.005425 329.09891 329.213611 321.27508 
" clip-path="url(#pb7db304f05)" style="fill: none; stroke: #64748b; stroke-width: 1.6; stroke-linecap: round"/>
    <path d="M 335.506773 324.680387 
L 329.213611 321.27508 
L 335.713754 318.283735 
z
" clip-path="url(#pb7db304f05)" style="fill: #64748b; stroke: #64748b; stroke-width: 1.6; stroke-linecap: round"/>
   </g>
   <g id="patch_15">
    <path d="M 396.102694 359.1 
Q 419.854921 359.1 441.818293 359.1 
" clip-path="url(#pb7db304f05)" style="fill: none; stroke: #64748b; stroke-width: 1.6; stroke-linecap: round"/>
    <path d="M 435.418293 355.9 
L 441.818293 359.1 
L 435.418293 362.3 
z
" clip-path="url(#pb7db304f05)" style="fill: #64748b; stroke: #64748b; stroke-width: 1.6; stroke-linecap: round"/>
   </g>
   <g id="patch_16">
    <path d="M 584.950694 359.1 
Q 608.702921 359.1 630.666293 359.1 
" clip-path="url(#pb7db304f05)" style="fill: none; stroke: #64748b; stroke-width: 1.6; stroke-linecap: round"/>
    <path d="M 624.266293 355.9 
L 630.666293 359.1 
L 624.266293 362.3 
z
" clip-path="url(#pb7db304f05)" style="fill: #64748b; stroke: #64748b; stroke-width: 1.6; stroke-linecap: round"/>
   </g>
   <g id="patch_17">
    <path d="M 701.127765 397.101147 
Q 389.508133 404.718084 173.55485 182.419507 
" clip-path="url(#pb7db304f05)" style="fill: none; stroke: #64748b; stroke-width: 1.6; stroke-linecap: round"/>
    <path d="M 175.719081 189.239779 
L 173.55485 182.419507 
L 180.309606 184.780286 
z
" clip-path="url(#pb7db304f05)" style="fill: #64748b; stroke: #64748b; stroke-width: 1.6; stroke-linecap: round"/>
   </g>
   <g id="text_1">
    <!-- Persona -->
    <g style="fill: #111827" transform="translate(141.189922 127.708609) scale(0.13 -0.13)">
     <defs>
      <path id="DejaVuSans-Bold-50" d="M 588 4666 
L 2584 4666 
Q 3475 4666 3951 4270 
Q 4428 3875 4428 3144 
Q 4428 2409 3951 2014 
Q 3475 1619 2584 1619 
L 1791 1619 
L 1791 0 
L 588 0 
L 588 4666 
z
M 1791 3794 
L 1791 2491 
L 2456 2491 
Q 2806 2491 2997 2661 
Q 3188 2831 3188 3144 
Q 3188 3456 2997 3625 
Q 2806 3794 2456 3794 
L 1791 3794 
z
" transform="scale(0.015625)"/>
      <path id="DejaVuSans-Bold-65" d="M 4031 1759 
L 4031 1441 
L 1416 1441 
Q 1456 1047 1700 850 
Q 1944 653 2381 653 
Q 2734 653 3104 758 
Q 3475 863 3866 1075 
L 3866 213 
Q 3469 63 3072 -14 
Q 2675 -91 2278 -91 
Q 1328 -91 801 392 
Q 275 875 275 1747 
Q 275 2603 792 3093 
Q 1309 3584 2216 3584 
Q 3041 3584 3536 3087 
Q 4031 2591 4031 1759 
z
M 2881 2131 
Q 2881 2450 2695 2645 
Q 2509 2841 2209 2841 
Q 1884 2841 1681 2658 
Q 1478 2475 1428 2131 
L 2881 2131 
z
" transform="scale(0.015625)"/>
      <path id="DejaVuSans-Bold-72" d="M 3138 2547 
Q 2991 2616 2845 2648 
Q 2700 2681 2553 2681 
Q 2122 2681 1889 2404 
Q 1656 2128 1656 1613 
L 1656 0 
L 538 0 
L 538 3500 
L 1656 3500 
L 1656 2925 
Q 1872 3269 2151 3426 
Q 2431 3584 2822 3584 
Q 2878 3584 2943 3579 
Q 3009 3575 3134 3559 
L 3138 2547 
z
" transform="scale(0.015625)"/>
      <path id="DejaVuSans-Bold-73" d="M 3272 3391 
L 3272 2541 
Q 2913 2691 2578 2766 
Q 2244 2841 1947 2841 
Q 1628 2841 1473 2761 
Q 1319 2681 1319 2516 
Q 1319 2381 1436 2309 
Q 1553 2238 1856 2203 
L 2053 2175 
Q 2913 2066 3209 1816 
Q 3506 1566 3506 1031 
Q 3506 472 3093 190 
Q 2681 -91 1863 -91 
Q 1516 -91 1145 -36 
Q 775 19 384 128 
L 384 978 
Q 719 816 1070 734 
Q 1422 653 1784 653 
Q 2113 653 2278 743 
Q 2444 834 2444 1013 
Q 2444 1163 2330 1236 
Q 2216 1309 1875 1350 
L 1678 1375 
Q 931 1469 631 1722 
Q 331 1975 331 2491 
Q 331 3047 712 3315 
Q 1094 3584 1881 3584 
Q 2191 3584 2531 3537 
Q 2872 3491 3272 3391 
z
" transform="scale(0.015625)"/>
      <path id="DejaVuSans-Bold-6f" d="M 2203 2784 
Q 1831 2784 1636 2517 
Q 1441 2250 1441 1747 
Q 1441 1244 1636 976 
Q 1831 709 2203 709 
Q 2569 709 2762 976 
Q 2956 1244 2956 1747 
Q 2956 2250 2762 2517 
Q 2569 2784 2203 2784 
z
M 2203 3584 
Q 3106 3584 3614 3096 
Q 4122 2609 4122 1747 
Q 4122 884 3614 396 
Q 3106 -91 2203 -91 
Q 1297 -91 786 396 
Q 275 884 275 1747 
Q 275 2609 786 3096 
Q 1297 3584 2203 3584 
z
" transform="scale(0.015625)"/>
      <path id="DejaVuSans-Bold-6e" d="M 4056 2131 
L 4056 0 
L 2931 0 
L 2931 347 
L 2931 1631 
Q 2931 2084 2911 2256 
Q 2891 2428 2841 2509 
Q 2775 2619 2662 2680 
Q 2550 2741 2406 2741 
Q 2056 2741 1856 2470 
Q 1656 2200 1656 1722 
L 1656 0 
L 538 0 
L 538 3500 
L 1656 3500 
L 1656 2988 
Q 1909 3294 2193 3439 
Q 2478 3584 2822 3584 
Q 3428 3584 3742 3212 
Q 4056 2841 4056 2131 
z
" transform="scale(0.015625)"/>
      <path id="DejaVuSans-Bold-61" d="M 2106 1575 
Q 1756 1575 1579 1456 
Q 1403 1338 1403 1106 
Q 1403 894 1545 773 
Q 1688 653 1941 653 
Q 2256 653 2472 879 
Q 2688 1106 2688 1447 
L 2688 1575 
L 2106 1575 
z
M 3816 1997 
L 3816 0 
L 2688 0 
L 2688 519 
Q 2463 200 2181 54 
Q 1900 -91 1497 -91 
Q 953 -91 614 226 
Q 275 544 275 1050 
Q 275 1666 698 1953 
Q 1122 2241 2028 2241 
L 2688 2241 
L 2688 2328 
Q 2688 2594 2478 2717 
Q 2269 2841 1825 2841 
Q 1466 2841 1156 2769 
Q 847 2697 581 2553 
L 581 3406 
Q 941 3494 1303 3539 
Q 1666 3584 2028 3584 
Q 2975 3584 3395 3211 
Q 3816 2838 3816 1997 
z
" transform="scale(0.015625)"/>
     </defs>
     <use xlink:href="#DejaVuSans-Bold-50"/>
     <use xlink:href="#DejaVuSans-Bold-65" transform="translate(73.291016 0)"/>
     <use xlink:href="#DejaVuSans-Bold-72" transform="translate(141.113281 0)"/>
     <use xlink:href="#DejaVuSans-Bold-73" transform="translate(190.429688 0)"/>
     <use xlink:href="#DejaVuSans-Bold-6f" transform="translate(249.951172 0)"/>
     <use xlink:href="#DejaVuSans-Bold-6e" transform="translate(318.652344 0)"/>
     <use xlink:href="#DejaVuSans-Bold-61" transform="translate(389.84375 0)"/>
    </g>
    <!-- profile -->
    <g style="fill: #111827" transform="translate(146.899766 142.265766) scale(0.13 -0.13)">
     <defs>
      <path id="DejaVuSans-Bold-70" d="M 1656 506 
L 1656 -1331 
L 538 -1331 
L 538 3500 
L 1656 3500 
L 1656 2988 
Q 1888 3294 2169 3439 
Q 2450 3584 2816 3584 
Q 3463 3584 3878 3070 
Q 4294 2556 4294 1747 
Q 4294 938 3878 423 
Q 3463 -91 2816 -91 
Q 2450 -91 2169 54 
Q 1888 200 1656 506 
z
M 2400 2772 
Q 2041 2772 1848 2508 
Q 1656 2244 1656 1747 
Q 1656 1250 1848 986 
Q 2041 722 2400 722 
Q 2759 722 2948 984 
Q 3138 1247 3138 1747 
Q 3138 2247 2948 2509 
Q 2759 2772 2400 2772 
z
" transform="scale(0.015625)"/>
      <path id="DejaVuSans-Bold-66" d="M 2841 4863 
L 2841 4128 
L 2222 4128 
Q 1984 4128 1890 4042 
Q 1797 3956 1797 3744 
L 1797 3500 
L 2753 3500 
L 2753 2700 
L 1797 2700 
L 1797 0 
L 678 0 
L 678 2700 
L 122 2700 
L 122 3500 
L 678 3500 
L 678 3744 
Q 678 4316 997 4589 
Q 1316 4863 1984 4863 
L 2841 4863 
z
" transform="scale(0.015625)"/>
      <path id="DejaVuSans-Bold-69" d="M 538 3500 
L 1656 3500 
L 1656 0 
L 538 0 
L 538 3500 
z
M 538 4863 
L 1656 4863 
L 1656 3950 
L 538 3950 
L 538 4863 
z
" transform="scale(0.015625)"/>
      <path id="DejaVuSans-Bold-6c" d="M 538 4863 
L 1656 4863 
L 1656 0 
L 538 0 
L 538 4863 
z
" transform="scale(0.015625)"/>
     </defs>
     <use xlink:href="#DejaVuSans-Bold-70"/>
     <use xlink:href="#DejaVuSans-Bold-72" transform="translate(71.582031 0)"/>
     <use xlink:href="#DejaVuSans-Bold-6f" transform="translate(120.898438 0)"/>
     <use xlink:href="#DejaVuSans-Bold-66" transform="translate(189.599609 0)"/>
     <use xlink:href="#DejaVuSans-Bold-69" transform="translate(233.105469 0)"/>
     <use xlink:href="#DejaVuSans-Bold-6c" transform="translate(267.382812 0)"/>
     <use xlink:href="#DejaVuSans-Bold-65" transform="translate(301.660156 0)"/>
    </g>
   </g>
   <g id="text_2">
    <!-- correct P and -->
    <g style="fill: #334155" transform="translate(139.466055 159.062445) scale(0.095 -0.095)">
     <defs>
      <path id="DejaVuSans-63" d="M 3122 3366 
L 3122 2828 
Q 2878 2963 2633 3030 
Q 2388 3097 2138 3097 
Q 1578 3097 1268 2742 
Q 959 2388 959 1747 
Q 959 1106 1268 751 
Q 1578 397 2138 397 
Q 2388 397 2633 464 
Q 2878 531 3122 666 
L 3122 134 
Q 2881 22 2623 -34 
Q 2366 -91 2075 -91 
Q 1284 -91 818 406 
Q 353 903 353 1747 
Q 353 2603 823 3093 
Q 1294 3584 2113 3584 
Q 2378 3584 2631 3529 
Q 2884 3475 3122 3366 
z
" transform="scale(0.015625)"/>
      <path id="DejaVuSans-6f" d="M 1959 3097 
Q 1497 3097 1228 2736 
Q 959 2375 959 1747 
Q 959 1119 1226 758 
Q 1494 397 1959 397 
Q 2419 397 2687 759 
Q 2956 1122 2956 1747 
Q 2956 2369 2687 2733 
Q 2419 3097 1959 3097 
z
M 1959 3584 
Q 2709 3584 3137 3096 
Q 3566 2609 3566 1747 
Q 3566 888 3137 398 
Q 2709 -91 1959 -91 
Q 1206 -91 779 398 
Q 353 888 353 1747 
Q 353 2609 779 3096 
Q 1206 3584 1959 3584 
z
" transform="scale(0.015625)"/>
      <path id="DejaVuSans-72" d="M 2631 2963 
Q 2534 3019 2420 3045 
Q 2306 3072 2169 3072 
Q 1681 3072 1420 2755 
Q 1159 2438 1159 1844 
L 1159 0 
L 581 0 
L 581 3500 
L 1159 3500 
L 1159 2956 
Q 1341 3275 1631 3429 
Q 1922 3584 2338 3584 
Q 2397 3584 2469 3576 
Q 2541 3569 2628 3553 
L 2631 2963 
z
" transform="scale(0.015625)"/>
      <path id="DejaVuSans-65" d="M 3597 1894 
L 3597 1613 
L 953 1613 
Q 991 1019 1311 708 
Q 1631 397 2203 397 
Q 2534 397 2845 478 
Q 3156 559 3463 722 
L 3463 178 
Q 3153 47 2828 -22 
Q 2503 -91 2169 -91 
Q 1331 -91 842 396 
Q 353 884 353 1716 
Q 353 2575 817 3079 
Q 1281 3584 2069 3584 
Q 2775 3584 3186 3129 
Q 3597 2675 3597 1894 
z
M 3022 2063 
Q 3016 2534 2758 2815 
Q 2500 3097 2075 3097 
Q 1594 3097 1305 2825 
Q 1016 2553 972 2059 
L 3022 2063 
z
" transform="scale(0.015625)"/>
      <path id="DejaVuSans-74" d="M 1172 4494 
L 1172 3500 
L 2356 3500 
L 2356 3053 
L 1172 3053 
L 1172 1153 
Q 1172 725 1289 603 
Q 1406 481 1766 481 
L 2356 481 
L 2356 0 
L 1766 0 
Q 1100 0 847 248 
Q 594 497 594 1153 
L 594 3053 
L 172 3053 
L 172 3500 
L 594 3500 
L 594 4494 
L 1172 4494 
z
" transform="scale(0.015625)"/>
      <path id="DejaVuSans-20" transform="scale(0.015625)"/>
      <path id="DejaVuSans-50" d="M 1259 4147 
L 1259 2394 
L 2053 2394 
Q 2494 2394 2734 2622 
Q 2975 2850 2975 3272 
Q 2975 3691 2734 3919 
Q 2494 4147 2053 4147 
L 1259 4147 
z
M 628 4666 
L 2053 4666 
Q 2838 4666 3239 4311 
Q 3641 3956 3641 3272 
Q 3641 2581 3239 2228 
Q 2838 1875 2053 1875 
L 1259 1875 
L 1259 0 
L 628 0 
L 628 4666 
z
" transform="scale(0.015625)"/>
      <path id="DejaVuSans-61" d="M 2194 1759 
Q 1497 1759 1228 1600 
Q 959 1441 959 1056 
Q 959 750 1161 570 
Q 1363 391 1709 391 
Q 2188 391 2477 730 
Q 2766 1069 2766 1631 
L 2766 1759 
L 2194 1759 
z
M 3341 1997 
L 3341 0 
L 2766 0 
L 2766 531 
Q 2569 213 2275 61 
Q 1981 -91 1556 -91 
Q 1019 -91 701 211 
Q 384 513 384 1019 
Q 384 1609 779 1909 
Q 1175 2209 1959 2209 
L 2766 2209 
L 2766 2266 
Q 2766 2663 2505 2880 
Q 2244 3097 1772 3097 
Q 1472 3097 1187 3025 
Q 903 2953 641 2809 
L 641 3341 
Q 956 3463 1253 3523 
Q 1550 3584 1831 3584 
Q 2591 3584 2966 3190 
Q 3341 2797 3341 1997 
z
" transform="scale(0.015625)"/>
      <path id="DejaVuSans-6e" d="M 3513 2113 
L 3513 0 
L 2938 0 
L 2938 2094 
Q 2938 2591 2744 2837 
Q 2550 3084 2163 3084 
Q 1697 3084 1428 2787 
Q 1159 2491 1159 1978 
L 1159 0 
L 581 0 
L 581 3500 
L 1159 3500 
L 1159 2956 
Q 1366 3272 1645 3428 
Q 1925 3584 2291 3584 
Q 2894 3584 3203 3211 
Q 3513 2838 3513 2113 
z
" transform="scale(0.015625)"/>
      <path id="DejaVuSans-64" d="M 2906 2969 
L 2906 4863 
L 3481 4863 
L 3481 0 
L 2906 0 
L 2906 525 
Q 2725 213 2448 61 
Q 2172 -91 1784 -91 
Q 1150 -91 751 415 
Q 353 922 353 1747 
Q 353 2572 751 3078 
Q 1150 3584 1784 3584 
Q 2172 3584 2448 3432 
Q 2725 3281 2906 2969 
z
M 947 1747 
Q 947 1113 1208 752 
Q 1469 391 1925 391 
Q 2381 391 2643 752 
Q 2906 1113 2906 1747 
Q 2906 2381 2643 2742 
Q 2381 3103 1925 3103 
Q 1469 3103 1208 2742 
Q 947 2381 947 1747 
z
" transform="scale(0.015625)"/>
     </defs>
     <use xlink:href="#DejaVuSans-63"/>
     <use xlink:href="#DejaVuSans-6f" transform="translate(54.980469 0)"/>
     <use xlink:href="#DejaVuSans-72" transform="translate(116.162109 0)"/>
     <use xlink:href="#DejaVuSans-72" transform="translate(155.525391 0)"/>
     <use xlink:href="#DejaVuSans-65" transform="translate(194.388672 0)"/>
     <use xlink:href="#DejaVuSans-63" transform="translate(255.912109 0)"/>
     <use xlink:href="#DejaVuSans-74" transform="translate(310.892578 0)"/>
     <use xlink:href="#DejaVuSans-20" transform="translate(350.101562 0)"/>
     <use xlink:href="#DejaVuSans-50" transform="translate(381.888672 0)"/>
     <use xlink:href="#DejaVuSans-20" transform="translate(442.191406 0)"/>
     <use xlink:href="#DejaVuSans-61" transform="translate(473.978516 0)"/>
     <use xlink:href="#DejaVuSans-6e" transform="translate(535.257812 0)"/>
     <use xlink:href="#DejaVuSans-64" transform="translate(598.636719 0)"/>
    </g>
    <!-- corrupted P~ -->
    <g style="fill: #334155" transform="translate(139.395547 169.700367) scale(0.095 -0.095)">
     <defs>
      <path id="DejaVuSans-75" d="M 544 1381 
L 544 3500 
L 1119 3500 
L 1119 1403 
Q 1119 906 1312 657 
Q 1506 409 1894 409 
Q 2359 409 2629 706 
Q 2900 1003 2900 1516 
L 2900 3500 
L 3475 3500 
L 3475 0 
L 2900 0 
L 2900 538 
Q 2691 219 2414 64 
Q 2138 -91 1772 -91 
Q 1169 -91 856 284 
Q 544 659 544 1381 
z
M 1991 3584 
L 1991 3584 
z
" transform="scale(0.015625)"/>
      <path id="DejaVuSans-70" d="M 1159 525 
L 1159 -1331 
L 581 -1331 
L 581 3500 
L 1159 3500 
L 1159 2969 
Q 1341 3281 1617 3432 
Q 1894 3584 2278 3584 
Q 2916 3584 3314 3078 
Q 3713 2572 3713 1747 
Q 3713 922 3314 415 
Q 2916 -91 2278 -91 
Q 1894 -91 1617 61 
Q 1341 213 1159 525 
z
M 3116 1747 
Q 3116 2381 2855 2742 
Q 2594 3103 2138 3103 
Q 1681 3103 1420 2742 
Q 1159 2381 1159 1747 
Q 1159 1113 1420 752 
Q 1681 391 2138 391 
Q 2594 391 2855 752 
Q 3116 1113 3116 1747 
z
" transform="scale(0.015625)"/>
      <path id="DejaVuSans-7e" d="M 4684 2553 
L 4684 1997 
Q 4356 1750 4076 1644 
Q 3797 1538 3494 1538 
Q 3150 1538 2694 1722 
Q 2659 1734 2644 1741 
Q 2622 1750 2575 1766 
Q 2091 1959 1797 1959 
Q 1522 1959 1253 1839 
Q 984 1719 678 1459 
L 678 2016 
Q 1006 2263 1286 2370 
Q 1566 2478 1869 2478 
Q 2213 2478 2672 2291 
Q 2703 2278 2719 2272 
Q 2744 2263 2788 2247 
Q 3272 2053 3566 2053 
Q 3834 2053 4098 2172 
Q 4363 2291 4684 2553 
z
" transform="scale(0.015625)"/>
     </defs>
     <use xlink:href="#DejaVuSans-63"/>
     <use xlink:href="#DejaVuSans-6f" transform="translate(54.980469 0)"/>
     <use xlink:href="#DejaVuSans-72" transform="translate(116.162109 0)"/>
     <use xlink:href="#DejaVuSans-72" transform="translate(155.525391 0)"/>
     <use xlink:href="#DejaVuSans-75" transform="translate(196.638672 0)"/>
     <use xlink:href="#DejaVuSans-70" transform="translate(260.017578 0)"/>
     <use xlink:href="#DejaVuSans-74" transform="translate(323.494141 0)"/>
     <use xlink:href="#DejaVuSans-65" transform="translate(362.703125 0)"/>
     <use xlink:href="#DejaVuSans-64" transform="translate(424.226562 0)"/>
     <use xlink:href="#DejaVuSans-20" transform="translate(487.703125 0)"/>
     <use xlink:href="#DejaVuSans-50" transform="translate(519.490234 0)"/>
     <use xlink:href="#DejaVuSans-7e" transform="translate(579.792969 0)"/>
    </g>
   </g>
   <g id="text_3">
    <!-- Prompt -->
    <g style="fill: #111827" transform="translate(292.737693 127.708609) scale(0.13 -0.13)">
     <defs>
      <path id="DejaVuSans-Bold-6d" d="M 3781 2919 
Q 3994 3244 4286 3414 
Q 4578 3584 4928 3584 
Q 5531 3584 5847 3212 
Q 6163 2841 6163 2131 
L 6163 0 
L 5038 0 
L 5038 1825 
Q 5041 1866 5042 1909 
Q 5044 1953 5044 2034 
Q 5044 2406 4934 2573 
Q 4825 2741 4581 2741 
Q 4263 2741 4089 2478 
Q 3916 2216 3909 1719 
L 3909 0 
L 2784 0 
L 2784 1825 
Q 2784 2406 2684 2573 
Q 2584 2741 2328 2741 
Q 2006 2741 1831 2477 
Q 1656 2213 1656 1722 
L 1656 0 
L 531 0 
L 531 3500 
L 1656 3500 
L 1656 2988 
Q 1863 3284 2130 3434 
Q 2397 3584 2719 3584 
Q 3081 3584 3359 3409 
Q 3638 3234 3781 2919 
z
" transform="scale(0.015625)"/>
      <path id="DejaVuSans-Bold-74" d="M 1759 4494 
L 1759 3500 
L 2913 3500 
L 2913 2700 
L 1759 2700 
L 1759 1216 
Q 1759 972 1856 886 
Q 1953 800 2241 800 
L 2816 800 
L 2816 0 
L 1856 0 
Q 1194 0 917 276 
Q 641 553 641 1216 
L 641 2700 
L 84 2700 
L 84 3500 
L 641 3500 
L 641 4494 
L 1759 4494 
z
" transform="scale(0.015625)"/>
     </defs>
     <use xlink:href="#DejaVuSans-Bold-50"/>
     <use xlink:href="#DejaVuSans-Bold-72" transform="translate(73.291016 0)"/>
     <use xlink:href="#DejaVuSans-Bold-6f" transform="translate(122.607422 0)"/>
     <use xlink:href="#DejaVuSans-Bold-6d" transform="translate(191.308594 0)"/>
     <use xlink:href="#DejaVuSans-Bold-70" transform="translate(295.507812 0)"/>
     <use xlink:href="#DejaVuSans-Bold-74" transform="translate(367.089844 0)"/>
    </g>
    <!-- builder -->
    <g style="fill: #111827" transform="translate(293.702536 142.265766) scale(0.13 -0.13)">
     <defs>
      <path id="DejaVuSans-Bold-62" d="M 2400 722 
Q 2759 722 2948 984 
Q 3138 1247 3138 1747 
Q 3138 2247 2948 2509 
Q 2759 2772 2400 2772 
Q 2041 2772 1848 2508 
Q 1656 2244 1656 1747 
Q 1656 1250 1848 986 
Q 2041 722 2400 722 
z
M 1656 2988 
Q 1888 3294 2169 3439 
Q 2450 3584 2816 3584 
Q 3463 3584 3878 3070 
Q 4294 2556 4294 1747 
Q 4294 938 3878 423 
Q 3463 -91 2816 -91 
Q 2450 -91 2169 54 
Q 1888 200 1656 506 
L 1656 0 
L 538 0 
L 538 4863 
L 1656 4863 
L 1656 2988 
z
" transform="scale(0.015625)"/>
      <path id="DejaVuSans-Bold-75" d="M 500 1363 
L 500 3500 
L 1625 3500 
L 1625 3150 
Q 1625 2866 1622 2436 
Q 1619 2006 1619 1863 
Q 1619 1441 1641 1255 
Q 1663 1069 1716 984 
Q 1784 875 1895 815 
Q 2006 756 2150 756 
Q 2500 756 2700 1025 
Q 2900 1294 2900 1772 
L 2900 3500 
L 4019 3500 
L 4019 0 
L 2900 0 
L 2900 506 
Q 2647 200 2364 54 
Q 2081 -91 1741 -91 
Q 1134 -91 817 281 
Q 500 653 500 1363 
z
" transform="scale(0.015625)"/>
      <path id="DejaVuSans-Bold-64" d="M 2919 2988 
L 2919 4863 
L 4044 4863 
L 4044 0 
L 2919 0 
L 2919 506 
Q 2688 197 2409 53 
Q 2131 -91 1766 -91 
Q 1119 -91 703 423 
Q 288 938 288 1747 
Q 288 2556 703 3070 
Q 1119 3584 1766 3584 
Q 2128 3584 2408 3439 
Q 2688 3294 2919 2988 
z
M 2181 722 
Q 2541 722 2730 984 
Q 2919 1247 2919 1747 
Q 2919 2247 2730 2509 
Q 2541 2772 2181 2772 
Q 1825 2772 1636 2509 
Q 1447 2247 1447 1747 
Q 1447 1247 1636 984 
Q 1825 722 2181 722 
z
" transform="scale(0.015625)"/>
     </defs>
     <use xlink:href="#DejaVuSans-Bold-62"/>
     <use xlink:href="#DejaVuSans-Bold-75" transform="translate(71.582031 0)"/>
     <use xlink:href="#DejaVuSans-Bold-69" transform="translate(142.773438 0)"/>
     <use xlink:href="#DejaVuSans-Bold-6c" transform="translate(177.050781 0)"/>
     <use xlink:href="#DejaVuSans-Bold-64" transform="translate(211.328125 0)"/>
     <use xlink:href="#DejaVuSans-Bold-65" transform="translate(282.910156 0)"/>
     <use xlink:href="#DejaVuSans-Bold-72" transform="translate(350.732422 0)"/>
    </g>
   </g>
   <g id="text_4">
    <!-- persona + dialogue -->
    <g style="fill: #334155" transform="translate(273.092497 159.062445) scale(0.095 -0.095)">
     <defs>
      <path id="DejaVuSans-73" d="M 2834 3397 
L 2834 2853 
Q 2591 2978 2328 3040 
Q 2066 3103 1784 3103 
Q 1356 3103 1142 2972 
Q 928 2841 928 2578 
Q 928 2378 1081 2264 
Q 1234 2150 1697 2047 
L 1894 2003 
Q 2506 1872 2764 1633 
Q 3022 1394 3022 966 
Q 3022 478 2636 193 
Q 2250 -91 1575 -91 
Q 1294 -91 989 -36 
Q 684 19 347 128 
L 347 722 
Q 666 556 975 473 
Q 1284 391 1588 391 
Q 1994 391 2212 530 
Q 2431 669 2431 922 
Q 2431 1156 2273 1281 
Q 2116 1406 1581 1522 
L 1381 1569 
Q 847 1681 609 1914 
Q 372 2147 372 2553 
Q 372 3047 722 3315 
Q 1072 3584 1716 3584 
Q 2034 3584 2315 3537 
Q 2597 3491 2834 3397 
z
" transform="scale(0.015625)"/>
      <path id="DejaVuSans-2b" d="M 2944 4013 
L 2944 2272 
L 4684 2272 
L 4684 1741 
L 2944 1741 
L 2944 0 
L 2419 0 
L 2419 1741 
L 678 1741 
L 678 2272 
L 2419 2272 
L 2419 4013 
L 2944 4013 
z
" transform="scale(0.015625)"/>
      <path id="DejaVuSans-69" d="M 603 3500 
L 1178 3500 
L 1178 0 
L 603 0 
L 603 3500 
z
M 603 4863 
L 1178 4863 
L 1178 4134 
L 603 4134 
L 603 4863 
z
" transform="scale(0.015625)"/>
      <path id="DejaVuSans-6c" d="M 603 4863 
L 1178 4863 
L 1178 0 
L 603 0 
L 603 4863 
z
" transform="scale(0.015625)"/>
      <path id="DejaVuSans-67" d="M 2906 1791 
Q 2906 2416 2648 2759 
Q 2391 3103 1925 3103 
Q 1463 3103 1205 2759 
Q 947 2416 947 1791 
Q 947 1169 1205 825 
Q 1463 481 1925 481 
Q 2391 481 2648 825 
Q 2906 1169 2906 1791 
z
M 3481 434 
Q 3481 -459 3084 -895 
Q 2688 -1331 1869 -1331 
Q 1566 -1331 1297 -1286 
Q 1028 -1241 775 -1147 
L 775 -588 
Q 1028 -725 1275 -790 
Q 1522 -856 1778 -856 
Q 2344 -856 2625 -561 
Q 2906 -266 2906 331 
L 2906 616 
Q 2728 306 2450 153 
Q 2172 0 1784 0 
Q 1141 0 747 490 
Q 353 981 353 1791 
Q 353 2603 747 3093 
Q 1141 3584 1784 3584 
Q 2172 3584 2450 3431 
Q 2728 3278 2906 2969 
L 2906 3500 
L 3481 3500 
L 3481 434 
z
" transform="scale(0.015625)"/>
     </defs>
     <use xlink:href="#DejaVuSans-70"/>
     <use xlink:href="#DejaVuSans-65" transform="translate(63.476562 0)"/>
     <use xlink:href="#DejaVuSans-72" transform="translate(125 0)"/>
     <use xlink:href="#DejaVuSans-73" transform="translate(166.113281 0)"/>
     <use xlink:href="#DejaVuSans-6f" transform="translate(218.212891 0)"/>
     <use xlink:href="#DejaVuSans-6e" transform="translate(279.394531 0)"/>
     <use xlink:href="#DejaVuSans-61" transform="translate(342.773438 0)"/>
     <use xlink:href="#DejaVuSans-20" transform="translate(404.052734 0)"/>
     <use xlink:href="#DejaVuSans-2b" transform="translate(435.839844 0)"/>
     <use xlink:href="#DejaVuSans-20" transform="translate(519.628906 0)"/>
     <use xlink:href="#DejaVuSans-64" transform="translate(551.416016 0)"/>
     <use xlink:href="#DejaVuSans-69" transform="translate(614.892578 0)"/>
     <use xlink:href="#DejaVuSans-61" transform="translate(642.675781 0)"/>
     <use xlink:href="#DejaVuSans-6c" transform="translate(703.955078 0)"/>
     <use xlink:href="#DejaVuSans-6f" transform="translate(731.738281 0)"/>
     <use xlink:href="#DejaVuSans-67" transform="translate(792.919922 0)"/>
     <use xlink:href="#DejaVuSans-75" transform="translate(856.396484 0)"/>
     <use xlink:href="#DejaVuSans-65" transform="translate(919.775391 0)"/>
    </g>
    <!-- + memory blocks -->
    <g style="fill: #334155" transform="translate(277.780896 169.700367) scale(0.095 -0.095)">
     <defs>
      <path id="DejaVuSans-6d" d="M 3328 2828 
Q 3544 3216 3844 3400 
Q 4144 3584 4550 3584 
Q 5097 3584 5394 3201 
Q 5691 2819 5691 2113 
L 5691 0 
L 5113 0 
L 5113 2094 
Q 5113 2597 4934 2840 
Q 4756 3084 4391 3084 
Q 3944 3084 3684 2787 
Q 3425 2491 3425 1978 
L 3425 0 
L 2847 0 
L 2847 2094 
Q 2847 2600 2669 2842 
Q 2491 3084 2119 3084 
Q 1678 3084 1418 2786 
Q 1159 2488 1159 1978 
L 1159 0 
L 581 0 
L 581 3500 
L 1159 3500 
L 1159 2956 
Q 1356 3278 1631 3431 
Q 1906 3584 2284 3584 
Q 2666 3584 2933 3390 
Q 3200 3197 3328 2828 
z
" transform="scale(0.015625)"/>
      <path id="DejaVuSans-79" d="M 2059 -325 
Q 1816 -950 1584 -1140 
Q 1353 -1331 966 -1331 
L 506 -1331 
L 506 -850 
L 844 -850 
Q 1081 -850 1212 -737 
Q 1344 -625 1503 -206 
L 1606 56 
L 191 3500 
L 800 3500 
L 1894 763 
L 2988 3500 
L 3597 3500 
L 2059 -325 
z
" transform="scale(0.015625)"/>
      <path id="DejaVuSans-62" d="M 3116 1747 
Q 3116 2381 2855 2742 
Q 2594 3103 2138 3103 
Q 1681 3103 1420 2742 
Q 1159 2381 1159 1747 
Q 1159 1113 1420 752 
Q 1681 391 2138 391 
Q 2594 391 2855 752 
Q 3116 1113 3116 1747 
z
M 1159 2969 
Q 1341 3281 1617 3432 
Q 1894 3584 2278 3584 
Q 2916 3584 3314 3078 
Q 3713 2572 3713 1747 
Q 3713 922 3314 415 
Q 2916 -91 2278 -91 
Q 1894 -91 1617 61 
Q 1341 213 1159 525 
L 1159 0 
L 581 0 
L 581 4863 
L 1159 4863 
L 1159 2969 
z
" transform="scale(0.015625)"/>
      <path id="DejaVuSans-6b" d="M 581 4863 
L 1159 4863 
L 1159 1991 
L 2875 3500 
L 3609 3500 
L 1753 1863 
L 3688 0 
L 2938 0 
L 1159 1709 
L 1159 0 
L 581 0 
L 581 4863 
z
" transform="scale(0.015625)"/>
     </defs>
     <use xlink:href="#DejaVuSans-2b"/>
     <use xlink:href="#DejaVuSans-20" transform="translate(83.789062 0)"/>
     <use xlink:href="#DejaVuSans-6d" transform="translate(115.576172 0)"/>
     <use xlink:href="#DejaVuSans-65" transform="translate(212.988281 0)"/>
     <use xlink:href="#DejaVuSans-6d" transform="translate(274.511719 0)"/>
     <use xlink:href="#DejaVuSans-6f" transform="translate(371.923828 0)"/>
     <use xlink:href="#DejaVuSans-72" transform="translate(433.105469 0)"/>
     <use xlink:href="#DejaVuSans-79" transform="translate(474.21875 0)"/>
     <use xlink:href="#DejaVuSans-20" transform="translate(533.398438 0)"/>
     <use xlink:href="#DejaVuSans-62" transform="translate(565.185547 0)"/>
     <use xlink:href="#DejaVuSans-6c" transform="translate(628.662109 0)"/>
     <use xlink:href="#DejaVuSans-6f" transform="translate(656.445312 0)"/>
     <use xlink:href="#DejaVuSans-63" transform="translate(717.626953 0)"/>
     <use xlink:href="#DejaVuSans-6b" transform="translate(772.607422 0)"/>
     <use xlink:href="#DejaVuSans-73" transform="translate(830.517578 0)"/>
    </g>
   </g>
   <g id="text_5">
    <!-- LLM -->
    <g style="fill: #111827" transform="translate(453.742964 127.708609) scale(0.13 -0.13)">
     <defs>
      <path id="DejaVuSans-Bold-4c" d="M 588 4666 
L 1791 4666 
L 1791 909 
L 3903 909 
L 3903 0 
L 588 0 
L 588 4666 
z
" transform="scale(0.015625)"/>
      <path id="DejaVuSans-Bold-4d" d="M 588 4666 
L 2119 4666 
L 3181 2169 
L 4250 4666 
L 5778 4666 
L 5778 0 
L 4641 0 
L 4641 3413 
L 3566 897 
L 2803 897 
L 1728 3413 
L 1728 0 
L 588 0 
L 588 4666 
z
" transform="scale(0.015625)"/>
     </defs>
     <use xlink:href="#DejaVuSans-Bold-4c"/>
     <use xlink:href="#DejaVuSans-Bold-4c" transform="translate(63.720703 0)"/>
     <use xlink:href="#DejaVuSans-Bold-4d" transform="translate(127.441406 0)"/>
    </g>
    <!-- response -->
    <g style="fill: #111827" transform="translate(434.989448 142.265766) scale(0.13 -0.13)">
     <use xlink:href="#DejaVuSans-Bold-72"/>
     <use xlink:href="#DejaVuSans-Bold-65" transform="translate(49.316406 0)"/>
     <use xlink:href="#DejaVuSans-Bold-73" transform="translate(117.138672 0)"/>
     <use xlink:href="#DejaVuSans-Bold-70" transform="translate(176.660156 0)"/>
     <use xlink:href="#DejaVuSans-Bold-6f" transform="translate(248.242188 0)"/>
     <use xlink:href="#DejaVuSans-Bold-6e" transform="translate(316.943359 0)"/>
     <use xlink:href="#DejaVuSans-Bold-73" transform="translate(388.134766 0)"/>
     <use xlink:href="#DejaVuSans-Bold-65" transform="translate(447.65625 0)"/>
    </g>
   </g>
   <g id="text_6">
    <!-- answer r_t under -->
    <g style="fill: #334155" transform="translate(428.218628 158.930336) scale(0.095 -0.095)">
     <defs>
      <path id="DejaVuSans-77" d="M 269 3500 
L 844 3500 
L 1563 769 
L 2278 3500 
L 2956 3500 
L 3675 769 
L 4391 3500 
L 4966 3500 
L 4050 0 
L 3372 0 
L 2619 2869 
L 1863 0 
L 1184 0 
L 269 3500 
z
" transform="scale(0.015625)"/>
      <path id="DejaVuSans-5f" d="M 3263 -1063 
L 3263 -1509 
L -63 -1509 
L -63 -1063 
L 3263 -1063 
z
" transform="scale(0.015625)"/>
     </defs>
     <use xlink:href="#DejaVuSans-61"/>
     <use xlink:href="#DejaVuSans-6e" transform="translate(61.279297 0)"/>
     <use xlink:href="#DejaVuSans-73" transform="translate(124.658203 0)"/>
     <use xlink:href="#DejaVuSans-77" transform="translate(176.757812 0)"/>
     <use xlink:href="#DejaVuSans-65" transform="translate(258.544922 0)"/>
     <use xlink:href="#DejaVuSans-72" transform="translate(320.068359 0)"/>
     <use xlink:href="#DejaVuSans-20" transform="translate(361.181641 0)"/>
     <use xlink:href="#DejaVuSans-72" transform="translate(392.96875 0)"/>
     <use xlink:href="#DejaVuSans-5f" transform="translate(434.082031 0)"/>
     <use xlink:href="#DejaVuSans-74" transform="translate(484.082031 0)"/>
     <use xlink:href="#DejaVuSans-20" transform="translate(523.291016 0)"/>
     <use xlink:href="#DejaVuSans-75" transform="translate(555.078125 0)"/>
     <use xlink:href="#DejaVuSans-6e" transform="translate(618.457031 0)"/>
     <use xlink:href="#DejaVuSans-64" transform="translate(681.835938 0)"/>
     <use xlink:href="#DejaVuSans-65" transform="translate(745.3125 0)"/>
     <use xlink:href="#DejaVuSans-72" transform="translate(806.835938 0)"/>
    </g>
    <!-- condition C0-C4 -->
    <g style="fill: #334155" transform="translate(430.631479 169.832477) scale(0.095 -0.095)">
     <defs>
      <path id="DejaVuSans-43" d="M 4122 4306 
L 4122 3641 
Q 3803 3938 3442 4084 
Q 3081 4231 2675 4231 
Q 1875 4231 1450 3742 
Q 1025 3253 1025 2328 
Q 1025 1406 1450 917 
Q 1875 428 2675 428 
Q 3081 428 3442 575 
Q 3803 722 4122 1019 
L 4122 359 
Q 3791 134 3420 21 
Q 3050 -91 2638 -91 
Q 1578 -91 968 557 
Q 359 1206 359 2328 
Q 359 3453 968 4101 
Q 1578 4750 2638 4750 
Q 3056 4750 3426 4639 
Q 3797 4528 4122 4306 
z
" transform="scale(0.015625)"/>
      <path id="DejaVuSans-30" d="M 2034 4250 
Q 1547 4250 1301 3770 
Q 1056 3291 1056 2328 
Q 1056 1369 1301 889 
Q 1547 409 2034 409 
Q 2525 409 2770 889 
Q 3016 1369 3016 2328 
Q 3016 3291 2770 3770 
Q 2525 4250 2034 4250 
z
M 2034 4750 
Q 2819 4750 3233 4129 
Q 3647 3509 3647 2328 
Q 3647 1150 3233 529 
Q 2819 -91 2034 -91 
Q 1250 -91 836 529 
Q 422 1150 422 2328 
Q 422 3509 836 4129 
Q 1250 4750 2034 4750 
z
" transform="scale(0.015625)"/>
      <path id="DejaVuSans-2d" d="M 313 2009 
L 1997 2009 
L 1997 1497 
L 313 1497 
L 313 2009 
z
" transform="scale(0.015625)"/>
      <path id="DejaVuSans-34" d="M 2419 4116 
L 825 1625 
L 2419 1625 
L 2419 4116 
z
M 2253 4666 
L 3047 4666 
L 3047 1625 
L 3713 1625 
L 3713 1100 
L 3047 1100 
L 3047 0 
L 2419 0 
L 2419 1100 
L 313 1100 
L 313 1709 
L 2253 4666 
z
" transform="scale(0.015625)"/>
     </defs>
     <use xlink:href="#DejaVuSans-63"/>
     <use xlink:href="#DejaVuSans-6f" transform="translate(54.980469 0)"/>
     <use xlink:href="#DejaVuSans-6e" transform="translate(116.162109 0)"/>
     <use xlink:href="#DejaVuSans-64" transform="translate(179.541016 0)"/>
     <use xlink:href="#DejaVuSans-69" transform="translate(243.017578 0)"/>
     <use xlink:href="#DejaVuSans-74" transform="translate(270.800781 0)"/>
     <use xlink:href="#DejaVuSans-69" transform="translate(310.009766 0)"/>
     <use xlink:href="#DejaVuSans-6f" transform="translate(337.792969 0)"/>
     <use xlink:href="#DejaVuSans-6e" transform="translate(398.974609 0)"/>
     <use xlink:href="#DejaVuSans-20" transform="translate(462.353516 0)"/>
     <use xlink:href="#DejaVuSans-43" transform="translate(494.140625 0)"/>
     <use xlink:href="#DejaVuSans-30" transform="translate(563.964844 0)"/>
     <use xlink:href="#DejaVuSans-2d" transform="translate(627.587891 0)"/>
     <use xlink:href="#DejaVuSans-43" transform="translate(663.671875 0)"/>
     <use xlink:href="#DejaVuSans-34" transform="translate(733.496094 0)"/>
    </g>
   </g>
   <g id="text_7">
    <!-- Feedback -->
    <g style="fill: #111827" transform="translate(582.418859 127.708609) scale(0.13 -0.13)">
     <defs>
      <path id="DejaVuSans-Bold-46" d="M 588 4666 
L 3834 4666 
L 3834 3756 
L 1791 3756 
L 1791 2888 
L 3713 2888 
L 3713 1978 
L 1791 1978 
L 1791 0 
L 588 0 
L 588 4666 
z
" transform="scale(0.015625)"/>
      <path id="DejaVuSans-Bold-63" d="M 3366 3391 
L 3366 2478 
Q 3138 2634 2908 2709 
Q 2678 2784 2431 2784 
Q 1963 2784 1702 2511 
Q 1441 2238 1441 1747 
Q 1441 1256 1702 982 
Q 1963 709 2431 709 
Q 2694 709 2930 787 
Q 3166 866 3366 1019 
L 3366 103 
Q 3103 6 2833 -42 
Q 2563 -91 2291 -91 
Q 1344 -91 809 395 
Q 275 881 275 1747 
Q 275 2613 809 3098 
Q 1344 3584 2291 3584 
Q 2566 3584 2833 3536 
Q 3100 3488 3366 3391 
z
" transform="scale(0.015625)"/>
      <path id="DejaVuSans-Bold-6b" d="M 538 4863 
L 1656 4863 
L 1656 2216 
L 2944 3500 
L 4244 3500 
L 2534 1894 
L 4378 0 
L 3022 0 
L 1656 1459 
L 1656 0 
L 538 0 
L 538 4863 
z
" transform="scale(0.015625)"/>
     </defs>
     <use xlink:href="#DejaVuSans-Bold-46"/>
     <use xlink:href="#DejaVuSans-Bold-65" transform="translate(64.310547 0)"/>
     <use xlink:href="#DejaVuSans-Bold-65" transform="translate(132.132812 0)"/>
     <use xlink:href="#DejaVuSans-Bold-64" transform="translate(199.955078 0)"/>
     <use xlink:href="#DejaVuSans-Bold-62" transform="translate(271.537109 0)"/>
     <use xlink:href="#DejaVuSans-Bold-61" transform="translate(343.119141 0)"/>
     <use xlink:href="#DejaVuSans-Bold-63" transform="translate(410.599609 0)"/>
     <use xlink:href="#DejaVuSans-Bold-6b" transform="translate(469.876953 0)"/>
    </g>
    <!-- module -->
    <g style="fill: #111827" transform="translate(590.128469 142.265766) scale(0.13 -0.13)">
     <use xlink:href="#DejaVuSans-Bold-6d"/>
     <use xlink:href="#DejaVuSans-Bold-6f" transform="translate(104.199219 0)"/>
     <use xlink:href="#DejaVuSans-Bold-64" transform="translate(172.900391 0)"/>
     <use xlink:href="#DejaVuSans-Bold-75" transform="translate(244.482422 0)"/>
     <use xlink:href="#DejaVuSans-Bold-6c" transform="translate(315.673828 0)"/>
     <use xlink:href="#DejaVuSans-Bold-65" transform="translate(349.951172 0)"/>
    </g>
   </g>
   <g id="text_8">
    <!-- error type + -->
    <g style="fill: #334155" transform="translate(588.175656 159.062445) scale(0.095 -0.095)">
     <use xlink:href="#DejaVuSans-65"/>
     <use xlink:href="#DejaVuSans-72" transform="translate(61.523438 0)"/>
     <use xlink:href="#DejaVuSans-72" transform="translate(100.886719 0)"/>
     <use xlink:href="#DejaVuSans-6f" transform="translate(139.75 0)"/>
     <use xlink:href="#DejaVuSans-72" transform="translate(200.931641 0)"/>
     <use xlink:href="#DejaVuSans-20" transform="translate(242.044922 0)"/>
     <use xlink:href="#DejaVuSans-74" transform="translate(273.832031 0)"/>
     <use xlink:href="#DejaVuSans-79" transform="translate(313.041016 0)"/>
     <use xlink:href="#DejaVuSans-70" transform="translate(372.220703 0)"/>
     <use xlink:href="#DejaVuSans-65" transform="translate(435.697266 0)"/>
     <use xlink:href="#DejaVuSans-20" transform="translate(497.220703 0)"/>
     <use xlink:href="#DejaVuSans-2b" transform="translate(529.007812 0)"/>
    </g>
    <!-- corrected rule -->
    <g style="fill: #334155" transform="translate(584.000852 169.700367) scale(0.095 -0.095)">
     <use xlink:href="#DejaVuSans-63"/>
     <use xlink:href="#DejaVuSans-6f" transform="translate(54.980469 0)"/>
     <use xlink:href="#DejaVuSans-72" transform="translate(116.162109 0)"/>
     <use xlink:href="#DejaVuSans-72" transform="translate(155.525391 0)"/>
     <use xlink:href="#DejaVuSans-65" transform="translate(194.388672 0)"/>
     <use xlink:href="#DejaVuSans-63" transform="translate(255.912109 0)"/>
     <use xlink:href="#DejaVuSans-74" transform="translate(310.892578 0)"/>
     <use xlink:href="#DejaVuSans-65" transform="translate(350.101562 0)"/>
     <use xlink:href="#DejaVuSans-64" transform="translate(411.625 0)"/>
     <use xlink:href="#DejaVuSans-20" transform="translate(475.101562 0)"/>
     <use xlink:href="#DejaVuSans-72" transform="translate(506.888672 0)"/>
     <use xlink:href="#DejaVuSans-75" transform="translate(548.001953 0)"/>
     <use xlink:href="#DejaVuSans-6c" transform="translate(611.380859 0)"/>
     <use xlink:href="#DejaVuSans-65" transform="translate(639.164062 0)"/>
    </g>
   </g>
   <g id="text_9">
    <!-- Memory -->
    <g style="fill: #111827" transform="translate(736.514833 127.607047) scale(0.13 -0.13)">
     <defs>
      <path id="DejaVuSans-Bold-79" d="M 78 3500 
L 1197 3500 
L 2138 1125 
L 2938 3500 
L 4056 3500 
L 2584 -331 
Q 2363 -916 2067 -1148 
Q 1772 -1381 1288 -1381 
L 641 -1381 
L 641 -647 
L 991 -647 
Q 1275 -647 1404 -556 
Q 1534 -466 1606 -231 
L 1638 -134 
L 78 3500 
z
" transform="scale(0.015625)"/>
     </defs>
     <use xlink:href="#DejaVuSans-Bold-4d"/>
     <use xlink:href="#DejaVuSans-Bold-65" transform="translate(99.511719 0)"/>
     <use xlink:href="#DejaVuSans-Bold-6d" transform="translate(167.333984 0)"/>
     <use xlink:href="#DejaVuSans-Bold-6f" transform="translate(271.533203 0)"/>
     <use xlink:href="#DejaVuSans-Bold-72" transform="translate(340.234375 0)"/>
     <use xlink:href="#DejaVuSans-Bold-79" transform="translate(389.550781 0)"/>
    </g>
    <!-- store -->
    <g style="fill: #111827" transform="translate(747.018427 142.265766) scale(0.13 -0.13)">
     <use xlink:href="#DejaVuSans-Bold-73"/>
     <use xlink:href="#DejaVuSans-Bold-74" transform="translate(59.521484 0)"/>
     <use xlink:href="#DejaVuSans-Bold-6f" transform="translate(107.324219 0)"/>
     <use xlink:href="#DejaVuSans-Bold-72" transform="translate(176.025391 0)"/>
     <use xlink:href="#DejaVuSans-Bold-65" transform="translate(225.341797 0)"/>
    </g>
   </g>
   <g id="text_10">
    <!-- positive and/or -->
    <g style="fill: #334155" transform="translate(730.536161 159.062445) scale(0.095 -0.095)">
     <defs>
      <path id="DejaVuSans-76" d="M 191 3500 
L 800 3500 
L 1894 563 
L 2988 3500 
L 3597 3500 
L 2284 0 
L 1503 0 
L 191 3500 
z
" transform="scale(0.015625)"/>
      <path id="DejaVuSans-2f" d="M 1625 4666 
L 2156 4666 
L 531 -594 
L 0 -594 
L 1625 4666 
z
" transform="scale(0.015625)"/>
     </defs>
     <use xlink:href="#DejaVuSans-70"/>
     <use xlink:href="#DejaVuSans-6f" transform="translate(63.476562 0)"/>
     <use xlink:href="#DejaVuSans-73" transform="translate(124.658203 0)"/>
     <use xlink:href="#DejaVuSans-69" transform="translate(176.757812 0)"/>
     <use xlink:href="#DejaVuSans-74" transform="translate(204.541016 0)"/>
     <use xlink:href="#DejaVuSans-69" transform="translate(243.75 0)"/>
     <use xlink:href="#DejaVuSans-76" transform="translate(271.533203 0)"/>
     <use xlink:href="#DejaVuSans-65" transform="translate(330.712891 0)"/>
     <use xlink:href="#DejaVuSans-20" transform="translate(392.236328 0)"/>
     <use xlink:href="#DejaVuSans-61" transform="translate(424.023438 0)"/>
     <use xlink:href="#DejaVuSans-6e" transform="translate(485.302734 0)"/>
     <use xlink:href="#DejaVuSans-64" transform="translate(548.681641 0)"/>
     <use xlink:href="#DejaVuSans-2f" transform="translate(612.158203 0)"/>
     <use xlink:href="#DejaVuSans-6f" transform="translate(645.849609 0)"/>
     <use xlink:href="#DejaVuSans-72" transform="translate(707.03125 0)"/>
    </g>
    <!-- error entries -->
    <g style="fill: #334155" transform="translate(736.60206 169.700367) scale(0.095 -0.095)">
     <use xlink:href="#DejaVuSans-65"/>
     <use xlink:href="#DejaVuSans-72" transform="translate(61.523438 0)"/>
     <use xlink:href="#DejaVuSans-72" transform="translate(100.886719 0)"/>
     <use xlink:href="#DejaVuSans-6f" transform="translate(139.75 0)"/>
     <use xlink:href="#DejaVuSans-72" transform="translate(200.931641 0)"/>
     <use xlink:href="#DejaVuSans-20" transform="translate(242.044922 0)"/>
     <use xlink:href="#DejaVuSans-65" transform="translate(273.832031 0)"/>
     <use xlink:href="#DejaVuSans-6e" transform="translate(335.355469 0)"/>
     <use xlink:href="#DejaVuSans-74" transform="translate(398.734375 0)"/>
     <use xlink:href="#DejaVuSans-72" transform="translate(437.943359 0)"/>
     <use xlink:href="#DejaVuSans-69" transform="translate(479.056641 0)"/>
     <use xlink:href="#DejaVuSans-65" transform="translate(506.839844 0)"/>
     <use xlink:href="#DejaVuSans-73" transform="translate(568.363281 0)"/>
    </g>
   </g>
   <g id="text_11">
    <!-- Prompt -->
    <g style="fill: #111827" transform="translate(298.460359 345.058609) scale(0.13 -0.13)">
     <use xlink:href="#DejaVuSans-Bold-50"/>
     <use xlink:href="#DejaVuSans-Bold-72" transform="translate(73.291016 0)"/>
     <use xlink:href="#DejaVuSans-Bold-6f" transform="translate(122.607422 0)"/>
     <use xlink:href="#DejaVuSans-Bold-6d" transform="translate(191.308594 0)"/>
     <use xlink:href="#DejaVuSans-Bold-70" transform="translate(295.507812 0)"/>
     <use xlink:href="#DejaVuSans-Bold-74" transform="translate(367.089844 0)"/>
    </g>
    <!-- reconstruction -->
    <g style="fill: #111827" transform="translate(271.778875 359.615766) scale(0.13 -0.13)">
     <use xlink:href="#DejaVuSans-Bold-72"/>
     <use xlink:href="#DejaVuSans-Bold-65" transform="translate(49.316406 0)"/>
     <use xlink:href="#DejaVuSans-Bold-63" transform="translate(117.138672 0)"/>
     <use xlink:href="#DejaVuSans-Bold-6f" transform="translate(176.416016 0)"/>
     <use xlink:href="#DejaVuSans-Bold-6e" transform="translate(245.117188 0)"/>
     <use xlink:href="#DejaVuSans-Bold-73" transform="translate(316.308594 0)"/>
     <use xlink:href="#DejaVuSans-Bold-74" transform="translate(375.830078 0)"/>
     <use xlink:href="#DejaVuSans-Bold-72" transform="translate(423.632812 0)"/>
     <use xlink:href="#DejaVuSans-Bold-75" transform="translate(472.949219 0)"/>
     <use xlink:href="#DejaVuSans-Bold-63" transform="translate(544.140625 0)"/>
     <use xlink:href="#DejaVuSans-Bold-74" transform="translate(603.417969 0)"/>
     <use xlink:href="#DejaVuSans-Bold-69" transform="translate(651.220703 0)"/>
     <use xlink:href="#DejaVuSans-Bold-6f" transform="translate(685.498047 0)"/>
     <use xlink:href="#DejaVuSans-Bold-6e" transform="translate(754.199219 0)"/>
    </g>
   </g>
   <g id="text_12">
    <!-- retrieved memory -->
    <g style="fill: #334155" transform="translate(282.496414 376.412445) scale(0.095 -0.095)">
     <use xlink:href="#DejaVuSans-72"/>
     <use xlink:href="#DejaVuSans-65" transform="translate(38.863281 0)"/>
     <use xlink:href="#DejaVuSans-74" transform="translate(100.386719 0)"/>
     <use xlink:href="#DejaVuSans-72" transform="translate(139.595703 0)"/>
     <use xlink:href="#DejaVuSans-69" transform="translate(180.708984 0)"/>
     <use xlink:href="#DejaVuSans-65" transform="translate(208.492188 0)"/>
     <use xlink:href="#DejaVuSans-76" transform="translate(270.015625 0)"/>
     <use xlink:href="#DejaVuSans-65" transform="translate(329.195312 0)"/>
     <use xlink:href="#DejaVuSans-64" transform="translate(390.71875 0)"/>
     <use xlink:href="#DejaVuSans-20" transform="translate(454.195312 0)"/>
     <use xlink:href="#DejaVuSans-6d" transform="translate(485.982422 0)"/>
     <use xlink:href="#DejaVuSans-65" transform="translate(583.394531 0)"/>
     <use xlink:href="#DejaVuSans-6d" transform="translate(644.917969 0)"/>
     <use xlink:href="#DejaVuSans-6f" transform="translate(742.330078 0)"/>
     <use xlink:href="#DejaVuSans-72" transform="translate(803.511719 0)"/>
     <use xlink:href="#DejaVuSans-79" transform="translate(844.625 0)"/>
    </g>
    <!-- inserted by block -->
    <g style="fill: #334155" transform="translate(284.498094 387.050367) scale(0.095 -0.095)">
     <use xlink:href="#DejaVuSans-69"/>
     <use xlink:href="#DejaVuSans-6e" transform="translate(27.783203 0)"/>
     <use xlink:href="#DejaVuSans-73" transform="translate(91.162109 0)"/>
     <use xlink:href="#DejaVuSans-65" transform="translate(143.261719 0)"/>
     <use xlink:href="#DejaVuSans-72" transform="translate(204.785156 0)"/>
     <use xlink:href="#DejaVuSans-74" transform="translate(245.898438 0)"/>
     <use xlink:href="#DejaVuSans-65" transform="translate(285.107422 0)"/>
     <use xlink:href="#DejaVuSans-64" transform="translate(346.630859 0)"/>
     <use xlink:href="#DejaVuSans-20" transform="translate(410.107422 0)"/>
     <use xlink:href="#DejaVuSans-62" transform="translate(441.894531 0)"/>
     <use xlink:href="#DejaVuSans-79" transform="translate(505.371094 0)"/>
     <use xlink:href="#DejaVuSans-20" transform="translate(564.550781 0)"/>
     <use xlink:href="#DejaVuSans-62" transform="translate(596.337891 0)"/>
     <use xlink:href="#DejaVuSans-6c" transform="translate(659.814453 0)"/>
     <use xlink:href="#DejaVuSans-6f" transform="translate(687.597656 0)"/>
     <use xlink:href="#DejaVuSans-63" transform="translate(748.779297 0)"/>
     <use xlink:href="#DejaVuSans-6b" transform="translate(803.759766 0)"/>
    </g>
   </g>
   <g id="text_13">
    <!-- Follow-up -->
    <g style="fill: #111827" transform="translate(478.725312 345.058609) scale(0.13 -0.13)">
     <defs>
      <path id="DejaVuSans-Bold-77" d="M 225 3500 
L 1313 3500 
L 1900 1088 
L 2491 3500 
L 3425 3500 
L 4013 1113 
L 4603 3500 
L 5691 3500 
L 4769 0 
L 3547 0 
L 2956 2406 
L 2369 0 
L 1147 0 
L 225 3500 
z
" transform="scale(0.015625)"/>
      <path id="DejaVuSans-Bold-2d" d="M 347 2297 
L 2309 2297 
L 2309 1388 
L 347 1388 
L 347 2297 
z
" transform="scale(0.015625)"/>
     </defs>
     <use xlink:href="#DejaVuSans-Bold-46"/>
     <use xlink:href="#DejaVuSans-Bold-6f" transform="translate(64.310547 0)"/>
     <use xlink:href="#DejaVuSans-Bold-6c" transform="translate(133.011719 0)"/>
     <use xlink:href="#DejaVuSans-Bold-6c" transform="translate(167.289062 0)"/>
     <use xlink:href="#DejaVuSans-Bold-6f" transform="translate(201.566406 0)"/>
     <use xlink:href="#DejaVuSans-Bold-77" transform="translate(270.267578 0)"/>
     <use xlink:href="#DejaVuSans-Bold-2d" transform="translate(362.650391 0)"/>
     <use xlink:href="#DejaVuSans-Bold-75" transform="translate(404.154297 0)"/>
     <use xlink:href="#DejaVuSans-Bold-70" transform="translate(475.345703 0)"/>
    </g>
    <!-- test -->
    <g style="fill: #111827" transform="translate(499.785313 359.615766) scale(0.13 -0.13)">
     <use xlink:href="#DejaVuSans-Bold-74"/>
     <use xlink:href="#DejaVuSans-Bold-65" transform="translate(47.802734 0)"/>
     <use xlink:href="#DejaVuSans-Bold-73" transform="translate(115.625 0)"/>
     <use xlink:href="#DejaVuSans-Bold-74" transform="translate(175.146484 0)"/>
    </g>
   </g>
   <g id="text_14">
    <!-- immediate, delayed, -->
    <g style="fill: #334155" transform="translate(465.302266 376.412445) scale(0.095 -0.095)">
     <defs>
      <path id="DejaVuSans-2c" d="M 750 794 
L 1409 794 
L 1409 256 
L 897 -744 
L 494 -744 
L 750 256 
L 750 794 
z
" transform="scale(0.015625)"/>
     </defs>
     <use xlink:href="#DejaVuSans-69"/>
     <use xlink:href="#DejaVuSans-6d" transform="translate(27.783203 0)"/>
     <use xlink:href="#DejaVuSans-6d" transform="translate(125.195312 0)"/>
     <use xlink:href="#DejaVuSans-65" transform="translate(222.607422 0)"/>
     <use xlink:href="#DejaVuSans-64" transform="translate(284.130859 0)"/>
     <use xlink:href="#DejaVuSans-69" transform="translate(347.607422 0)"/>
     <use xlink:href="#DejaVuSans-61" transform="translate(375.390625 0)"/>
     <use xlink:href="#DejaVuSans-74" transform="translate(436.669922 0)"/>
     <use xlink:href="#DejaVuSans-65" transform="translate(475.878906 0)"/>
     <use xlink:href="#DejaVuSans-2c" transform="translate(537.402344 0)"/>
     <use xlink:href="#DejaVuSans-20" transform="translate(569.189453 0)"/>
     <use xlink:href="#DejaVuSans-64" transform="translate(600.976562 0)"/>
     <use xlink:href="#DejaVuSans-65" transform="translate(664.453125 0)"/>
     <use xlink:href="#DejaVuSans-6c" transform="translate(725.976562 0)"/>
     <use xlink:href="#DejaVuSans-61" transform="translate(753.759766 0)"/>
     <use xlink:href="#DejaVuSans-79" transform="translate(815.039062 0)"/>
     <use xlink:href="#DejaVuSans-65" transform="translate(874.21875 0)"/>
     <use xlink:href="#DejaVuSans-64" transform="translate(935.742188 0)"/>
     <use xlink:href="#DejaVuSans-2c" transform="translate(999.21875 0)"/>
    </g>
    <!-- paraphrased query -->
    <g style="fill: #334155" transform="translate(468.961992 387.050367) scale(0.095 -0.095)">
     <defs>
      <path id="DejaVuSans-68" d="M 3513 2113 
L 3513 0 
L 2938 0 
L 2938 2094 
Q 2938 2591 2744 2837 
Q 2550 3084 2163 3084 
Q 1697 3084 1428 2787 
Q 1159 2491 1159 1978 
L 1159 0 
L 581 0 
L 581 4863 
L 1159 4863 
L 1159 2956 
Q 1366 3272 1645 3428 
Q 1925 3584 2291 3584 
Q 2894 3584 3203 3211 
Q 3513 2838 3513 2113 
z
" transform="scale(0.015625)"/>
      <path id="DejaVuSans-71" d="M 947 1747 
Q 947 1113 1208 752 
Q 1469 391 1925 391 
Q 2381 391 2643 752 
Q 2906 1113 2906 1747 
Q 2906 2381 2643 2742 
Q 2381 3103 1925 3103 
Q 1469 3103 1208 2742 
Q 947 2381 947 1747 
z
M 2906 525 
Q 2725 213 2448 61 
Q 2172 -91 1784 -91 
Q 1150 -91 751 415 
Q 353 922 353 1747 
Q 353 2572 751 3078 
Q 1150 3584 1784 3584 
Q 2172 3584 2448 3432 
Q 2725 3281 2906 2969 
L 2906 3500 
L 3481 3500 
L 3481 -1331 
L 2906 -1331 
L 2906 525 
z
" transform="scale(0.015625)"/>
     </defs>
     <use xlink:href="#DejaVuSans-70"/>
     <use xlink:href="#DejaVuSans-61" transform="translate(63.476562 0)"/>
     <use xlink:href="#DejaVuSans-72" transform="translate(124.755859 0)"/>
     <use xlink:href="#DejaVuSans-61" transform="translate(165.869141 0)"/>
     <use xlink:href="#DejaVuSans-70" transform="translate(227.148438 0)"/>
     <use xlink:href="#DejaVuSans-68" transform="translate(290.625 0)"/>
     <use xlink:href="#DejaVuSans-72" transform="translate(354.003906 0)"/>
     <use xlink:href="#DejaVuSans-61" transform="translate(395.117188 0)"/>
     <use xlink:href="#DejaVuSans-73" transform="translate(456.396484 0)"/>
     <use xlink:href="#DejaVuSans-65" transform="translate(508.496094 0)"/>
     <use xlink:href="#DejaVuSans-64" transform="translate(570.019531 0)"/>
     <use xlink:href="#DejaVuSans-20" transform="translate(633.496094 0)"/>
     <use xlink:href="#DejaVuSans-71" transform="translate(665.283203 0)"/>
     <use xlink:href="#DejaVuSans-75" transform="translate(728.759766 0)"/>
     <use xlink:href="#DejaVuSans-65" transform="translate(792.138672 0)"/>
     <use xlink:href="#DejaVuSans-72" transform="translate(853.662109 0)"/>
     <use xlink:href="#DejaVuSans-79" transform="translate(894.775391 0)"/>
    </g>
   </g>
   <g id="text_15">
    <!-- Evaluator -->
    <g style="fill: #111827" transform="translate(668.0405 352.337187) scale(0.13 -0.13)">
     <defs>
      <path id="DejaVuSans-Bold-45" d="M 588 4666 
L 3834 4666 
L 3834 3756 
L 1791 3756 
L 1791 2888 
L 3713 2888 
L 3713 1978 
L 1791 1978 
L 1791 909 
L 3903 909 
L 3903 0 
L 588 0 
L 588 4666 
z
" transform="scale(0.015625)"/>
      <path id="DejaVuSans-Bold-76" d="M 97 3500 
L 1216 3500 
L 2088 1081 
L 2956 3500 
L 4078 3500 
L 2700 0 
L 1472 0 
L 97 3500 
z
" transform="scale(0.015625)"/>
     </defs>
     <use xlink:href="#DejaVuSans-Bold-45"/>
     <use xlink:href="#DejaVuSans-Bold-76" transform="translate(68.310547 0)"/>
     <use xlink:href="#DejaVuSans-Bold-61" transform="translate(133.496094 0)"/>
     <use xlink:href="#DejaVuSans-Bold-6c" transform="translate(200.976562 0)"/>
     <use xlink:href="#DejaVuSans-Bold-75" transform="translate(235.253906 0)"/>
     <use xlink:href="#DejaVuSans-Bold-61" transform="translate(306.445312 0)"/>
     <use xlink:href="#DejaVuSans-Bold-74" transform="translate(373.925781 0)"/>
     <use xlink:href="#DejaVuSans-Bold-6f" transform="translate(421.728516 0)"/>
     <use xlink:href="#DejaVuSans-Bold-72" transform="translate(490.429688 0)"/>
    </g>
   </g>
   <g id="text_16">
    <!-- success, repeated -->
    <g style="fill: #334155" transform="translate(660.107062 376.412445) scale(0.095 -0.095)">
     <use xlink:href="#DejaVuSans-73"/>
     <use xlink:href="#DejaVuSans-75" transform="translate(52.099609 0)"/>
     <use xlink:href="#DejaVuSans-63" transform="translate(115.478516 0)"/>
     <use xlink:href="#DejaVuSans-63" transform="translate(170.458984 0)"/>
     <use xlink:href="#DejaVuSans-65" transform="translate(225.439453 0)"/>
     <use xlink:href="#DejaVuSans-73" transform="translate(286.962891 0)"/>
     <use xlink:href="#DejaVuSans-73" transform="translate(339.0625 0)"/>
     <use xlink:href="#DejaVuSans-2c" transform="translate(391.162109 0)"/>
     <use xlink:href="#DejaVuSans-20" transform="translate(422.949219 0)"/>
     <use xlink:href="#DejaVuSans-72" transform="translate(454.736328 0)"/>
     <use xlink:href="#DejaVuSans-65" transform="translate(493.599609 0)"/>
     <use xlink:href="#DejaVuSans-70" transform="translate(555.123047 0)"/>
     <use xlink:href="#DejaVuSans-65" transform="translate(618.599609 0)"/>
     <use xlink:href="#DejaVuSans-61" transform="translate(680.123047 0)"/>
     <use xlink:href="#DejaVuSans-74" transform="translate(741.402344 0)"/>
     <use xlink:href="#DejaVuSans-65" transform="translate(780.611328 0)"/>
     <use xlink:href="#DejaVuSans-64" transform="translate(842.134766 0)"/>
    </g>
    <!-- error, recall, cost -->
    <g style="fill: #334155" transform="translate(662.80343 387.050367) scale(0.095 -0.095)">
     <use xlink:href="#DejaVuSans-65"/>
     <use xlink:href="#DejaVuSans-72" transform="translate(61.523438 0)"/>
     <use xlink:href="#DejaVuSans-72" transform="translate(100.886719 0)"/>
     <use xlink:href="#DejaVuSans-6f" transform="translate(139.75 0)"/>
     <use xlink:href="#DejaVuSans-72" transform="translate(200.931641 0)"/>
     <use xlink:href="#DejaVuSans-2c" transform="translate(242.044922 0)"/>
     <use xlink:href="#DejaVuSans-20" transform="translate(273.832031 0)"/>
     <use xlink:href="#DejaVuSans-72" transform="translate(305.619141 0)"/>
     <use xlink:href="#DejaVuSans-65" transform="translate(344.482422 0)"/>
     <use xlink:href="#DejaVuSans-63" transform="translate(406.005859 0)"/>
     <use xlink:href="#DejaVuSans-61" transform="translate(460.986328 0)"/>
     <use xlink:href="#DejaVuSans-6c" transform="translate(522.265625 0)"/>
     <use xlink:href="#DejaVuSans-6c" transform="translate(550.048828 0)"/>
     <use xlink:href="#DejaVuSans-2c" transform="translate(577.832031 0)"/>
     <use xlink:href="#DejaVuSans-20" transform="translate(609.619141 0)"/>
     <use xlink:href="#DejaVuSans-63" transform="translate(641.40625 0)"/>
     <use xlink:href="#DejaVuSans-6f" transform="translate(696.386719 0)"/>
     <use xlink:href="#DejaVuSans-73" transform="translate(757.568359 0)"/>
     <use xlink:href="#DejaVuSans-74" transform="translate(809.667969 0)"/>
    </g>
   </g>
   <g id="text_17">
    <!-- FGMA research prototype: transparent prompt-memory adaptation without changing base-model parameters -->
    <g transform="translate(7.2 52.05) scale(0.15 -0.15)">
     <defs>
      <path id="DejaVuSans-Bold-47" d="M 4781 347 
Q 4331 128 3847 18 
Q 3363 -91 2847 -91 
Q 1681 -91 1000 561 
Q 319 1213 319 2328 
Q 319 3456 1012 4103 
Q 1706 4750 2913 4750 
Q 3378 4750 3804 4662 
Q 4231 4575 4609 4403 
L 4609 3438 
Q 4219 3659 3833 3768 
Q 3447 3878 3059 3878 
Q 2341 3878 1952 3476 
Q 1563 3075 1563 2328 
Q 1563 1588 1938 1184 
Q 2313 781 3003 781 
Q 3191 781 3352 804 
Q 3513 828 3641 878 
L 3641 1784 
L 2906 1784 
L 2906 2591 
L 4781 2591 
L 4781 347 
z
" transform="scale(0.015625)"/>
      <path id="DejaVuSans-Bold-41" d="M 3419 850 
L 1538 850 
L 1241 0 
L 31 0 
L 1759 4666 
L 3194 4666 
L 4922 0 
L 3713 0 
L 3419 850 
z
M 1838 1716 
L 3116 1716 
L 2478 3572 
L 1838 1716 
z
" transform="scale(0.015625)"/>
      <path id="DejaVuSans-Bold-20" transform="scale(0.015625)"/>
      <path id="DejaVuSans-Bold-68" d="M 4056 2131 
L 4056 0 
L 2931 0 
L 2931 347 
L 2931 1625 
Q 2931 2084 2911 2256 
Q 2891 2428 2841 2509 
Q 2775 2619 2662 2680 
Q 2550 2741 2406 2741 
Q 2056 2741 1856 2470 
Q 1656 2200 1656 1722 
L 1656 0 
L 538 0 
L 538 4863 
L 1656 4863 
L 1656 2988 
Q 1909 3294 2193 3439 
Q 2478 3584 2822 3584 
Q 3428 3584 3742 3212 
Q 4056 2841 4056 2131 
z
" transform="scale(0.015625)"/>
      <path id="DejaVuSans-Bold-3a" d="M 716 3500 
L 1844 3500 
L 1844 2291 
L 716 2291 
L 716 3500 
z
M 716 1209 
L 1844 1209 
L 1844 0 
L 716 0 
L 716 1209 
z
" transform="scale(0.015625)"/>
      <path id="DejaVuSans-Bold-67" d="M 2919 594 
Q 2688 288 2409 144 
Q 2131 0 1766 0 
Q 1125 0 706 504 
Q 288 1009 288 1791 
Q 288 2575 706 3076 
Q 1125 3578 1766 3578 
Q 2131 3578 2409 3434 
Q 2688 3291 2919 2981 
L 2919 3500 
L 4044 3500 
L 4044 353 
Q 4044 -491 3511 -936 
Q 2978 -1381 1966 -1381 
Q 1638 -1381 1331 -1331 
Q 1025 -1281 716 -1178 
L 716 -306 
Q 1009 -475 1290 -558 
Q 1572 -641 1856 -641 
Q 2406 -641 2662 -400 
Q 2919 -159 2919 353 
L 2919 594 
z
M 2181 2772 
Q 1834 2772 1640 2515 
Q 1447 2259 1447 1791 
Q 1447 1309 1634 1061 
Q 1822 813 2181 813 
Q 2531 813 2725 1069 
Q 2919 1325 2919 1791 
Q 2919 2259 2725 2515 
Q 2531 2772 2181 2772 
z
" transform="scale(0.015625)"/>
     </defs>
     <use xlink:href="#DejaVuSans-Bold-46"/>
     <use xlink:href="#DejaVuSans-Bold-47" transform="translate(68.310547 0)"/>
     <use xlink:href="#DejaVuSans-Bold-4d" transform="translate(150.390625 0)"/>
     <use xlink:href="#DejaVuSans-Bold-41" transform="translate(249.902344 0)"/>
     <use xlink:href="#DejaVuSans-Bold-20" transform="translate(327.294922 0)"/>
     <use xlink:href="#DejaVuSans-Bold-72" transform="translate(362.109375 0)"/>
     <use xlink:href="#DejaVuSans-Bold-65" transform="translate(411.425781 0)"/>
     <use xlink:href="#DejaVuSans-Bold-73" transform="translate(479.248047 0)"/>
     <use xlink:href="#DejaVuSans-Bold-65" transform="translate(538.769531 0)"/>
     <use xlink:href="#DejaVuSans-Bold-61" transform="translate(606.591797 0)"/>
     <use xlink:href="#DejaVuSans-Bold-72" transform="translate(674.072266 0)"/>
     <use xlink:href="#DejaVuSans-Bold-63" transform="translate(723.388672 0)"/>
     <use xlink:href="#DejaVuSans-Bold-68" transform="translate(782.666016 0)"/>
     <use xlink:href="#DejaVuSans-Bold-20" transform="translate(853.857422 0)"/>
     <use xlink:href="#DejaVuSans-Bold-70" transform="translate(888.671875 0)"/>
     <use xlink:href="#DejaVuSans-Bold-72" transform="translate(960.253906 0)"/>
     <use xlink:href="#DejaVuSans-Bold-6f" transform="translate(1009.570312 0)"/>
     <use xlink:href="#DejaVuSans-Bold-74" transform="translate(1078.271484 0)"/>
     <use xlink:href="#DejaVuSans-Bold-6f" transform="translate(1126.074219 0)"/>
     <use xlink:href="#DejaVuSans-Bold-74" transform="translate(1194.775391 0)"/>
     <use xlink:href="#DejaVuSans-Bold-79" transform="translate(1242.578125 0)"/>
     <use xlink:href="#DejaVuSans-Bold-70" transform="translate(1307.763672 0)"/>
     <use xlink:href="#DejaVuSans-Bold-65" transform="translate(1379.345703 0)"/>
     <use xlink:href="#DejaVuSans-Bold-3a" transform="translate(1447.167969 0)"/>
     <use xlink:href="#DejaVuSans-Bold-20" transform="translate(1487.158203 0)"/>
     <use xlink:href="#DejaVuSans-Bold-74" transform="translate(1521.972656 0)"/>
     <use xlink:href="#DejaVuSans-Bold-72" transform="translate(1569.775391 0)"/>
     <use xlink:href="#DejaVuSans-Bold-61" transform="translate(1619.091797 0)"/>
     <use xlink:href="#DejaVuSans-Bold-6e" transform="translate(1686.572266 0)"/>
     <use xlink:href="#DejaVuSans-Bold-73" transform="translate(1757.763672 0)"/>
     <use xlink:href="#DejaVuSans-Bold-70" transform="translate(1817.285156 0)"/>
     <use xlink:href="#DejaVuSans-Bold-61" transform="translate(1888.867188 0)"/>
     <use xlink:href="#DejaVuSans-Bold-72" transform="translate(1956.347656 0)"/>
     <use xlink:href="#DejaVuSans-Bold-65" transform="translate(2005.664062 0)"/>
     <use xlink:href="#DejaVuSans-Bold-6e" transform="translate(2073.486328 0)"/>
     <use xlink:href="#DejaVuSans-Bold-74" transform="translate(2144.677734 0)"/>
     <use xlink:href="#DejaVuSans-Bold-20" transform="translate(2192.480469 0)"/>
     <use xlink:href="#DejaVuSans-Bold-70" transform="translate(2227.294922 0)"/>
     <use xlink:href="#DejaVuSans-Bold-72" transform="translate(2298.876953 0)"/>
     <use xlink:href="#DejaVuSans-Bold-6f" transform="translate(2348.193359 0)"/>
     <use xlink:href="#DejaVuSans-Bold-6d" transform="translate(2416.894531 0)"/>
     <use xlink:href="#DejaVuSans-Bold-70" transform="translate(2521.09375 0)"/>
     <use xlink:href="#DejaVuSans-Bold-74" transform="translate(2592.675781 0)"/>
     <use xlink:href="#DejaVuSans-Bold-2d" transform="translate(2640.478516 0)"/>
     <use xlink:href="#DejaVuSans-Bold-6d" transform="translate(2681.982422 0)"/>
     <use xlink:href="#DejaVuSans-Bold-65" transform="translate(2786.181641 0)"/>
     <use xlink:href="#DejaVuSans-Bold-6d" transform="translate(2854.003906 0)"/>
     <use xlink:href="#DejaVuSans-Bold-6f" transform="translate(2958.203125 0)"/>
     <use xlink:href="#DejaVuSans-Bold-72" transform="translate(3026.904297 0)"/>
     <use xlink:href="#DejaVuSans-Bold-79" transform="translate(3076.220703 0)"/>
     <use xlink:href="#DejaVuSans-Bold-20" transform="translate(3141.40625 0)"/>
     <use xlink:href="#DejaVuSans-Bold-61" transform="translate(3176.220703 0)"/>
     <use xlink:href="#DejaVuSans-Bold-64" transform="translate(3243.701172 0)"/>
     <use xlink:href="#DejaVuSans-Bold-61" transform="translate(3315.283203 0)"/>
     <use xlink:href="#DejaVuSans-Bold-70" transform="translate(3382.763672 0)"/>
     <use xlink:href="#DejaVuSans-Bold-74" transform="translate(3454.345703 0)"/>
     <use xlink:href="#DejaVuSans-Bold-61" transform="translate(3502.148438 0)"/>
     <use xlink:href="#DejaVuSans-Bold-74" transform="translate(3569.628906 0)"/>
     <use xlink:href="#DejaVuSans-Bold-69" transform="translate(3617.431641 0)"/>
     <use xlink:href="#DejaVuSans-Bold-6f" transform="translate(3651.708984 0)"/>
     <use xlink:href="#DejaVuSans-Bold-6e" transform="translate(3720.410156 0)"/>
     <use xlink:href="#DejaVuSans-Bold-20" transform="translate(3791.601562 0)"/>
     <use xlink:href="#DejaVuSans-Bold-77" transform="translate(3826.416016 0)"/>
     <use xlink:href="#DejaVuSans-Bold-69" transform="translate(3918.798828 0)"/>
     <use xlink:href="#DejaVuSans-Bold-74" transform="translate(3953.076172 0)"/>
     <use xlink:href="#DejaVuSans-Bold-68" transform="translate(4000.878906 0)"/>
     <use xlink:href="#DejaVuSans-Bold-6f" transform="translate(4072.070312 0)"/>
     <use xlink:href="#DejaVuSans-Bold-75" transform="translate(4140.771484 0)"/>
     <use xlink:href="#DejaVuSans-Bold-74" transform="translate(4211.962891 0)"/>
     <use xlink:href="#DejaVuSans-Bold-20" transform="translate(4259.765625 0)"/>
     <use xlink:href="#DejaVuSans-Bold-63" transform="translate(4294.580078 0)"/>
     <use xlink:href="#DejaVuSans-Bold-68" transform="translate(4353.857422 0)"/>
     <use xlink:href="#DejaVuSans-Bold-61" transform="translate(4425.048828 0)"/>
     <use xlink:href="#DejaVuSans-Bold-6e" transform="translate(4492.529297 0)"/>
     <use xlink:href="#DejaVuSans-Bold-67" transform="translate(4563.720703 0)"/>
     <use xlink:href="#DejaVuSans-Bold-69" transform="translate(4635.302734 0)"/>
     <use xlink:href="#DejaVuSans-Bold-6e" transform="translate(4669.580078 0)"/>
     <use xlink:href="#DejaVuSans-Bold-67" transform="translate(4740.771484 0)"/>
     <use xlink:href="#DejaVuSans-Bold-20" transform="translate(4812.353516 0)"/>
     <use xlink:href="#DejaVuSans-Bold-62" transform="translate(4847.167969 0)"/>
     <use xlink:href="#DejaVuSans-Bold-61" transform="translate(4918.75 0)"/>
     <use xlink:href="#DejaVuSans-Bold-73" transform="translate(4986.230469 0)"/>
     <use xlink:href="#DejaVuSans-Bold-65" transform="translate(5045.751953 0)"/>
     <use xlink:href="#DejaVuSans-Bold-2d" transform="translate(5113.574219 0)"/>
     <use xlink:href="#DejaVuSans-Bold-6d" transform="translate(5155.078125 0)"/>
     <use xlink:href="#DejaVuSans-Bold-6f" transform="translate(5259.277344 0)"/>
     <use xlink:href="#DejaVuSans-Bold-64" transform="translate(5327.978516 0)"/>
     <use xlink:href="#DejaVuSans-Bold-65" transform="translate(5399.560547 0)"/>
     <use xlink:href="#DejaVuSans-Bold-6c" transform="translate(5467.382812 0)"/>
     <use xlink:href="#DejaVuSans-Bold-20" transform="translate(5501.660156 0)"/>
     <use xlink:href="#DejaVuSans-Bold-70" transform="translate(5536.474609 0)"/>
     <use xlink:href="#DejaVuSans-Bold-61" transform="translate(5608.056641 0)"/>
     <use xlink:href="#DejaVuSans-Bold-72" transform="translate(5675.537109 0)"/>
     <use xlink:href="#DejaVuSans-Bold-61" transform="translate(5724.853516 0)"/>
     <use xlink:href="#DejaVuSans-Bold-6d" transform="translate(5792.333984 0)"/>
     <use xlink:href="#DejaVuSans-Bold-65" transform="translate(5896.533203 0)"/>
     <use xlink:href="#DejaVuSans-Bold-74" transform="translate(5964.355469 0)"/>
     <use xlink:href="#DejaVuSans-Bold-65" transform="translate(6012.158203 0)"/>
     <use xlink:href="#DejaVuSans-Bold-72" transform="translate(6079.980469 0)"/>
     <use xlink:href="#DejaVuSans-Bold-73" transform="translate(6129.296875 0)"/>
    </g>
   </g>
   <g id="text_18">
    <!-- All turns are logged for reproducibility; the TUI exposes persona loading, feedback entry, memory update, prompt reconstruction, and dashboard views. -->
    <g style="fill: #475569" transform="translate(90.066406 466.05) scale(0.1 -0.1)">
     <defs>
      <path id="DejaVuSans-41" d="M 2188 4044 
L 1331 1722 
L 3047 1722 
L 2188 4044 
z
M 1831 4666 
L 2547 4666 
L 4325 0 
L 3669 0 
L 3244 1197 
L 1141 1197 
L 716 0 
L 50 0 
L 1831 4666 
z
" transform="scale(0.015625)"/>
      <path id="DejaVuSans-66" d="M 2375 4863 
L 2375 4384 
L 1825 4384 
Q 1516 4384 1395 4259 
Q 1275 4134 1275 3809 
L 1275 3500 
L 2222 3500 
L 2222 3053 
L 1275 3053 
L 1275 0 
L 697 0 
L 697 3053 
L 147 3053 
L 147 3500 
L 697 3500 
L 697 3744 
Q 697 4328 969 4595 
Q 1241 4863 1831 4863 
L 2375 4863 
z
" transform="scale(0.015625)"/>
      <path id="DejaVuSans-3b" d="M 750 3309 
L 1409 3309 
L 1409 2516 
L 750 2516 
L 750 3309 
z
M 750 794 
L 1409 794 
L 1409 256 
L 897 -744 
L 494 -744 
L 750 256 
L 750 794 
z
" transform="scale(0.015625)"/>
      <path id="DejaVuSans-54" d="M -19 4666 
L 3928 4666 
L 3928 4134 
L 2272 4134 
L 2272 0 
L 1638 0 
L 1638 4134 
L -19 4134 
L -19 4666 
z
" transform="scale(0.015625)"/>
      <path id="DejaVuSans-55" d="M 556 4666 
L 1191 4666 
L 1191 1831 
Q 1191 1081 1462 751 
Q 1734 422 2344 422 
Q 2950 422 3222 751 
Q 3494 1081 3494 1831 
L 3494 4666 
L 4128 4666 
L 4128 1753 
Q 4128 841 3676 375 
Q 3225 -91 2344 -91 
Q 1459 -91 1007 375 
Q 556 841 556 1753 
L 556 4666 
z
" transform="scale(0.015625)"/>
      <path id="DejaVuSans-49" d="M 628 4666 
L 1259 4666 
L 1259 0 
L 628 0 
L 628 4666 
z
" transform="scale(0.015625)"/>
      <path id="DejaVuSans-78" d="M 3513 3500 
L 2247 1797 
L 3578 0 
L 2900 0 
L 1881 1375 
L 863 0 
L 184 0 
L 1544 1831 
L 300 3500 
L 978 3500 
L 1906 2253 
L 2834 3500 
L 3513 3500 
z
" transform="scale(0.015625)"/>
      <path id="DejaVuSans-2e" d="M 684 794 
L 1344 794 
L 1344 0 
L 684 0 
L 684 794 
z
" transform="scale(0.015625)"/>
     </defs>
     <use xlink:href="#DejaVuSans-41"/>
     <use xlink:href="#DejaVuSans-6c" transform="translate(68.408203 0)"/>
     <use xlink:href="#DejaVuSans-6c" transform="translate(96.191406 0)"/>
     <use xlink:href="#DejaVuSans-20" transform="translate(123.974609 0)"/>
     <use xlink:href="#DejaVuSans-74" transform="translate(155.761719 0)"/>
     <use xlink:href="#DejaVuSans-75" transform="translate(194.970703 0)"/>
     <use xlink:href="#DejaVuSans-72" transform="translate(258.349609 0)"/>
     <use xlink:href="#DejaVuSans-6e" transform="translate(297.712891 0)"/>
     <use xlink:href="#DejaVuSans-73" transform="translate(361.091797 0)"/>
     <use xlink:href="#DejaVuSans-20" transform="translate(413.191406 0)"/>
     <use xlink:href="#DejaVuSans-61" transform="translate(444.978516 0)"/>
     <use xlink:href="#DejaVuSans-72" transform="translate(506.257812 0)"/>
     <use xlink:href="#DejaVuSans-65" transform="translate(545.121094 0)"/>
     <use xlink:href="#DejaVuSans-20" transform="translate(606.644531 0)"/>
     <use xlink:href="#DejaVuSans-6c" transform="translate(638.431641 0)"/>
     <use xlink:href="#DejaVuSans-6f" transform="translate(666.214844 0)"/>
     <use xlink:href="#DejaVuSans-67" transform="translate(727.396484 0)"/>
     <use xlink:href="#DejaVuSans-67" transform="translate(790.873047 0)"/>
     <use xlink:href="#DejaVuSans-65" transform="translate(854.349609 0)"/>
     <use xlink:href="#DejaVuSans-64" transform="translate(915.873047 0)"/>
     <use xlink:href="#DejaVuSans-20" transform="translate(979.349609 0)"/>
     <use xlink:href="#DejaVuSans-66" transform="translate(1011.136719 0)"/>
     <use xlink:href="#DejaVuSans-6f" transform="translate(1046.341797 0)"/>
     <use xlink:href="#DejaVuSans-72" transform="translate(1107.523438 0)"/>
     <use xlink:href="#DejaVuSans-20" transform="translate(1148.636719 0)"/>
     <use xlink:href="#DejaVuSans-72" transform="translate(1180.423828 0)"/>
     <use xlink:href="#DejaVuSans-65" transform="translate(1219.287109 0)"/>
     <use xlink:href="#DejaVuSans-70" transform="translate(1280.810547 0)"/>
     <use xlink:href="#DejaVuSans-72" transform="translate(1344.287109 0)"/>
     <use xlink:href="#DejaVuSans-6f" transform="translate(1383.150391 0)"/>
     <use xlink:href="#DejaVuSans-64" transform="translate(1444.332031 0)"/>
     <use xlink:href="#DejaVuSans-75" transform="translate(1507.808594 0)"/>
     <use xlink:href="#DejaVuSans-63" transform="translate(1571.1875 0)"/>
     <use xlink:href="#DejaVuSans-69" transform="translate(1626.167969 0)"/>
     <use xlink:href="#DejaVuSans-62" transform="translate(1653.951172 0)"/>
     <use xlink:href="#DejaVuSans-69" transform="translate(1717.427734 0)"/>
     <use xlink:href="#DejaVuSans-6c" transform="translate(1745.210938 0)"/>
     <use xlink:href="#DejaVuSans-69" transform="translate(1772.994141 0)"/>
     <use xlink:href="#DejaVuSans-74" transform="translate(1800.777344 0)"/>
     <use xlink:href="#DejaVuSans-79" transform="translate(1839.986328 0)"/>
     <use xlink:href="#DejaVuSans-3b" transform="translate(1899.166016 0)"/>
     <use xlink:href="#DejaVuSans-20" transform="translate(1932.857422 0)"/>
     <use xlink:href="#DejaVuSans-74" transform="translate(1964.644531 0)"/>
     <use xlink:href="#DejaVuSans-68" transform="translate(2003.853516 0)"/>
     <use xlink:href="#DejaVuSans-65" transform="translate(2067.232422 0)"/>
     <use xlink:href="#DejaVuSans-20" transform="translate(2128.755859 0)"/>
     <use xlink:href="#DejaVuSans-54" transform="translate(2160.542969 0)"/>
     <use xlink:href="#DejaVuSans-55" transform="translate(2221.626953 0)"/>
     <use xlink:href="#DejaVuSans-49" transform="translate(2294.820312 0)"/>
     <use xlink:href="#DejaVuSans-20" transform="translate(2324.3125 0)"/>
     <use xlink:href="#DejaVuSans-65" transform="translate(2356.099609 0)"/>
     <use xlink:href="#DejaVuSans-78" transform="translate(2415.873047 0)"/>
     <use xlink:href="#DejaVuSans-70" transform="translate(2475.052734 0)"/>
     <use xlink:href="#DejaVuSans-6f" transform="translate(2538.529297 0)"/>
     <use xlink:href="#DejaVuSans-73" transform="translate(2599.710938 0)"/>
     <use xlink:href="#DejaVuSans-65" transform="translate(2651.810547 0)"/>
     <use xlink:href="#DejaVuSans-73" transform="translate(2713.333984 0)"/>
     <use xlink:href="#DejaVuSans-20" transform="translate(2765.433594 0)"/>
     <use xlink:href="#DejaVuSans-70" transform="translate(2797.220703 0)"/>
     <use xlink:href="#DejaVuSans-65" transform="translate(2860.697266 0)"/>
     <use xlink:href="#DejaVuSans-72" transform="translate(2922.220703 0)"/>
     <use xlink:href="#DejaVuSans-73" transform="translate(2963.333984 0)"/>
     <use xlink:href="#DejaVuSans-6f" transform="translate(3015.433594 0)"/>
     <use xlink:href="#DejaVuSans-6e" transform="translate(3076.615234 0)"/>
     <use xlink:href="#DejaVuSans-61" transform="translate(3139.994141 0)"/>
     <use xlink:href="#DejaVuSans-20" transform="translate(3201.273438 0)"/>
     <use xlink:href="#DejaVuSans-6c" transform="translate(3233.060547 0)"/>
     <use xlink:href="#DejaVuSans-6f" transform="translate(3260.84375 0)"/>
     <use xlink:href="#DejaVuSans-61" transform="translate(3322.025391 0)"/>
     <use xlink:href="#DejaVuSans-64" transform="translate(3383.304688 0)"/>
     <use xlink:href="#DejaVuSans-69" transform="translate(3446.78125 0)"/>
     <use xlink:href="#DejaVuSans-6e" transform="translate(3474.564453 0)"/>
     <use xlink:href="#DejaVuSans-67" transform="translate(3537.943359 0)"/>
     <use xlink:href="#DejaVuSans-2c" transform="translate(3601.419922 0)"/>
     <use xlink:href="#DejaVuSans-20" transform="translate(3633.207031 0)"/>
     <use xlink:href="#DejaVuSans-66" transform="translate(3664.994141 0)"/>
     <use xlink:href="#DejaVuSans-65" transform="translate(3700.199219 0)"/>
     <use xlink:href="#DejaVuSans-65" transform="translate(3761.722656 0)"/>
     <use xlink:href="#DejaVuSans-64" transform="translate(3823.246094 0)"/>
     <use xlink:href="#DejaVuSans-62" transform="translate(3886.722656 0)"/>
     <use xlink:href="#DejaVuSans-61" transform="translate(3950.199219 0)"/>
     <use xlink:href="#DejaVuSans-63" transform="translate(4011.478516 0)"/>
     <use xlink:href="#DejaVuSans-6b" transform="translate(4066.458984 0)"/>
     <use xlink:href="#DejaVuSans-20" transform="translate(4124.369141 0)"/>
     <use xlink:href="#DejaVuSans-65" transform="translate(4156.15625 0)"/>
     <use xlink:href="#DejaVuSans-6e" transform="translate(4217.679688 0)"/>
     <use xlink:href="#DejaVuSans-74" transform="translate(4281.058594 0)"/>
     <use xlink:href="#DejaVuSans-72" transform="translate(4320.267578 0)"/>
     <use xlink:href="#DejaVuSans-79" transform="translate(4361.380859 0)"/>
     <use xlink:href="#DejaVuSans-2c" transform="translate(4420.560547 0)"/>
     <use xlink:href="#DejaVuSans-20" transform="translate(4452.347656 0)"/>
     <use xlink:href="#DejaVuSans-6d" transform="translate(4484.134766 0)"/>
     <use xlink:href="#DejaVuSans-65" transform="translate(4581.546875 0)"/>
     <use xlink:href="#DejaVuSans-6d" transform="translate(4643.070312 0)"/>
     <use xlink:href="#DejaVuSans-6f" transform="translate(4740.482422 0)"/>
     <use xlink:href="#DejaVuSans-72" transform="translate(4801.664062 0)"/>
     <use xlink:href="#DejaVuSans-79" transform="translate(4842.777344 0)"/>
     <use xlink:href="#DejaVuSans-20" transform="translate(4901.957031 0)"/>
     <use xlink:href="#DejaVuSans-75" transform="translate(4933.744141 0)"/>
     <use xlink:href="#DejaVuSans-70" transform="translate(4997.123047 0)"/>
     <use xlink:href="#DejaVuSans-64" transform="translate(5060.599609 0)"/>
     <use xlink:href="#DejaVuSans-61" transform="translate(5124.076172 0)"/>
     <use xlink:href="#DejaVuSans-74" transform="translate(5185.355469 0)"/>
     <use xlink:href="#DejaVuSans-65" transform="translate(5224.564453 0)"/>
     <use xlink:href="#DejaVuSans-2c" transform="translate(5286.087891 0)"/>
     <use xlink:href="#DejaVuSans-20" transform="translate(5317.875 0)"/>
     <use xlink:href="#DejaVuSans-70" transform="translate(5349.662109 0)"/>
     <use xlink:href="#DejaVuSans-72" transform="translate(5413.138672 0)"/>
     <use xlink:href="#DejaVuSans-6f" transform="translate(5452.001953 0)"/>
     <use xlink:href="#DejaVuSans-6d" transform="translate(5513.183594 0)"/>
     <use xlink:href="#DejaVuSans-70" transform="translate(5610.595703 0)"/>
     <use xlink:href="#DejaVuSans-74" transform="translate(5674.072266 0)"/>
     <use xlink:href="#DejaVuSans-20" transform="translate(5713.28125 0)"/>
     <use xlink:href="#DejaVuSans-72" transform="translate(5745.068359 0)"/>
     <use xlink:href="#DejaVuSans-65" transform="translate(5783.931641 0)"/>
     <use xlink:href="#DejaVuSans-63" transform="translate(5845.455078 0)"/>
     <use xlink:href="#DejaVuSans-6f" transform="translate(5900.435547 0)"/>
     <use xlink:href="#DejaVuSans-6e" transform="translate(5961.617188 0)"/>
     <use xlink:href="#DejaVuSans-73" transform="translate(6024.996094 0)"/>
     <use xlink:href="#DejaVuSans-74" transform="translate(6077.095703 0)"/>
     <use xlink:href="#DejaVuSans-72" transform="translate(6116.304688 0)"/>
     <use xlink:href="#DejaVuSans-75" transform="translate(6157.417969 0)"/>
     <use xlink:href="#DejaVuSans-63" transform="translate(6220.796875 0)"/>
     <use xlink:href="#DejaVuSans-74" transform="translate(6275.777344 0)"/>
     <use xlink:href="#DejaVuSans-69" transform="translate(6314.986328 0)"/>
     <use xlink:href="#DejaVuSans-6f" transform="translate(6342.769531 0)"/>
     <use xlink:href="#DejaVuSans-6e" transform="translate(6403.951172 0)"/>
     <use xlink:href="#DejaVuSans-2c" transform="translate(6467.330078 0)"/>
     <use xlink:href="#DejaVuSans-20" transform="translate(6499.117188 0)"/>
     <use xlink:href="#DejaVuSans-61" transform="translate(6530.904297 0)"/>
     <use xlink:href="#DejaVuSans-6e" transform="translate(6592.183594 0)"/>
     <use xlink:href="#DejaVuSans-64" transform="translate(6655.5625 0)"/>
     <use xlink:href="#DejaVuSans-20" transform="translate(6719.039062 0)"/>
     <use xlink:href="#DejaVuSans-64" transform="translate(6750.826172 0)"/>
     <use xlink:href="#DejaVuSans-61" transform="translate(6814.302734 0)"/>
     <use xlink:href="#DejaVuSans-73" transform="translate(6875.582031 0)"/>
     <use xlink:href="#DejaVuSans-68" transform="translate(6927.681641 0)"/>
     <use xlink:href="#DejaVuSans-62" transform="translate(6991.060547 0)"/>
     <use xlink:href="#DejaVuSans-6f" transform="translate(7054.537109 0)"/>
     <use xlink:href="#DejaVuSans-61" transform="translate(7115.71875 0)"/>
     <use xlink:href="#DejaVuSans-72" transform="translate(7176.998047 0)"/>
     <use xlink:href="#DejaVuSans-64" transform="translate(7216.361328 0)"/>
     <use xlink:href="#DejaVuSans-20" transform="translate(7279.837891 0)"/>
     <use xlink:href="#DejaVuSans-76" transform="translate(7311.625 0)"/>
     <use xlink:href="#DejaVuSans-69" transform="translate(7370.804688 0)"/>
     <use xlink:href="#DejaVuSans-65" transform="translate(7398.587891 0)"/>
     <use xlink:href="#DejaVuSans-77" transform="translate(7460.111328 0)"/>
     <use xlink:href="#DejaVuSans-73" transform="translate(7541.898438 0)"/>
     <use xlink:href="#DejaVuSans-2e" transform="translate(7593.998047 0)"/>
    </g>
   </g>
  </g>
 </g>
 <defs>
  <clipPath id="pb7db304f05">
   <rect x="85.07625" y="7.2" width="772.56" height="496.8"/>
  </clipPath>
 </defs>
</svg>
